<svg width="153" height="39" viewBox="0 0 153 39" fill="none" xmlns="http://www.w3.org/2000/svg">
<g opacity="0.2">
<path d="M49.8441 25.6698H47.2206V24.2168H47.1803C46.8574 24.7818 46.4134 25.1854 45.8484 25.468C45.2833 25.7909 44.6376 25.9119 43.9514 25.9119C42.8617 25.9119 42.0141 25.5891 41.3684 24.9836C40.7226 24.3379 40.3594 23.3692 40.3594 22.0777V15.0146H43.1039V21.7548C43.1039 22.4813 43.3057 23.006 43.7093 23.3289C43.9918 23.571 44.4358 23.6921 44.9605 23.6921C45.4851 23.6921 45.9695 23.5307 46.3327 23.2078C46.817 22.8042 47.0592 22.1584 47.0592 21.3109V15.0146H49.8037V25.6698H49.8441Z" fill="#0D0D0D"/>
<path d="M54.889 11.623H52.1445V25.6281H54.889V11.623Z" fill="#0D0D0D"/>
<path d="M60.9023 11.623H64.0504C64.8577 15.2958 65.4227 17.8385 65.7456 19.2915C65.9474 20.3005 66.1492 21.2692 66.3106 22.1571H66.351L66.4317 21.5517C66.5932 20.5427 66.795 19.5337 66.9564 18.565C67.2793 16.8295 67.7636 14.529 68.3286 11.623H71.396C72.2032 15.3362 72.7279 17.8385 72.9701 19.2108C73.1719 20.1794 73.3333 21.1481 73.5351 22.1975H73.6158C73.7369 21.4306 73.9387 20.5023 74.1405 19.453C74.4634 17.9193 75.0688 15.3362 75.876 11.6634H78.8627L74.867 25.9913H72.0418C71.2749 22.4396 70.7906 20.0987 70.5485 18.8879C70.3063 17.5964 70.0641 16.2241 69.8623 14.7712H69.822C69.5798 16.2645 69.3377 17.5964 69.0955 18.7668C68.8533 20.0584 68.3286 22.4396 67.5618 25.9913H64.8173L60.9023 11.623Z" fill="#0D0D0D"/>
<path d="M85.6054 20.6234C85.4844 20.7445 85.2826 20.8656 85 20.9463C84.7175 21.027 84.3139 21.1481 83.7892 21.2288C83.1435 21.3499 82.6995 21.471 82.4573 21.6324C82.0941 21.8746 81.8923 22.2782 81.8923 22.7625C81.8923 23.2065 82.0134 23.5294 82.2959 23.7715C82.538 23.933 82.8206 24.054 83.1435 24.054C83.7892 24.054 84.3543 23.8522 84.8386 23.489C85.3633 23.0854 85.6054 22.6011 85.6054 21.9957V20.6234ZM88.3096 23.6504C88.3096 24.2155 88.3499 24.5787 88.471 24.8613C88.5517 25.0227 88.7132 25.1841 88.915 25.2649V25.6281H85.9687C85.888 25.3859 85.8072 25.1841 85.7669 25.0631C85.7265 24.9016 85.7265 24.6998 85.6862 24.4577C85.2018 24.9016 84.7982 25.2245 84.435 25.4263C83.7892 25.7895 83.1031 25.951 82.2959 25.951C81.408 25.951 80.6815 25.7088 80.1164 25.2245C79.4707 24.6595 79.1074 23.8926 79.1074 22.8836C79.1074 21.915 79.3899 21.1481 79.955 20.5427C80.4797 20.018 81.2062 19.6548 82.1344 19.5337L84.5964 19.1705C84.879 19.1301 85.0807 19.0494 85.2422 18.9283C85.4844 18.7668 85.5651 18.6054 85.5651 18.3632C85.5651 17.8386 85.3633 17.5157 84.9193 17.3139C84.6771 17.1928 84.2735 17.1524 83.7892 17.1524C83.1435 17.1524 82.6995 17.3139 82.4573 17.6368C82.2555 17.8789 82.1344 18.2018 82.0941 18.6054H79.4707C79.5917 17.1524 80.1568 16.1434 81.0851 15.5784C81.7712 15.1748 82.7802 14.9326 84.1121 14.9326C85.1211 14.9326 86.009 15.1344 86.7355 15.4573C87.7445 15.982 88.2692 16.8296 88.2692 17.9596V23.6504" fill="#0D0D0D"/>
<path d="M93.3929 11.623H90.6484V25.6281H93.3929V11.623Z" fill="#0D0D0D"/>
<path d="M98.4789 11.623H95.7344V25.6281H98.4789V11.623Z" fill="#0D0D0D"/>
<path d="M104.089 22.8042C104.492 23.4096 105.138 23.7325 105.945 23.7325C106.753 23.7325 107.318 23.3692 107.721 22.6024C108.044 22.0373 108.206 21.3512 108.206 20.5844C108.206 19.6561 108.044 18.9296 107.681 18.3646C107.277 17.7188 106.672 17.3959 105.865 17.3959C104.977 17.3959 104.371 17.7188 103.968 18.4049C103.645 18.97 103.483 19.6964 103.483 20.7055C103.564 21.553 103.726 22.2795 104.089 22.8042ZM103.524 16.7905C103.887 16.2658 104.25 15.8622 104.614 15.6201C105.179 15.2165 105.865 15.0146 106.672 15.0146C107.883 15.0146 108.892 15.4586 109.699 16.3465C110.587 17.3152 111.031 18.6471 111.031 20.3826C111.031 21.9566 110.668 23.2482 109.981 24.2572C109.174 25.4276 108.085 25.9927 106.632 25.9927C105.784 25.9927 105.098 25.7909 104.573 25.3873C104.25 25.1451 103.968 24.8222 103.685 24.3782V28.2125H100.9V15.2972H103.524V16.7905Z" fill="#0D0D0D"/>
<path d="M118.699 20.6234C118.577 20.7445 118.376 20.8656 118.093 20.9463C117.811 21.027 117.407 21.1481 116.842 21.2288C116.196 21.3499 115.793 21.471 115.51 21.6324C115.147 21.8746 114.945 22.2782 114.945 22.7625C114.945 23.2065 115.106 23.5294 115.349 23.7715C115.591 23.933 115.873 24.054 116.196 24.054C116.842 24.054 117.407 23.8522 117.851 23.489C118.376 23.0854 118.618 22.6011 118.618 21.9957V20.6234H118.699ZM121.403 23.6504C121.403 24.2155 121.443 24.5787 121.564 24.8613C121.645 25.0227 121.806 25.1841 121.968 25.2649V25.6281H119.021C118.941 25.3859 118.86 25.1841 118.82 25.0631C118.779 24.9016 118.779 24.6998 118.739 24.4577C118.255 24.9016 117.851 25.2245 117.488 25.4263C116.842 25.7895 116.156 25.951 115.349 25.951C114.461 25.951 113.734 25.7088 113.169 25.2245C112.523 24.6595 112.16 23.8926 112.16 22.8836C112.16 21.915 112.443 21.1481 113.048 20.5427C113.573 20.018 114.299 19.6548 115.187 19.5337L117.649 19.1705C117.932 19.1301 118.133 19.0494 118.295 18.9283C118.497 18.7668 118.618 18.6054 118.618 18.3632C118.618 17.8386 118.416 17.5157 117.972 17.3139C117.73 17.1928 117.326 17.1524 116.842 17.1524C116.237 17.1524 115.752 17.3139 115.51 17.6368C115.308 17.8789 115.187 18.2018 115.147 18.6054H112.523C112.644 17.1524 113.21 16.1434 114.138 15.5784C114.824 15.1748 115.833 14.9326 117.165 14.9326C118.174 14.9326 119.062 15.1344 119.788 15.4573C120.797 15.982 121.322 16.8296 121.322 17.9596V23.6504" fill="#0D0D0D"/>
<path d="M127.015 22.8042C127.418 23.4096 128.064 23.7325 128.871 23.7325C129.678 23.7325 130.243 23.3692 130.647 22.6024C130.97 22.0373 131.131 21.3512 131.131 20.5844C131.131 19.6561 130.97 18.9296 130.607 18.3646C130.203 17.7188 129.598 17.3959 128.79 17.3959C127.903 17.3959 127.297 17.7188 126.894 18.4049C126.571 18.97 126.45 19.6964 126.45 20.7055C126.45 21.553 126.651 22.2795 127.015 22.8042ZM126.45 16.7905C126.813 16.2658 127.176 15.8622 127.539 15.6201C128.104 15.2165 128.79 15.0146 129.598 15.0146C130.809 15.0146 131.818 15.4586 132.625 16.3465C133.513 17.3152 133.916 18.6471 133.916 20.3826C133.916 21.9566 133.553 23.2482 132.867 24.2572C132.06 25.4276 130.97 25.9927 129.517 25.9927C128.669 25.9927 127.983 25.7909 127.459 25.3873C127.136 25.1451 126.853 24.8222 126.571 24.3782V28.2125H123.826V15.2972H126.45V16.7905Z" fill="#0D0D0D"/>
<path d="M142.028 19.454C141.947 18.6871 141.705 18.1221 141.261 17.7588C140.898 17.4763 140.454 17.3149 139.97 17.3149C139.364 17.3149 138.88 17.5167 138.517 17.8799C138.153 18.2432 137.952 18.7678 137.871 19.454H142.028ZM144.732 22.6424C144.409 23.7725 143.763 24.6604 142.835 25.2255C142.068 25.7098 141.18 25.9923 140.212 25.9923C138.638 25.9923 137.427 25.5887 136.539 24.7412C135.57 23.7725 135.086 22.2792 135.086 20.3015C135.086 19.1311 135.328 18.0817 135.853 17.1938C136.7 15.7812 138.073 15.0547 140.01 15.0547C141.301 15.0547 142.351 15.4179 143.198 16.1444C144.288 17.1131 144.853 18.6468 144.853 20.7859V21.3105H137.83V21.3913C137.911 22.0774 138.073 22.6021 138.315 22.9249C138.678 23.5304 139.324 23.8532 140.212 23.8532C140.575 23.8532 140.938 23.7725 141.261 23.5304C141.584 23.3286 141.826 23.046 141.947 22.6828H144.732" fill="#0D0D0D"/>
<path d="M146.791 15.2972H149.414V17.1134C149.778 16.4273 150.101 15.9429 150.464 15.6604C150.948 15.2568 151.594 15.0146 152.401 15.0146L152.926 15.055V17.8399C152.805 17.7995 152.684 17.7591 152.522 17.7591C152.441 17.7591 152.32 17.7591 152.159 17.7591C151.15 17.7591 150.423 18.0417 149.979 18.5664C149.657 18.97 149.536 19.535 149.536 20.2615V25.6294H146.791V15.2972Z" fill="#0D0D0D"/>
<path d="M14.4086 12.8749C15.1351 13.6821 15.5387 14.6508 15.5387 15.7809H12.7539C12.6731 15.2562 12.5117 14.8122 12.2292 14.5297C11.7449 14.005 10.9376 13.7225 9.84792 13.7225C9.20215 13.7225 8.63711 13.8436 8.19314 14.0858C7.66846 14.3683 7.38594 14.8122 7.38594 15.3773C7.38594 15.8212 7.54738 16.1845 7.87026 16.4266C8.07206 16.5881 8.39495 16.7092 8.83891 16.8303H8.87927L12.3099 17.6778C13.44 17.92 14.2876 18.2832 14.8526 18.7675C15.6194 19.373 15.9827 20.3012 15.9827 21.4313C15.9827 23.2072 15.2158 24.4987 13.6821 25.2656C12.7539 25.7499 11.6641 25.992 10.4533 25.992C8.19314 25.992 6.53837 25.427 5.489 24.2969C4.76252 23.4897 4.39927 22.5211 4.39927 21.3506H7.2245C7.2245 21.9157 7.4263 22.3596 7.74918 22.7229C8.27386 23.2879 9.08107 23.5301 10.2515 23.5301C11.0587 23.5301 11.7449 23.409 12.2292 23.2072C12.8749 22.9247 13.1978 22.4403 13.1978 21.7946C13.1978 21.3102 12.9557 20.9066 12.4713 20.6241C12.1081 20.4223 11.5027 20.2609 10.6551 20.0591L9.16179 19.6958C8.39495 19.5344 7.8299 19.373 7.46666 19.2519C6.90161 19.0501 6.41729 18.8483 6.05405 18.6061C5.61008 18.2832 5.24684 17.92 5.04504 17.476C4.80288 16.9513 4.6818 16.3459 4.6818 15.6194C4.6818 14.5297 5.00468 13.6418 5.65044 12.8749C6.57873 11.8256 8.07206 11.3009 10.0901 11.3009C11.987 11.2605 13.44 11.8256 14.4086 12.8749ZM25.0638 16.1038C26.1535 17.0724 26.7185 18.6061 26.7185 20.7452V21.2699H19.6958V21.3506C19.7766 22.0367 19.938 22.5614 20.1802 22.8843C20.5434 23.4897 21.1892 23.8126 22.0771 23.8126C22.4807 23.8126 22.8036 23.7319 23.1265 23.4897C23.4493 23.2879 23.6915 23.0054 23.8126 22.6421H26.5974C26.2746 23.7722 25.6288 24.6602 24.7005 25.2252C23.9337 25.7095 23.0457 25.992 22.0771 25.992C20.503 25.992 19.2922 25.5884 18.4447 24.7409C17.476 23.7722 16.9513 22.2789 16.9513 20.3012C16.9513 19.1308 17.1935 18.0814 17.7182 17.1935C18.5657 15.7809 19.938 15.0544 21.8753 15.0544C23.2072 15.014 24.2565 15.3773 25.0638 16.1038ZM36.2839 16.3459C37.3333 17.3549 37.8983 18.7272 37.8983 20.503C37.8983 22.2789 37.3737 23.6511 36.2839 24.6198C35.3153 25.5077 34.1448 25.9517 32.6919 25.9517C31.1985 25.9517 29.9877 25.5077 29.0191 24.6198C27.9697 23.6108 27.4047 22.2385 27.4047 20.503C27.4047 18.7272 27.9293 17.3549 29.0191 16.3459C29.9877 15.458 31.1985 15.014 32.6919 15.014C34.1448 15.014 35.3153 15.458 36.2839 16.3459ZM0 19.3326C0 29.9877 8.63711 38.6652 19.3326 38.6652C29.9877 38.6652 38.6652 30.0281 38.6652 19.3326C38.6652 8.63711 29.9877 0 19.3326 0C8.63711 0 0 8.63711 0 19.3326ZM19.8169 19.4537H23.9337C23.8529 18.6868 23.6108 18.1218 23.1668 17.7585C22.8036 17.476 22.3596 17.3146 21.8753 17.3146C21.2699 17.3146 20.7856 17.5164 20.4223 17.8796C20.0994 18.2429 19.8573 18.7675 19.8169 19.4537ZM30.7142 18.4043C30.4317 18.929 30.2702 19.6151 30.2702 20.503C30.2702 21.3506 30.4317 22.0367 30.7142 22.5614C31.1178 23.2879 31.8039 23.6511 32.6919 23.6511C33.5798 23.6511 34.2256 23.2879 34.6292 22.5614C34.9117 22.0367 35.0731 21.3506 35.0731 20.503C35.0731 19.6151 34.9117 18.929 34.6292 18.4043C34.2256 17.6778 33.5798 17.3146 32.6919 17.3146C31.7636 17.3146 31.1178 17.6778 30.7142 18.4043Z" fill="#0D0D0D"/>
</g>
</svg>
