<svg width="229" height="229" viewBox="0 0 229 229" fill="none" xmlns="http://www.w3.org/2000/svg">
<path d="M130.19 13.7834L129.756 17.3463H129.495C129.495 16.6511 129.408 16.1297 129.234 15.6952C129.061 15.2607 128.713 14.9131 128.365 14.5655C127.931 14.3048 127.496 14.131 127.062 14.0441C126.54 13.9572 126.106 14.0441 125.671 14.3917C125.237 14.7393 125.063 15 124.976 15.4345C124.976 15.7821 124.976 16.0428 125.237 16.3035C125.498 16.738 126.193 17.3463 127.323 18.1284C128.192 18.7367 128.8 19.2581 129.147 19.5188C129.495 19.8665 129.669 20.2141 129.843 20.5617C130.016 20.9962 130.016 21.3438 130.016 21.7783C129.93 22.5604 129.495 23.1687 128.887 23.6901C128.192 24.2115 127.409 24.3853 126.454 24.2115C126.193 24.2115 125.845 24.1246 125.585 24.0377C125.411 23.9508 125.15 23.8639 124.629 23.6032C124.194 23.3425 123.847 23.2556 123.76 23.2556C123.673 23.2556 123.499 23.2556 123.412 23.3425C123.325 23.4294 123.238 23.5163 123.151 23.777H122.891L123.325 20.2141H123.586C123.586 20.9962 123.76 21.5176 123.933 21.9521C124.107 22.3866 124.368 22.7342 124.802 22.9949C125.237 23.2556 125.758 23.5163 126.28 23.5163C126.888 23.6032 127.409 23.5163 127.844 23.1687C128.278 22.908 128.452 22.4735 128.539 22.039C128.539 21.7783 128.539 21.5176 128.452 21.2569C128.365 20.9962 128.105 20.9093 127.757 20.6486C127.583 20.4748 127.062 20.0403 126.28 19.5188C125.498 18.9105 124.889 18.476 124.542 18.1284C124.194 17.7808 123.933 17.4332 123.847 17.0856C123.673 16.738 123.673 16.3035 123.673 15.869C123.76 15.1738 124.107 14.5655 124.802 14.0441C125.411 13.6096 126.193 13.4358 127.062 13.5227C127.583 13.6096 128.192 13.7834 128.713 14.131C128.974 14.3048 129.147 14.3917 129.321 14.3917C129.495 14.3917 129.582 14.3917 129.669 14.3048C129.756 14.2179 129.843 14.131 129.93 13.8703L130.19 13.7834Z" fill="#0D0D0D"/>
<path d="M135.318 15.6085L134.449 19.6059L136.708 20.1273C137.316 20.2142 137.664 20.2142 137.925 20.1273C138.272 19.9535 138.446 19.6059 138.62 18.9976L138.881 19.0845L138.098 22.5605L137.838 22.4736C137.838 21.9522 137.838 21.6046 137.838 21.5177C137.751 21.3439 137.664 21.1701 137.49 20.9963C137.316 20.8225 136.969 20.7356 136.621 20.6487L134.362 20.1273L133.58 23.4295C133.493 23.864 133.406 24.1247 133.493 24.2985C133.493 24.3854 133.58 24.4723 133.666 24.5592C133.753 24.6461 133.927 24.733 134.188 24.733L135.926 25.0806C136.534 25.1675 136.882 25.2544 137.229 25.2544C137.577 25.2544 137.751 25.1675 138.098 24.9937C138.446 24.733 138.881 24.3854 139.315 23.7771L139.576 23.864L138.098 26.2103L130.277 24.4723L130.364 24.2116L130.712 24.2985C130.973 24.3854 131.146 24.3854 131.407 24.2985C131.581 24.2116 131.755 24.1247 131.842 24.0378C131.928 23.864 132.015 23.6033 132.189 23.0819L133.666 16.4775C133.84 15.8692 133.84 15.4347 133.753 15.2609C133.58 15.0002 133.319 14.8263 132.884 14.7394L132.537 14.6525L132.624 14.3918L140.445 16.1299L140.097 18.3893L139.663 18.3024C139.663 17.781 139.663 17.3465 139.576 17.0858C139.489 16.8251 139.315 16.6513 139.141 16.4775C138.967 16.3906 138.62 16.2168 138.098 16.1299L135.318 15.6085Z" fill="#0D0D0D"/>
<path d="M147.745 18.2154C149.049 18.6499 149.918 19.5189 150.526 20.8224C151.134 22.1259 151.134 23.5164 150.7 24.9068C150.178 26.3841 149.309 27.4269 148.006 28.1221C146.702 28.8173 145.399 28.9042 144.095 28.3828C142.705 27.9483 141.749 27.0793 141.227 25.7758C140.619 24.4723 140.619 23.0819 141.141 21.6045C141.662 20.0403 142.618 18.9975 144.008 18.3023C145.225 17.7809 146.528 17.7809 147.745 18.2154ZM147.484 18.6499C146.615 18.3892 145.833 18.3892 145.051 18.9106C144.095 19.5189 143.4 20.5617 142.879 22.1259C142.357 23.6902 142.27 25.0806 142.618 26.2103C142.879 27.0793 143.487 27.6007 144.356 27.9483C145.312 28.2959 146.181 28.209 146.963 27.6876C147.745 27.1662 148.527 26.1234 149.049 24.5592C149.657 22.9081 149.744 21.5176 149.309 20.4748C149.049 19.6058 148.353 18.9975 147.484 18.6499Z" fill="#0D0D0D"/>
<path d="M160.258 24.0377L160.345 23.777L163.647 25.3412L163.56 25.6019L163.213 25.4281C162.865 25.2543 162.518 25.2543 162.17 25.515C161.996 25.6019 161.822 25.9495 161.562 26.4709L159.737 30.2945C159.302 31.2504 158.868 31.9456 158.433 32.2932C157.999 32.7277 157.39 32.9884 156.695 33.0753C156 33.1622 155.131 32.9884 154.175 32.5539C153.132 32.0325 152.437 31.5111 152.089 30.9028C151.742 30.2945 151.568 29.5993 151.655 28.9041C151.742 28.3827 152.003 27.6006 152.524 26.4709L154.262 22.8211C154.523 22.2128 154.61 21.8652 154.61 21.6045C154.523 21.3438 154.349 21.17 154.001 20.9961L153.654 20.8223L153.741 20.5616L157.738 22.4735L157.651 22.7342L157.303 22.6473C156.956 22.4735 156.608 22.4735 156.261 22.6473C156.087 22.7342 155.826 23.0818 155.565 23.6032L153.567 27.6875C153.393 28.0351 153.219 28.4696 153.045 28.991C152.872 29.5124 152.872 29.9469 152.872 30.2945C152.958 30.6421 153.045 30.9897 153.306 31.3373C153.567 31.6849 153.914 31.9456 154.349 32.2063C154.957 32.467 155.565 32.6408 156.174 32.6408C156.782 32.6408 157.303 32.467 157.651 32.1194C157.999 31.7718 158.433 31.1635 158.955 30.1207L160.78 26.384C161.04 25.7757 161.214 25.4281 161.127 25.1674C161.04 24.9067 160.866 24.646 160.519 24.4722L160.258 24.0377Z" fill="#0D0D0D"/>
<path d="M168.079 36.986L168.253 37.1598L165.993 39.0716L159.215 34.8135L159.389 34.5528L159.736 34.7266C160.084 34.9873 160.431 34.9873 160.779 34.9004C160.953 34.8135 161.214 34.5528 161.474 34.0314L165.037 28.3828C165.385 27.8614 165.559 27.4269 165.472 27.2531C165.385 26.9924 165.211 26.7317 164.863 26.471L164.516 26.2972L164.69 26.0365L168.687 28.5566L168.513 28.8173C168.079 28.5566 167.731 28.3828 167.47 28.2959C167.21 28.2959 167.036 28.2959 166.862 28.3828C166.688 28.4697 166.428 28.8173 166.167 29.3387L162.691 34.8135C162.43 35.1611 162.343 35.4218 162.343 35.5956C162.343 35.6825 162.343 35.8563 162.43 35.9432C162.517 36.0301 162.865 36.2908 163.386 36.6384L163.994 37.0729C164.69 37.5074 165.211 37.7681 165.472 37.855C165.732 37.9419 166.167 37.9419 166.515 37.7681C167.036 37.5943 167.47 37.3336 168.079 36.986Z" fill="#0D0D0D"/>
<path d="M186.937 42.8083L186.763 42.9821C186.59 42.8083 186.329 42.7214 186.155 42.6345C185.981 42.5476 185.721 42.6345 185.46 42.7214C185.286 42.8083 184.852 42.9821 184.243 43.3297L176.596 47.6748L176.335 47.501L178.942 40.9834L172.859 44.4595L172.686 44.2857L175.988 35.7694C176.248 35.1611 176.335 34.7266 176.422 34.6397C176.509 34.4659 176.422 34.2052 176.422 34.0314C176.422 33.8576 176.162 33.6838 175.988 33.4231L176.162 33.2493L179.029 35.7694L178.856 35.9432L178.682 35.8563C178.508 35.6825 178.247 35.5956 178.073 35.5956C177.9 35.5956 177.726 35.6825 177.639 35.7694C177.552 35.9432 177.378 36.2908 177.117 36.8991L174.858 42.6345L179.377 40.0275L179.725 39.1585L179.985 38.4633C180.072 38.2026 180.159 37.9419 180.159 37.6812C180.159 37.5943 180.159 37.4205 180.159 37.3336C180.159 37.1598 180.072 37.0729 179.985 36.8991C179.898 36.8122 179.811 36.7253 179.638 36.5515L179.811 36.3777L182.853 39.0716L182.679 39.2454L182.505 39.0716C182.332 38.8978 182.071 38.8109 181.897 38.8109C181.723 38.8109 181.549 38.8978 181.463 39.0716C181.289 39.2454 181.115 39.6799 180.854 40.2882L178.682 45.8499L183.896 42.8952C184.504 42.5476 184.852 42.2869 185.025 42.1131C185.112 42.0262 185.112 41.9393 185.199 41.7655C185.286 41.5917 185.199 41.5048 185.112 41.4179C185.025 41.2441 184.852 41.0703 184.591 40.8096L184.765 40.6358L186.937 42.8083Z" fill="#0D0D0D"/>
<path d="M185.894 52.1935L183.2 49.2389L181.549 49.8472C181.115 50.021 180.854 50.1079 180.68 50.2817C180.593 50.3686 180.507 50.5424 180.507 50.7162C180.507 50.89 180.68 51.2376 181.028 51.5852L180.854 51.759L178.682 49.3258L178.855 49.152C179.203 49.4127 179.464 49.5865 179.638 49.5865C179.985 49.5865 180.593 49.4996 181.289 49.2389L190.066 46.1974L190.239 46.3712L186.242 54.8006C185.894 55.4958 185.807 56.0172 185.807 56.2779C185.807 56.5386 185.981 56.8862 186.242 57.2338L185.981 57.4076L183.2 54.3661L183.374 54.1923C183.635 54.453 183.896 54.6268 184.069 54.7137C184.243 54.7137 184.417 54.7137 184.504 54.6268C184.678 54.453 184.852 54.1923 185.112 53.6708L185.894 52.1935ZM186.155 51.6721L188.067 47.5878L183.722 49.0651L186.155 51.6721Z" fill="#0D0D0D"/>
<path d="M193.367 62.8824L193.454 63.1431L190.673 64.099L185.98 57.5815L186.241 57.4077L186.502 57.7553C186.763 58.1029 187.023 58.2767 187.371 58.2767C187.545 58.2767 187.892 58.1029 188.414 57.7553L193.802 53.8447C194.323 53.4971 194.584 53.1495 194.671 52.9757C194.757 52.715 194.671 52.3674 194.41 52.0198L194.149 51.6722L194.41 51.4984L197.191 55.322L196.93 55.4958C196.582 55.0613 196.322 54.8006 196.148 54.6268C195.974 54.453 195.713 54.453 195.54 54.453C195.366 54.453 195.018 54.7137 194.497 55.0613L189.196 58.885C188.848 59.1457 188.674 59.3195 188.587 59.4933C188.501 59.5802 188.501 59.754 188.587 59.8409C188.587 60.0147 188.848 60.2754 189.196 60.8837L189.63 61.492C190.065 62.1003 190.499 62.5348 190.76 62.7086C191.021 62.8824 191.368 63.0562 191.803 63.0562C192.15 63.0562 192.672 63.0562 193.367 62.8824Z" fill="#0D0D0D"/>
<path d="M198.147 70.9642L198.234 71.2249L195.367 71.8332L191.369 64.8811L191.63 64.7073L191.804 65.0549C192.064 65.4025 192.325 65.6632 192.673 65.6632C192.846 65.6632 193.194 65.4894 193.715 65.2287L199.538 61.8396C200.059 61.492 200.407 61.2313 200.494 61.0575C200.581 60.7968 200.494 60.4492 200.32 60.1016L200.146 59.754L200.407 59.5802L202.753 63.6645L202.492 63.8383C202.232 63.3169 201.971 63.0562 201.797 62.8824C201.623 62.7086 201.363 62.7086 201.189 62.7086C201.015 62.7086 200.668 62.8824 200.146 63.23L194.498 66.5323C194.15 66.7061 193.889 66.9668 193.802 67.0537C193.715 67.1406 193.715 67.3144 193.715 67.4013C193.715 67.5751 193.889 67.9227 194.237 68.4441L194.584 69.1393C195.019 69.8345 195.28 70.269 195.54 70.5297C195.801 70.7904 196.149 70.8773 196.496 70.9642C196.844 71.0511 197.452 71.138 198.147 70.9642Z" fill="#0D0D0D"/>
<path d="M201.537 73.4843L198.756 74.701C198.148 74.9617 197.8 75.2224 197.714 75.3962C197.627 75.6569 197.627 76.0045 197.8 76.3521L197.974 76.6997L197.714 76.7866L195.889 72.7891L196.149 72.7022L196.323 73.0498C196.497 73.4843 196.758 73.6581 197.105 73.745C197.279 73.745 197.627 73.6581 198.148 73.3974L204.231 70.6166C204.839 70.3559 205.187 70.0952 205.274 69.9214C205.361 69.6607 205.361 69.3131 205.187 68.9655L205.013 68.6179L205.274 68.531L206.838 72.007C207.186 72.876 207.446 73.5712 207.533 74.0926C207.62 74.701 207.446 75.2224 207.186 75.7438C206.925 76.2652 206.491 76.6128 205.969 76.8735C205.187 77.2211 204.492 77.2211 203.71 76.9604C203.015 76.6997 202.406 76.0914 201.972 75.1355C201.885 74.8748 201.798 74.6141 201.711 74.3534C201.624 74.1795 201.537 73.8319 201.537 73.4843ZM201.885 73.3105C201.972 73.5712 202.059 73.8319 202.059 74.0057C202.146 74.1795 202.146 74.3533 202.232 74.5271C202.493 75.0486 202.841 75.3093 203.362 75.4831C203.884 75.6569 204.492 75.6569 205.013 75.3093C205.448 75.1355 205.795 74.8748 206.056 74.5271C206.317 74.1795 206.491 73.8319 206.491 73.4843C206.491 73.1367 206.491 72.7022 206.317 72.3546C206.23 72.0939 206.056 71.8332 205.795 71.4856L201.885 73.3105Z" fill="#0D0D0D"/>
<path d="M204.403 84.4337L203.1 80.6101L201.362 80.5232C200.927 80.5232 200.58 80.5232 200.406 80.6101C200.232 80.697 200.145 80.7839 200.058 80.9577C199.972 81.1315 200.058 81.4791 200.145 81.9136L199.885 82.0005L198.842 78.959L199.103 78.8721C199.276 79.2197 199.537 79.4804 199.624 79.5673C199.972 79.7411 200.493 79.828 201.275 79.9149L210.486 80.5232L210.573 80.7839L203.621 87.0407C203.1 87.5621 202.752 87.9097 202.579 88.2573C202.492 88.5181 202.492 88.8657 202.579 89.3002L202.318 89.3871L200.927 85.5634L201.188 85.4765C201.362 85.8241 201.536 86.0848 201.623 86.1717C201.796 86.2586 201.97 86.2586 202.057 86.2586C202.231 86.1717 202.579 85.9979 202.926 85.6503L204.403 84.4337ZM204.838 83.9992L208.227 80.9577L203.708 80.6101L204.838 83.9992Z" fill="#0D0D0D"/>
<path d="M207.794 91.0383L204.839 91.7335C204.231 91.9073 203.797 92.0811 203.71 92.2549C203.536 92.5156 203.536 92.7763 203.623 93.2108L203.71 93.5584L203.449 93.6453L202.406 89.3003L202.667 89.2134L202.754 89.561C202.841 89.9955 203.101 90.2562 203.362 90.3431C203.536 90.43 203.884 90.3431 204.492 90.2562L211.009 88.692C211.618 88.5182 212.052 88.3444 212.139 88.1706C212.313 87.9099 212.313 87.6492 212.226 87.2147L212.139 86.8671L212.4 86.7802L213.269 90.43C213.443 91.299 213.53 92.0811 213.53 92.6025C213.53 93.1239 213.269 93.6453 212.921 94.1667C212.574 94.6012 212.052 94.9488 211.444 95.0357C210.662 95.2095 209.88 95.1226 209.271 94.6881C208.663 94.2536 208.229 93.5584 207.968 92.6025C207.881 92.3418 207.881 92.0811 207.794 91.8204C207.794 91.7335 207.794 91.3859 207.794 91.0383ZM208.229 90.9514C208.229 91.2121 208.229 91.4728 208.315 91.6466C208.402 91.8204 208.402 91.9942 208.402 92.168C208.489 92.6894 208.837 93.037 209.358 93.3846C209.88 93.6453 210.401 93.7322 211.009 93.5584C211.444 93.4715 211.792 93.2977 212.139 93.037C212.487 92.7763 212.661 92.4287 212.834 92.0811C212.921 91.7335 212.921 91.299 212.834 90.8645C212.747 90.6038 212.661 90.2562 212.487 89.9086L208.229 90.9514Z" fill="#0D0D0D"/>
<path d="M214.397 99.033L210.313 99.5544L210.66 101.814C210.747 102.422 210.921 102.77 211.095 102.944C211.355 103.204 211.79 103.291 212.398 103.204V103.465L208.835 103.986V103.726C209.357 103.552 209.617 103.465 209.791 103.378C209.965 103.291 210.052 103.117 210.139 102.857C210.226 102.596 210.226 102.335 210.139 101.901L209.791 99.6413L206.402 100.076C205.968 100.163 205.707 100.163 205.62 100.25C205.533 100.336 205.446 100.423 205.446 100.51C205.359 100.597 205.359 100.858 205.446 101.119L205.707 102.857C205.794 103.465 205.881 103.813 205.968 104.073C206.054 104.334 206.315 104.595 206.576 104.768C206.923 105.029 207.445 105.29 208.14 105.551V105.811L205.446 105.29L204.316 97.3819H204.577L204.664 97.7295C204.664 97.9902 204.751 98.164 204.925 98.4247C205.012 98.5985 205.185 98.6854 205.359 98.6854C205.533 98.6854 205.881 98.6854 206.402 98.5985L213.093 97.6426C213.702 97.5557 214.136 97.4688 214.31 97.295C214.484 97.1212 214.571 96.7736 214.484 96.3391L214.397 95.9915H214.658L215.787 103.899L213.528 104.334V104.073C214.049 103.899 214.397 103.726 214.571 103.552C214.744 103.378 214.918 103.204 214.918 102.944C215.005 102.77 214.918 102.335 214.918 101.901L214.397 99.033Z" fill="#0D0D0D"/>
<path d="M205.968 116.761L205.881 113.98L210.573 110.33C210.573 110.069 210.573 109.896 210.573 109.722C210.573 109.635 210.573 109.548 210.573 109.548C210.573 109.461 210.573 109.374 210.573 109.287L207.532 109.374C206.924 109.374 206.489 109.461 206.315 109.635C206.142 109.809 205.968 110.156 205.968 110.504V110.938H205.707L205.533 106.506H205.794V106.854C205.794 107.289 205.968 107.636 206.228 107.81C206.402 107.897 206.75 107.984 207.358 107.897L214.049 107.636C214.658 107.636 215.092 107.549 215.266 107.375C215.44 107.202 215.614 106.854 215.614 106.506V106.159H215.874L215.961 109.896C215.961 111.025 215.961 111.807 215.787 112.329C215.614 112.85 215.353 113.285 214.918 113.719C214.484 114.067 213.963 114.327 213.441 114.327C212.833 114.327 212.225 114.154 211.79 113.719C211.269 113.285 210.921 112.676 210.747 111.807L207.88 114.067C207.184 114.588 206.75 115.023 206.576 115.37C206.402 115.718 206.228 116.152 206.228 116.761H205.968ZM211.008 109.2C211.008 109.287 211.008 109.374 211.008 109.461C211.008 109.548 211.008 109.548 211.008 109.635C211.008 110.591 211.269 111.373 211.703 111.807C212.138 112.329 212.659 112.503 213.354 112.503C213.963 112.503 214.484 112.242 214.918 111.807C215.353 111.373 215.527 110.851 215.44 110.156C215.44 109.896 215.353 109.461 215.266 108.94L211.008 109.2Z" fill="#0D0D0D"/>
<path d="M214.919 132.142L211.356 131.621V131.36C212.051 131.36 212.572 131.273 213.094 131.099C213.528 130.926 213.876 130.665 214.223 130.23C214.484 129.796 214.745 129.361 214.745 128.927C214.832 128.405 214.745 127.971 214.484 127.536C214.223 127.189 213.876 126.928 213.441 126.841C213.094 126.754 212.833 126.841 212.572 127.015C212.138 127.276 211.529 127.971 210.747 129.014C210.052 129.883 209.618 130.491 209.27 130.839C208.922 131.186 208.575 131.36 208.14 131.534C207.706 131.708 207.358 131.708 206.924 131.621C206.142 131.534 205.533 131.099 205.012 130.404C204.577 129.709 204.404 128.927 204.49 127.971C204.49 127.71 204.577 127.363 204.664 127.102C204.751 126.928 204.838 126.667 205.099 126.146C205.359 125.625 205.446 125.364 205.446 125.277C205.446 125.19 205.446 125.016 205.359 124.929C205.273 124.842 205.186 124.756 204.925 124.669V124.408L208.401 124.929V125.19C207.619 125.19 207.098 125.277 206.663 125.451C206.228 125.625 205.881 125.885 205.62 126.32C205.273 126.754 205.099 127.189 205.012 127.797C204.925 128.405 205.012 128.927 205.273 129.361C205.533 129.796 205.881 130.057 206.402 130.057C206.663 130.057 206.924 130.057 207.184 129.97C207.445 129.883 207.706 129.709 207.967 129.448C208.14 129.274 208.575 128.753 209.183 127.971C209.791 127.189 210.313 126.58 210.66 126.233C211.008 125.885 211.356 125.711 211.79 125.538C212.225 125.364 212.572 125.364 213.007 125.451C213.702 125.538 214.31 125.972 214.745 126.58C215.179 127.189 215.353 127.971 215.266 128.84C215.179 129.361 215.005 129.97 214.571 130.491C214.397 130.752 214.31 130.926 214.31 131.099C214.31 131.273 214.31 131.36 214.397 131.447C214.484 131.534 214.571 131.621 214.832 131.708L214.919 132.142Z" fill="#0D0D0D"/>
<path d="M213.007 137.182L209.01 136.227L208.488 138.399C208.314 139.007 208.314 139.355 208.488 139.616C208.662 139.963 209.01 140.137 209.618 140.311L209.531 140.572L206.055 139.703L206.142 139.442C206.663 139.529 207.011 139.529 207.098 139.442C207.272 139.355 207.445 139.268 207.619 139.094C207.793 138.92 207.88 138.66 207.967 138.225L208.488 136.053L205.186 135.271C204.752 135.184 204.491 135.097 204.317 135.097C204.23 135.097 204.143 135.184 204.056 135.271C203.969 135.358 203.883 135.531 203.796 135.792L203.361 137.53C203.187 138.138 203.187 138.486 203.187 138.834C203.187 139.094 203.274 139.355 203.448 139.703C203.709 140.05 204.056 140.485 204.578 141.006L204.491 141.267L202.145 139.789L204.056 132.055L204.317 132.142L204.23 132.49C204.143 132.751 204.143 132.924 204.23 133.185C204.23 133.359 204.404 133.533 204.491 133.62C204.578 133.706 204.925 133.793 205.447 133.967L211.964 135.531C212.573 135.705 213.007 135.705 213.181 135.618C213.442 135.531 213.615 135.184 213.702 134.836L213.789 134.489L214.05 134.575L212.138 142.31L209.879 141.875L209.966 141.614C210.487 141.614 210.921 141.614 211.182 141.527C211.443 141.441 211.617 141.267 211.791 141.093C211.877 140.919 212.051 140.572 212.138 140.05L213.007 137.182Z" fill="#0D0D0D"/>
<path d="M210.139 149.609C209.705 150.913 208.836 151.782 207.532 152.39C206.229 152.998 204.838 152.998 203.448 152.477C201.97 151.956 200.928 151 200.319 149.696C199.711 148.393 199.624 147.089 200.059 145.786C200.58 144.482 201.449 143.526 202.753 142.918C204.056 142.397 205.447 142.31 206.924 142.918C208.488 143.526 209.531 144.482 210.139 145.873C210.661 147.089 210.661 148.393 210.139 149.609ZM209.705 149.262C210.052 148.393 209.965 147.611 209.531 146.828C209.009 145.873 207.88 145.09 206.402 144.569C204.838 143.961 203.448 143.874 202.405 144.221C201.536 144.482 201.015 145.09 200.667 145.959C200.319 146.915 200.406 147.784 200.928 148.653C201.449 149.522 202.405 150.218 203.969 150.739C205.62 151.347 207.011 151.434 208.054 151.087C208.749 150.826 209.357 150.218 209.705 149.262Z" fill="#0D0D0D"/>
<path d="M204.057 162.036L204.318 162.123L202.667 165.425L202.406 165.338L202.58 164.991C202.754 164.643 202.754 164.295 202.58 163.948C202.493 163.774 202.145 163.6 201.711 163.34L197.974 161.428C197.018 160.993 196.41 160.472 195.975 160.037C195.541 159.603 195.28 158.995 195.193 158.299C195.106 157.604 195.28 156.735 195.802 155.866C196.323 154.823 196.844 154.215 197.453 153.867C198.061 153.52 198.756 153.433 199.451 153.433C199.886 153.52 200.755 153.78 201.798 154.389L205.447 156.214C206.056 156.474 206.403 156.648 206.664 156.561C206.925 156.474 207.099 156.301 207.359 155.953L207.533 155.605L207.794 155.692L205.795 159.69L205.534 159.603L205.708 159.255C205.882 158.908 205.882 158.56 205.795 158.212C205.708 158.039 205.361 157.778 204.839 157.517L200.842 155.432C200.494 155.258 200.06 155.084 199.538 154.91C199.017 154.736 198.582 154.649 198.235 154.736C197.887 154.736 197.54 154.91 197.192 155.171C196.844 155.432 196.584 155.779 196.323 156.214C195.975 156.822 195.888 157.43 195.888 158.039C195.888 158.647 196.062 159.168 196.41 159.516C196.757 159.864 197.366 160.298 198.322 160.819L202.058 162.731C202.667 162.992 203.014 163.166 203.275 163.079C203.536 162.992 203.796 162.818 203.97 162.471L204.057 162.036Z" fill="#0D0D0D"/>
<path d="M191.022 169.51L190.848 169.683L189.023 167.424L193.455 160.733L193.716 160.906L193.542 161.254C193.282 161.602 193.282 161.949 193.368 162.297C193.455 162.471 193.716 162.731 194.237 163.079L199.799 166.729C200.321 167.076 200.755 167.25 200.929 167.25C201.19 167.25 201.45 166.989 201.711 166.729L201.885 166.381L202.145 166.555L199.538 170.465L199.278 170.292C199.625 169.857 199.712 169.51 199.799 169.249C199.799 168.988 199.799 168.814 199.712 168.641C199.625 168.467 199.278 168.206 198.843 167.858L193.368 164.295C193.021 164.035 192.76 163.948 192.586 163.948C192.499 163.948 192.326 163.948 192.239 164.035C192.152 164.122 191.891 164.469 191.544 164.991L191.109 165.599C190.675 166.294 190.414 166.729 190.327 167.076C190.24 167.424 190.24 167.772 190.327 168.119C190.414 168.467 190.675 168.988 191.022 169.51Z" fill="#0D0D0D"/>
<path d="M184.852 188.193L184.678 188.019C184.852 187.846 184.939 187.585 185.026 187.411C185.113 187.237 185.026 186.977 184.939 186.716C184.852 186.542 184.678 186.108 184.33 185.499L180.072 177.765L180.246 177.504L186.764 180.198L183.461 174.028L183.635 173.855L192.065 177.331C192.673 177.591 193.107 177.765 193.194 177.765C193.368 177.852 193.629 177.852 193.803 177.765C193.976 177.678 194.15 177.591 194.411 177.331L194.585 177.504L191.978 180.372L191.804 180.198L191.891 180.025C192.065 179.851 192.151 179.59 192.151 179.416C192.151 179.242 192.065 179.069 191.978 178.982C191.804 178.895 191.456 178.634 190.848 178.373L185.199 175.94L187.72 180.546L188.589 180.894L189.284 181.154C189.544 181.241 189.805 181.328 190.066 181.328C190.153 181.328 190.327 181.328 190.413 181.328C190.587 181.328 190.674 181.241 190.848 181.154C190.935 181.067 191.022 180.98 191.196 180.807L191.369 180.98L188.675 183.935L188.502 183.761L188.675 183.587C188.849 183.414 188.936 183.153 188.936 182.979C188.936 182.805 188.849 182.632 188.675 182.458C188.502 182.284 188.067 182.023 187.459 181.763L181.984 179.416L184.852 184.717C185.199 185.326 185.373 185.673 185.634 185.847C185.721 185.934 185.808 185.934 185.982 186.021C186.068 186.021 186.242 186.021 186.329 185.934C186.503 185.847 186.677 185.673 186.937 185.412L187.111 185.586L184.852 188.193Z" fill="#0D0D0D"/>
<path d="M175.467 187.063L178.509 184.456L177.987 182.718C177.813 182.284 177.726 182.023 177.553 181.849C177.466 181.763 177.292 181.676 177.118 181.676C176.944 181.676 176.597 181.849 176.249 182.11L176.075 181.936L178.509 179.764L178.682 179.938C178.422 180.285 178.248 180.546 178.248 180.72C178.248 181.067 178.335 181.676 178.595 182.371L181.463 191.235L181.289 191.408L172.947 187.237C172.252 186.89 171.817 186.716 171.47 186.716C171.122 186.716 170.861 186.803 170.514 187.063L170.34 186.89L173.468 184.196L173.642 184.37C173.381 184.63 173.208 184.891 173.121 185.065C173.121 185.239 173.121 185.412 173.208 185.499C173.381 185.673 173.642 185.847 174.163 186.108L175.467 187.063ZM175.988 187.324L180.073 189.323L178.682 184.978L175.988 187.324Z" fill="#0D0D0D"/>
<path d="M164.604 194.276L164.344 194.363L163.475 191.582L170.079 186.977L170.253 187.237L169.905 187.498C169.558 187.759 169.384 188.019 169.384 188.367C169.384 188.541 169.558 188.888 169.905 189.41L173.729 194.885C174.076 195.406 174.424 195.667 174.598 195.754C174.859 195.84 175.206 195.754 175.554 195.493L175.901 195.232L176.075 195.493L172.252 198.187L172.078 197.926C172.512 197.578 172.86 197.318 172.947 197.144C173.034 196.97 173.121 196.709 173.121 196.536C173.121 196.362 172.947 196.014 172.599 195.493L168.862 190.105C168.602 189.757 168.428 189.584 168.254 189.497C168.167 189.41 167.993 189.41 167.907 189.497C167.733 189.497 167.472 189.757 166.864 190.105L166.255 190.539C165.56 190.974 165.213 191.322 164.952 191.669C164.778 191.93 164.604 192.277 164.604 192.712C164.431 193.06 164.517 193.668 164.604 194.276Z" fill="#0D0D0D"/>
<path d="M156.435 198.882L156.175 198.969L155.566 196.101L162.605 192.191L162.779 192.451L162.432 192.625C162.084 192.799 161.823 193.146 161.823 193.494C161.823 193.668 161.91 194.015 162.258 194.537L165.473 200.359C165.821 200.968 166.081 201.228 166.255 201.315C166.516 201.402 166.863 201.402 167.211 201.141L167.559 200.968L167.732 201.228L163.648 203.488L163.474 203.227C163.996 202.966 164.256 202.706 164.43 202.532C164.604 202.358 164.604 202.097 164.604 201.923C164.604 201.75 164.43 201.402 164.17 200.881L161.041 195.145C160.867 194.798 160.694 194.537 160.52 194.45C160.433 194.363 160.259 194.363 160.172 194.363C159.998 194.363 159.651 194.537 159.129 194.884L158.434 195.232C157.739 195.58 157.304 195.927 157.044 196.188C156.783 196.449 156.696 196.796 156.609 197.144C156.349 197.665 156.349 198.274 156.435 198.882Z" fill="#0D0D0D"/>
<path d="M153.828 202.271L152.611 199.49C152.351 198.882 152.09 198.534 151.916 198.447C151.655 198.361 151.308 198.361 150.96 198.447L150.613 198.621L150.526 198.361L154.61 196.623L154.697 196.883L154.349 197.057C153.915 197.231 153.741 197.492 153.654 197.839C153.654 198.013 153.741 198.361 154.002 198.969L156.696 205.139C156.956 205.747 157.217 206.095 157.391 206.182C157.651 206.269 157.999 206.269 158.347 206.095L158.694 205.921L158.781 206.182L155.305 207.659C154.436 208.007 153.741 208.267 153.22 208.267C152.698 208.267 152.09 208.18 151.568 207.92C151.047 207.659 150.699 207.224 150.439 206.703C150.091 205.921 150.091 205.226 150.352 204.444C150.613 203.748 151.308 203.14 152.177 202.793C152.437 202.706 152.698 202.619 152.959 202.532C153.22 202.358 153.567 202.271 153.828 202.271ZM154.002 202.619C153.741 202.706 153.48 202.706 153.306 202.793C153.133 202.879 152.959 202.879 152.785 202.966C152.264 203.14 152.003 203.575 151.742 204.096C151.482 204.617 151.568 205.226 151.829 205.747C152.003 206.182 152.264 206.529 152.611 206.79C152.959 207.051 153.306 207.224 153.654 207.311C154.002 207.311 154.436 207.311 154.784 207.138C155.044 207.051 155.305 206.877 155.653 206.616L154.002 202.619Z" fill="#0D0D0D"/>
<path d="M142.879 204.965L146.703 203.748L146.877 202.01C146.877 201.576 146.877 201.228 146.877 201.054C146.79 200.881 146.703 200.794 146.529 200.707C146.355 200.62 146.008 200.707 145.573 200.794L145.486 200.533L148.615 199.49L148.701 199.751C148.354 199.925 148.093 200.099 148.006 200.272C147.832 200.62 147.746 201.141 147.659 201.923L146.877 211.135L146.616 211.222L140.446 204.183C139.925 203.575 139.577 203.314 139.229 203.14C138.969 203.053 138.621 203.053 138.187 203.14L138.1 202.879L142.01 201.576L142.097 201.837C141.749 202.01 141.489 202.097 141.402 202.271C141.315 202.445 141.315 202.619 141.315 202.706C141.402 202.879 141.576 203.227 141.923 203.575L142.879 204.965ZM143.227 205.399L146.181 208.789L146.616 204.27L143.227 205.399Z" fill="#0D0D0D"/>
<path d="M136.188 208.18L135.579 205.226C135.406 204.617 135.319 204.183 135.145 204.096C134.884 203.922 134.624 203.835 134.189 203.922L133.841 204.009L133.755 203.748L138.1 202.792L138.186 203.053L137.839 203.14C137.404 203.227 137.144 203.401 136.97 203.748C136.883 203.922 136.97 204.27 137.057 204.878L138.447 211.396C138.621 212.004 138.708 212.438 138.882 212.525C139.142 212.699 139.403 212.786 139.838 212.699L140.185 212.612L140.272 212.873L136.535 213.655C135.666 213.829 134.884 213.916 134.363 213.829C133.841 213.742 133.32 213.568 132.799 213.134C132.364 212.786 132.017 212.265 131.93 211.656C131.756 210.787 131.843 210.092 132.277 209.484C132.712 208.876 133.407 208.441 134.45 208.18C134.71 208.093 134.971 208.093 135.232 208.093C135.493 208.18 135.84 208.18 136.188 208.18ZM136.275 208.615C136.014 208.615 135.753 208.615 135.579 208.615C135.406 208.615 135.232 208.702 135.058 208.702C134.537 208.789 134.102 209.136 133.841 209.571C133.581 210.092 133.494 210.614 133.581 211.222C133.668 211.656 133.841 212.004 134.102 212.352C134.363 212.699 134.71 212.873 135.058 213.047C135.406 213.134 135.84 213.134 136.275 213.047C136.535 212.96 136.883 212.873 137.231 212.699L136.275 208.615Z" fill="#0D0D0D"/>
<path d="M128.105 214.698L127.584 210.614L125.325 210.874C124.716 210.961 124.369 211.048 124.195 211.309C123.934 211.57 123.847 212.004 123.934 212.612H123.673L123.239 209.049H123.5C123.587 209.571 123.76 209.831 123.847 210.005C123.934 210.179 124.108 210.266 124.369 210.353C124.629 210.44 124.89 210.44 125.325 210.353L127.584 210.092L127.15 206.703C127.063 206.269 127.063 206.008 126.976 205.921C126.889 205.834 126.802 205.747 126.715 205.747C126.628 205.66 126.454 205.66 126.107 205.747L124.369 205.921C123.76 206.008 123.413 206.095 123.152 206.182C122.891 206.269 122.631 206.442 122.457 206.79C122.196 207.138 121.935 207.659 121.675 208.354H121.414L122.022 205.66L129.93 204.704V204.965H129.583C129.322 204.965 129.148 205.052 128.888 205.226C128.714 205.313 128.627 205.486 128.627 205.66C128.627 205.834 128.627 206.182 128.627 206.703L129.409 213.394C129.496 214.09 129.583 214.437 129.757 214.611C129.93 214.785 130.278 214.872 130.712 214.785H131.06V215.046L123.152 216.001L122.804 213.742H123.065C123.239 214.263 123.413 214.611 123.587 214.785C123.76 214.959 123.934 215.132 124.195 215.219C124.369 215.306 124.803 215.306 125.238 215.219L128.105 214.698Z" fill="#0D0D0D"/>
<path d="M110.465 205.834L113.246 205.747L116.809 210.527C117.069 210.527 117.243 210.527 117.417 210.527C117.504 210.527 117.591 210.527 117.591 210.527C117.591 210.527 117.764 210.527 117.851 210.527L117.764 207.485C117.764 206.79 117.678 206.442 117.504 206.269C117.33 206.008 116.982 205.921 116.635 205.921H116.2V205.66L120.632 205.573V205.834H120.285C119.85 205.834 119.502 206.008 119.329 206.269C119.242 206.442 119.155 206.79 119.155 207.398L119.242 214.09C119.242 214.785 119.329 215.132 119.502 215.306C119.676 215.567 120.024 215.654 120.371 215.654H120.719V215.915L116.982 216.001C115.853 216.001 115.071 215.915 114.549 215.828C114.028 215.654 113.593 215.393 113.246 214.959C112.898 214.524 112.724 214.003 112.637 213.394C112.637 212.786 112.811 212.178 113.246 211.743C113.68 211.309 114.288 210.961 115.157 210.701L112.985 207.746C112.464 207.051 112.029 206.616 111.681 206.442C111.334 206.182 110.899 206.095 110.291 206.008L110.465 205.834ZM117.938 211.048C117.851 211.048 117.764 211.048 117.678 211.048C117.591 211.048 117.591 211.048 117.504 211.048C116.548 211.048 115.766 211.309 115.244 211.743C114.723 212.178 114.549 212.699 114.549 213.394C114.549 214.003 114.81 214.524 115.157 214.959C115.592 215.393 116.113 215.567 116.809 215.567C117.069 215.567 117.504 215.48 118.025 215.393L117.938 211.048Z" fill="#0D0D0D"/>
<path d="M98.9941 215.219L99.4286 211.656H99.6893C99.6893 212.351 99.7762 212.873 99.95 213.307C100.124 213.742 100.471 214.089 100.819 214.437C101.254 214.698 101.688 214.872 102.123 214.958C102.644 215.045 103.078 214.958 103.513 214.611C103.861 214.35 104.121 214.003 104.208 213.568C104.208 213.22 104.208 212.96 103.947 212.699C103.687 212.265 102.992 211.656 101.862 210.874C100.993 210.266 100.385 209.744 100.037 209.484C99.6893 209.136 99.5155 208.789 99.3417 208.441C99.1679 208.093 99.1679 207.659 99.1679 207.224C99.2548 206.442 99.6893 205.834 100.298 205.313C100.906 204.791 101.775 204.617 102.731 204.791C102.992 204.791 103.339 204.878 103.6 204.965C103.774 205.052 104.034 205.139 104.556 205.399C104.99 205.66 105.338 205.747 105.425 205.747C105.512 205.747 105.685 205.747 105.772 205.66C105.859 205.573 105.946 205.486 106.033 205.226H106.294L105.859 208.789H105.599C105.599 208.006 105.425 207.485 105.251 207.051C105.077 206.616 104.816 206.268 104.382 206.008C103.947 205.747 103.426 205.486 102.905 205.486C102.296 205.399 101.775 205.486 101.34 205.834C100.906 206.095 100.732 206.529 100.645 206.964C100.645 207.224 100.645 207.485 100.732 207.746C100.819 208.006 100.993 208.267 101.254 208.528C101.427 208.702 101.949 209.136 102.731 209.658C103.513 210.266 104.121 210.7 104.469 211.048C104.816 211.396 105.077 211.743 105.164 212.091C105.251 212.438 105.338 212.873 105.338 213.307C105.251 214.003 104.903 214.611 104.208 215.132C103.6 215.567 102.818 215.741 101.949 215.654C101.427 215.567 100.819 215.393 100.298 215.045C100.037 214.872 99.8631 214.785 99.6893 214.785C99.5155 214.785 99.4286 214.785 99.3417 214.872C99.2548 214.958 99.1679 215.132 99.081 215.306L98.9941 215.219Z" fill="#0D0D0D"/>
<path d="M93.8674 213.394L94.7364 209.397L92.477 208.876C91.8687 208.789 91.5211 208.789 91.2604 208.876C90.9128 209.049 90.7389 209.397 90.5651 210.005L90.3044 209.918L91.0866 206.442L91.3473 206.529C91.3473 207.051 91.3473 207.398 91.3473 207.485C91.4342 207.659 91.5211 207.833 91.6949 208.007C91.8687 208.18 92.2163 208.267 92.5639 208.354L94.8233 208.876L95.6054 205.573C95.6923 205.139 95.7792 204.878 95.6923 204.704C95.6923 204.617 95.6054 204.53 95.5185 204.444C95.4316 204.357 95.2578 204.27 94.9971 204.27L93.2591 203.922C92.6508 203.835 92.3032 203.748 91.9556 203.748C91.6949 203.748 91.4342 203.835 91.0866 204.009C90.739 204.27 90.3044 204.617 89.8699 205.226L89.6092 205.139L91.0866 202.792L98.9076 204.53L98.8207 204.791L98.4731 204.704C98.2124 204.617 98.0386 204.617 97.7779 204.704C97.6041 204.791 97.4303 204.878 97.3434 204.965C97.2565 205.139 97.1696 205.399 96.9958 205.921L95.5185 212.525C95.3447 213.134 95.3447 213.568 95.4316 213.742C95.6054 214.003 95.8661 214.176 96.3006 214.263L96.6482 214.35L96.5613 214.611L88.7402 212.873L89.0878 210.614L89.3485 210.7C89.3485 211.222 89.3485 211.656 89.4354 211.917C89.5223 212.178 89.6961 212.352 89.8699 212.525C90.0437 212.612 90.3913 212.786 90.9128 212.873L93.8674 213.394Z" fill="#0D0D0D"/>
<path d="M81.3536 210.787C80.0501 210.353 79.1811 209.484 78.5728 208.18C77.9645 206.877 77.8776 205.486 78.399 204.096C78.9204 202.619 79.7894 201.576 81.0929 200.881C82.3964 200.185 83.7 200.099 85.0035 200.62C86.3939 201.054 87.3498 201.923 87.8712 203.227C88.4795 204.531 88.4795 205.921 87.9581 207.398C87.4367 208.962 86.4808 210.005 85.0904 210.7C83.9607 211.222 82.6571 211.222 81.3536 210.787ZM81.7012 210.353C82.5702 210.614 83.3523 210.614 84.1345 210.092C85.0904 209.484 85.7856 208.441 86.307 206.877C86.8284 205.313 86.9153 203.922 86.5677 202.792C86.307 201.923 85.6987 201.402 84.8297 201.054C83.8737 200.707 83.0047 200.794 82.2226 201.315C81.3536 201.837 80.6584 202.879 80.137 204.444C79.5287 206.095 79.4418 207.485 79.8763 208.528C80.137 209.397 80.7453 210.005 81.7012 210.353Z" fill="#0D0D0D"/>
<path d="M68.9262 204.965L68.8393 205.226L65.5371 203.662L65.624 203.401L65.9716 203.575C66.3192 203.748 66.6668 203.748 67.0144 203.488C67.1882 203.401 67.362 203.053 67.6227 202.532L69.4476 198.708C69.8821 197.752 70.3166 197.057 70.7511 196.709C71.1857 196.362 71.794 196.014 72.4892 195.927C73.1844 195.84 74.0534 196.014 75.0093 196.449C76.0521 196.97 76.7473 197.492 77.0949 198.1C77.4425 198.708 77.6163 199.403 77.5294 200.099C77.4425 200.62 77.1818 201.402 76.6604 202.532L74.9224 206.182C74.6617 206.79 74.5748 207.138 74.5748 207.398C74.6617 207.659 74.8355 207.833 75.1831 208.007L75.5307 208.18L75.4438 208.441L71.4463 206.529L71.5333 206.269L71.8809 206.442C72.2285 206.616 72.5761 206.616 72.9237 206.442C73.0975 206.355 73.3582 206.008 73.6189 205.486L75.6176 201.402C75.7914 201.055 75.9652 200.62 76.139 200.099C76.3128 199.577 76.3128 199.143 76.3128 198.795C76.3128 198.447 76.139 198.1 75.8783 197.752C75.6176 197.405 75.27 197.144 74.8355 196.883C74.2272 196.623 73.6189 196.449 73.0106 196.449C72.4023 196.449 71.8809 196.623 71.5333 196.97C71.1857 197.318 70.7511 197.926 70.2297 198.969L68.4048 202.706C68.1441 203.314 67.9703 203.662 68.0572 203.922C68.1441 204.183 68.3179 204.444 68.6655 204.617L68.9262 204.965Z" fill="#0D0D0D"/>
<path d="M61.1044 192.104L60.9306 191.93L63.19 190.018L69.9683 194.276L69.7945 194.537L69.4469 194.363C69.0993 194.102 68.7517 194.102 68.4041 194.189C68.2303 194.276 67.9696 194.537 67.7089 195.058L64.1459 200.707C63.7983 201.228 63.6245 201.663 63.7114 201.837C63.7983 202.097 63.9721 202.358 64.3197 202.619L64.6673 202.792L64.4935 203.053L60.4961 200.533L60.6699 200.272C61.1044 200.533 61.452 200.707 61.7127 200.794C61.9734 200.794 62.1472 200.794 62.321 200.707C62.4948 200.62 62.7555 200.272 63.0162 199.751L66.4922 194.276C66.7529 193.929 66.8398 193.668 66.8398 193.494C66.8398 193.407 66.8398 193.233 66.7529 193.146C66.666 193.06 66.3184 192.799 65.797 192.451L65.1887 192.017C64.4935 191.582 63.9721 191.322 63.7114 191.235C63.4507 191.148 63.0162 191.148 62.6686 191.322C62.1472 191.408 61.6258 191.669 61.1044 192.104Z" fill="#0D0D0D"/>
<path d="M42.248 186.281L42.4218 186.108C42.5957 186.281 42.8564 186.368 43.0302 186.455C43.204 186.542 43.4647 186.455 43.7254 186.368C43.8992 186.281 44.3337 186.108 44.942 185.76L52.5892 181.415L52.8499 181.589L50.2429 188.106L56.326 184.63L56.4998 184.804L53.1975 193.32C52.9368 193.929 52.8499 194.363 52.763 194.45C52.6761 194.624 52.763 194.885 52.763 195.058C52.8499 195.232 53.0237 195.406 53.1975 195.667L53.0237 195.84L50.156 193.32L50.3298 193.147L50.5036 193.233C50.6774 193.407 50.9381 193.494 51.1119 193.494C51.2857 193.494 51.4595 193.407 51.5464 193.32C51.6333 193.147 51.8071 192.799 52.0678 192.191L54.3272 186.455L49.8084 189.062L49.4608 189.931L49.2001 190.626C49.1132 190.887 49.0263 191.148 49.0263 191.408C49.0263 191.495 49.0263 191.669 49.0263 191.756C49.0263 191.93 49.1132 192.017 49.2001 192.191C49.287 192.278 49.3739 192.364 49.5477 192.538L49.3739 192.712L46.3324 190.018L46.5062 189.844L46.68 190.018C46.8538 190.192 47.1145 190.279 47.2883 190.279C47.4621 190.279 47.6359 190.192 47.7228 190.018C47.8966 189.844 48.0704 189.41 48.3311 188.801L50.5036 183.24L45.2896 186.281C44.6813 186.629 44.3337 186.89 44.1599 187.063C44.073 187.15 44.073 187.237 43.9861 187.411C43.8992 187.585 43.9861 187.672 44.073 187.759C44.1599 187.932 44.3337 188.106 44.5944 188.367L44.4206 188.541L42.248 186.281Z" fill="#0D0D0D"/>
<path d="M43.2903 176.896L45.9843 179.851L47.6354 179.242C48.0699 179.069 48.3306 178.982 48.5044 178.808C48.5913 178.721 48.6782 178.547 48.6782 178.373C48.6782 178.2 48.5044 177.852 48.1568 177.504L48.3306 177.331L50.5031 179.764L50.3293 179.938C49.9817 179.677 49.721 179.503 49.5472 179.503C49.1996 179.503 48.5913 179.59 47.8961 179.851L39.1191 182.892L38.9453 182.718L42.9427 174.289C43.2903 173.594 43.3772 173.072 43.3772 172.812C43.3772 172.464 43.2034 172.203 42.9427 171.856L43.1165 171.682L45.8974 174.724L45.7236 174.897C45.4629 174.637 45.2022 174.463 45.0284 174.376C44.8546 174.376 44.6808 174.376 44.5939 174.463C44.4201 174.637 44.2463 174.897 43.9856 175.419L43.2903 176.896ZM42.9427 177.417L41.0309 181.502L45.376 180.024L42.9427 177.417Z" fill="#0D0D0D"/>
<path d="M35.8178 166.207L35.7309 165.947L38.5117 164.991L43.2043 171.508L42.9436 171.682L42.6829 171.334C42.4222 170.987 42.1615 170.813 41.8139 170.813C41.6401 170.813 41.2925 170.987 40.7711 171.334L35.3833 175.245C34.8619 175.593 34.6012 175.94 34.5143 176.114C34.4274 176.375 34.5143 176.722 34.775 177.07L35.0357 177.418L34.775 177.591L31.9941 173.768L32.2548 173.594C32.6024 174.028 32.8631 174.289 33.0369 174.463C33.2108 174.55 33.4715 174.637 33.6453 174.637C33.8191 174.637 34.1667 174.376 34.6881 174.028L39.989 170.205C40.3366 169.944 40.5104 169.77 40.5973 169.596C40.6842 169.51 40.6842 169.336 40.5973 169.249C40.5973 169.075 40.3366 168.814 39.989 168.206L39.5545 167.598C39.12 166.989 38.6855 166.555 38.4248 166.381C38.1641 166.207 37.8165 166.034 37.382 166.034C37.0344 165.947 36.4261 166.034 35.8178 166.207Z" fill="#0D0D0D"/>
<path d="M31.0374 158.039L30.9505 157.778L33.8182 157.17L37.8156 164.122L37.5549 164.296L37.3811 163.948C37.1204 163.6 36.8597 163.34 36.5121 163.34C36.3383 163.34 35.9907 163.513 35.4693 163.774L29.647 167.163C29.1256 167.511 28.778 167.772 28.6911 167.945C28.6042 168.206 28.6911 168.554 28.8649 168.901L29.0387 169.249L28.778 169.423L26.4316 165.338L26.6923 165.165C26.953 165.686 27.2137 165.947 27.3875 166.12C27.5613 166.294 27.8221 166.294 27.9959 166.294C28.1697 166.294 28.5173 166.12 29.0387 165.773L34.6872 162.471C35.0348 162.297 35.2955 162.036 35.3824 161.949C35.4693 161.862 35.4693 161.689 35.4693 161.602C35.4693 161.515 35.2955 161.08 34.9479 160.559L34.6003 159.864C34.1658 159.168 33.9051 158.734 33.6444 158.473C33.3837 158.212 33.0361 158.126 32.6885 158.039C32.254 157.952 31.7326 157.952 31.0374 158.039Z" fill="#0D0D0D"/>
<path d="M27.6477 155.518L30.4285 154.302C31.0368 154.041 31.3844 153.78 31.4713 153.607C31.5582 153.346 31.5582 152.998 31.3844 152.651L31.2106 152.303L31.4713 152.216L33.2962 156.214L33.0355 156.301L32.8617 155.953C32.6879 155.518 32.4272 155.345 32.0796 155.258C31.9058 155.258 31.5582 155.345 31.0368 155.605L24.9537 158.386C24.3454 158.647 23.9978 158.908 23.9109 159.081C23.824 159.342 23.824 159.69 23.9978 160.037L24.1716 160.385L23.9109 160.472L22.3467 156.996C21.9991 156.127 21.7384 155.432 21.6515 154.91C21.5646 154.389 21.7384 153.78 21.9991 153.259C22.2598 152.738 22.6943 152.303 23.2157 152.129C23.9978 151.782 24.693 151.782 25.4751 152.042C26.2572 152.303 26.7787 152.911 27.2132 153.867C27.3001 154.128 27.387 154.389 27.4739 154.649C27.4739 154.91 27.5608 155.258 27.6477 155.518ZM27.2132 155.779C27.1263 155.518 27.0394 155.258 27.0394 155.084C26.9525 154.91 26.9525 154.736 26.8656 154.563C26.6048 154.041 26.2572 153.78 25.7358 153.607C25.2144 153.433 24.6061 153.433 24.0847 153.78C23.6502 153.954 23.3026 154.215 23.0419 154.563C22.7812 154.91 22.6074 155.258 22.6074 155.605C22.6074 155.953 22.6074 156.387 22.7812 156.735C22.8681 156.996 23.0419 157.256 23.3026 157.604L27.2132 155.779Z" fill="#0D0D0D"/>
<path d="M24.7803 144.656L26.0838 148.48L27.8218 148.567C28.2563 148.567 28.6039 148.567 28.7777 148.48C28.9515 148.393 29.0384 148.306 29.1253 148.132C29.2122 147.958 29.1253 147.611 29.0384 147.176L29.2991 147.089L30.4288 150.131L30.1681 150.218C29.9943 149.87 29.7336 149.609 29.6467 149.522C29.2991 149.349 28.7777 149.262 27.9956 149.175L18.6103 148.653L18.5234 148.393L25.4755 142.136C25.9969 141.614 26.3445 141.267 26.5183 140.919C26.6052 140.659 26.6052 140.311 26.5183 139.876L26.779 139.79L28.1694 143.613L27.9087 143.7C27.7349 143.352 27.5611 143.092 27.4742 143.005C27.3004 142.918 27.1266 142.918 27.0397 142.918C26.8659 143.005 26.5183 143.179 26.1707 143.526L24.7803 144.656ZM24.2589 145.09L20.8698 148.132L25.3886 148.48L24.2589 145.09Z" fill="#0D0D0D"/>
<path d="M21.3917 137.965L24.3463 137.269C24.9546 137.096 25.3891 136.922 25.476 136.748C25.6498 136.487 25.6498 136.227 25.5629 135.792L25.476 135.444L25.7367 135.358L26.7795 139.703L26.5188 139.789L26.4319 139.442C26.345 139.007 26.0843 138.747 25.8236 138.66C25.6498 138.573 25.3022 138.66 24.6939 138.747L18.1764 140.311C17.5681 140.485 17.1336 140.658 17.0467 140.832C16.8729 141.093 16.8729 141.354 16.9598 141.788L17.0467 142.136L16.786 142.223L15.917 138.573C15.7432 137.704 15.6562 136.922 15.6562 136.4C15.7432 135.879 15.917 135.358 16.2646 134.836C16.6122 134.402 17.1336 134.054 17.7419 133.967C18.524 133.793 19.3061 133.88 19.9144 134.315C20.5227 134.749 20.9572 135.444 21.2179 136.4C21.3048 136.661 21.3048 136.922 21.3917 137.182C21.4786 137.443 21.3917 137.704 21.3917 137.965ZM20.9572 138.138C20.9572 137.878 20.9572 137.617 20.8703 137.443C20.8703 137.269 20.7834 137.096 20.7834 136.922C20.6965 136.4 20.3489 136.053 19.8275 135.705C19.3061 135.358 18.7847 135.358 18.1764 135.531C17.7419 135.618 17.3943 135.792 17.0467 136.053C16.6991 136.313 16.5253 136.661 16.3515 137.009C16.2646 137.356 16.2646 137.791 16.3515 138.225C16.4384 138.486 16.5253 138.834 16.6991 139.181L20.9572 138.138Z" fill="#0D0D0D"/>
<path d="M14.7 130.057L18.7843 129.535L18.4367 127.276C18.3498 126.668 18.176 126.32 18.0022 126.146C17.7415 125.885 17.307 125.799 16.6987 125.885V125.625L20.2616 125.103V125.364C19.7402 125.538 19.4795 125.625 19.3057 125.712C19.1319 125.799 19.045 125.972 18.9581 126.233C18.8712 126.494 18.8712 126.754 18.9581 127.189L19.3057 129.448L22.6949 129.014C23.1294 128.927 23.3901 128.927 23.477 128.84C23.5639 128.753 23.6508 128.666 23.6508 128.579C23.7377 128.492 23.7377 128.232 23.6508 127.971L23.3901 126.233C23.3032 125.625 23.2163 125.277 23.1294 125.016C23.0425 124.756 22.7818 124.495 22.5211 124.321C22.1735 124.061 21.6521 123.8 20.9568 123.539V123.278L23.6508 123.8L24.7805 131.708H24.5198L24.4329 131.36C24.4329 131.1 24.346 130.926 24.1722 130.665C24.0853 130.491 23.9115 130.404 23.7377 130.404C23.5639 130.404 23.2163 130.404 22.6949 130.491L16.0035 131.447C15.3952 131.534 14.9607 131.621 14.7869 131.795C14.6131 131.969 14.5262 132.316 14.6131 132.751L14.7869 133.011H14.5262L13.3965 125.103L15.6559 124.669V124.93C15.1345 125.103 14.7869 125.277 14.6131 125.451C14.4393 125.625 14.2655 125.799 14.2655 126.059C14.1786 126.233 14.2655 126.668 14.2655 127.102L14.7 130.057Z" fill="#0D0D0D"/>
<path d="M23.2162 112.329L23.3031 115.11L18.6105 118.76C18.6105 119.02 18.6105 119.194 18.6105 119.368C18.6105 119.455 18.6105 119.542 18.6105 119.542C18.6105 119.542 18.6105 119.715 18.6105 119.802L21.652 119.715C22.2603 119.715 22.6948 119.629 22.8686 119.455C23.0424 119.281 23.2162 118.933 23.2162 118.586V118.151H23.4769L23.6507 122.583H23.39V122.236C23.39 121.801 23.2162 121.453 22.9555 121.28C22.7817 121.193 22.4341 121.106 21.8258 121.193L15.1344 121.453C14.5261 121.453 14.0916 121.54 13.9178 121.714C13.744 121.888 13.5702 122.236 13.5702 122.583V122.931H13.3095L13.0488 119.194C13.0488 118.064 13.0488 117.282 13.2226 116.761C13.3964 116.239 13.6571 115.805 14.0916 115.37C14.5261 114.936 15.0475 114.762 15.5689 114.762C16.1773 114.762 16.7856 114.936 17.2201 115.37C17.7415 115.805 18.0891 116.413 18.2629 117.282L21.1306 115.023C21.8258 114.501 22.2603 114.067 22.4341 113.719C22.6079 113.372 22.7817 112.937 22.7817 112.329H23.2162ZM18.0891 119.889C18.0891 119.802 18.0891 119.715 18.0891 119.629C18.0891 119.542 18.0891 119.542 18.0891 119.455C18.0891 118.499 17.8284 117.717 17.3939 117.282C16.9594 116.761 16.438 116.587 15.7427 116.587C15.1344 116.587 14.613 116.848 14.1785 117.282C13.8309 117.717 13.5702 118.238 13.6571 118.933C13.6571 119.194 13.744 119.629 13.8309 120.15L18.0891 119.889Z" fill="#0D0D0D"/>
<path d="M13.5693 100.945L17.1323 101.292V101.553C16.4371 101.553 15.9156 101.64 15.4811 101.901C15.0466 102.075 14.699 102.422 14.4383 102.77C14.1776 103.204 14.0038 103.639 13.9169 104.073C13.83 104.595 14.0038 105.029 14.2645 105.464C14.5252 105.811 14.8728 106.072 15.3073 106.072C15.6549 106.072 15.9156 105.985 16.1764 105.811C16.6109 105.551 17.1323 104.855 17.9144 103.726C18.5227 102.857 18.9572 102.161 19.3048 101.901C19.6524 101.553 20 101.379 20.3476 101.206C20.7821 101.032 21.1297 101.032 21.5642 101.032C22.3463 101.119 22.9546 101.466 23.476 102.161C23.9974 102.857 24.1712 103.639 24.0843 104.595C24.0843 104.855 23.9974 105.203 23.9105 105.464C23.9105 105.637 23.7367 105.898 23.5629 106.42C23.3891 106.854 23.2153 107.202 23.2153 107.375C23.2153 107.462 23.2153 107.636 23.3022 107.723C23.3891 107.81 23.5629 107.897 23.7367 107.897V108.158L20.1738 107.81V107.549C20.9559 107.462 21.4773 107.375 21.9118 107.202C22.2594 107.028 22.607 106.68 22.9546 106.246C23.2153 105.811 23.3891 105.29 23.476 104.768C23.5629 104.16 23.3891 103.639 23.1284 103.204C22.8677 102.77 22.4332 102.596 21.9987 102.509C21.738 102.509 21.4773 102.509 21.2166 102.596C20.9559 102.683 20.6952 102.857 20.4345 103.204C20.2607 103.378 19.9131 103.899 19.3048 104.682C18.6965 105.551 18.262 106.072 17.9144 106.42C17.5668 106.767 17.2192 107.028 16.8716 107.202C16.524 107.375 16.0895 107.375 15.6549 107.375C14.8728 107.289 14.3514 106.941 13.83 106.333C13.3955 105.724 13.1348 104.942 13.2217 104.073C13.3086 103.552 13.4824 102.944 13.83 102.335C14.0038 102.075 14.0907 101.901 14.0907 101.727C14.0907 101.553 14.0907 101.466 14.0038 101.379C13.9169 101.292 13.7431 101.206 13.5693 101.119V100.945Z" fill="#0D0D0D"/>
<path d="M15.2215 95.8178L19.219 96.5999L19.6535 94.3405C19.7404 93.7322 19.7404 93.3846 19.6535 93.1239C19.4797 92.7763 19.1321 92.6025 18.5238 92.4287L18.6107 92.168L22.1736 92.8632L22.0867 93.1239C21.5653 93.1239 21.2177 93.1239 21.1308 93.1239C20.957 93.2108 20.7832 93.2977 20.6094 93.4715C20.4356 93.6453 20.3487 93.9929 20.2618 94.4274L19.8273 96.6868L23.2164 97.382C23.6509 97.4689 23.9116 97.4689 24.0854 97.4689C24.1723 97.4689 24.2592 97.382 24.3461 97.2951C24.433 97.2082 24.5199 97.0344 24.5199 96.7737L24.8675 95.0357C24.9544 94.4274 25.0413 94.0798 25.0413 93.7322C25.0413 93.3846 24.8675 93.2108 24.6937 92.8632C24.433 92.5156 24.0854 92.0811 23.4771 91.6466L23.564 91.3859L25.9103 92.7763L24.3461 100.597L24.0854 100.51L24.1723 100.163C24.2592 99.9021 24.1723 99.6414 24.1723 99.4676C24.0854 99.2938 23.9985 99.12 23.9116 99.0331C23.7378 98.9462 23.4771 98.8593 22.9557 98.7724L16.3512 97.4689C15.7429 97.2951 15.3084 97.2951 15.1346 97.382C14.8739 97.5558 14.7001 97.8165 14.6132 98.251L14.5263 98.5986L14.2656 98.5117L15.8298 90.6907L18.0893 91.0383L18.0024 91.299C17.4809 91.299 17.0464 91.299 16.8726 91.3859C16.6119 91.4728 16.4381 91.6466 16.2643 91.8204C16.0036 92.168 15.9167 92.5156 15.8298 93.037L15.2215 95.8178Z" fill="#0D0D0D"/>
<path d="M17.5669 83.304C18.0014 82.0005 18.7835 81.0446 20.087 80.4363C21.3905 79.828 22.694 79.7411 24.1713 80.1756C25.6487 80.697 26.7784 81.566 27.4736 82.7826C28.1688 84.0862 28.2557 85.3897 27.8212 86.6932C27.3867 88.0836 26.5177 89.0395 25.3011 89.6478C24.0844 90.2561 22.6071 90.343 21.1298 89.8216C19.5656 89.3002 18.4359 88.3443 17.8276 86.9539C17.2193 85.8242 17.2193 84.6076 17.5669 83.304ZM18.0883 83.5647C17.8276 84.4338 17.9145 85.3028 18.349 85.998C18.9573 86.9539 20.0001 87.6491 21.5643 88.1705C23.2154 88.6919 24.519 88.7788 25.6487 88.3443C26.5177 87.9967 27.0391 87.4753 27.2998 86.6063C27.5605 85.6504 27.4736 84.7814 26.9522 83.9993C26.4308 83.1302 25.388 82.5219 23.8237 82.0005C22.1726 81.4791 20.7822 81.3922 19.7394 81.8267C18.9573 82.0005 18.349 82.6957 18.0883 83.5647Z" fill="#0D0D0D"/>
<path d="M23.2153 70.7035L22.9546 70.6166L24.5188 67.3143L24.7795 67.4012L24.6057 67.7488C24.4319 68.0964 24.4319 68.444 24.6926 68.7916C24.7795 68.9654 25.1271 69.1392 25.6485 69.3999L29.4721 71.138C30.4281 71.5725 31.1233 72.007 31.5578 72.4415C31.9923 72.876 32.253 73.3974 32.4268 74.1795C32.6006 74.9616 32.4268 75.7437 31.9923 76.6996C31.5578 77.7424 30.9495 78.4376 30.3412 78.7852C29.7329 79.1328 29.1245 79.3066 28.3424 79.2197C27.821 79.2197 27.0389 78.8721 25.9092 78.3507L22.2594 76.6996C21.6511 76.4389 21.3035 76.352 21.0428 76.4389C20.7821 76.5258 20.6083 76.6996 20.4345 77.0472L20.0869 77.3948L19.8262 77.3079L21.6511 73.2236L21.9118 73.3105L21.738 73.6581C21.5642 74.0057 21.5642 74.3533 21.738 74.7009C21.8249 74.8747 22.1725 75.1354 22.6939 75.3092L26.7782 77.221C27.1258 77.3948 27.5603 77.5686 28.0817 77.6555C28.6031 77.8293 29.0376 77.8293 29.3852 77.8293C29.7328 77.7424 30.0805 77.6555 30.4281 77.3948C30.7757 77.1341 31.0364 76.7865 31.2102 76.2651C31.4709 75.6568 31.6447 75.0485 31.5578 74.4402C31.4709 73.8319 31.2971 73.3105 30.9495 72.9629C30.6019 72.6153 29.9067 72.1808 28.9507 71.7463L25.1271 70.0083C24.5188 69.7475 24.1712 69.6606 23.9105 69.6606C23.6498 69.7475 23.3891 70.0083 23.2153 70.3559V70.7035Z" fill="#0D0D0D"/>
<path d="M35.9046 62.6216L36.0784 62.4478L38.0771 64.6203L33.9058 71.4855L33.6451 71.3117L33.8189 70.9641C34.0796 70.6165 34.0796 70.2689 33.9058 69.9213C33.8189 69.7475 33.5582 69.4868 33.0368 69.2261L27.3014 65.75C26.78 65.4024 26.3455 65.2286 26.1717 65.3155C25.911 65.4024 25.6503 65.5762 25.3896 65.9238L25.2158 66.2715L24.9551 66.0976L27.3883 62.1002L27.649 62.274C27.3883 62.7085 27.2145 63.143 27.2145 63.3168C27.2145 63.5775 27.2145 63.7513 27.3014 63.9251C27.3883 64.0989 27.7359 64.2727 28.2573 64.6203L33.8189 67.9226C34.1666 68.0964 34.4273 68.2702 34.6011 68.2702C34.688 68.2702 34.8618 68.2702 34.9487 68.1833C35.0356 68.0964 35.2963 67.7488 35.6439 67.2274L35.9915 66.6191C36.426 65.9238 36.5998 65.4024 36.6867 65.0548C36.7736 64.7072 36.6867 64.3596 36.5998 64.012C36.5998 63.6644 36.3391 63.143 35.9046 62.6216Z" fill="#0D0D0D"/>
<path d="M41.3785 43.6774L41.5523 43.8512C41.3785 44.025 41.2916 44.2857 41.2047 44.4595C41.2047 44.6333 41.2047 44.894 41.2916 45.1547C41.3785 45.3285 41.5523 45.763 41.9868 46.3713L46.5056 53.9316L46.3318 54.1924L39.7273 51.7591L43.2903 57.8422L43.1165 58.016L34.6002 54.8007C33.9919 54.54 33.5574 54.4531 33.4705 54.3662C33.2967 54.2793 33.036 54.3662 32.8622 54.3662C32.6884 54.4531 32.5146 54.6269 32.2539 54.8007L32.0801 54.6269L34.5133 51.6722L34.6871 51.846L34.6002 52.0198C34.4264 52.1936 34.3395 52.4543 34.3395 52.6281C34.3395 52.8019 34.4264 52.9757 34.5133 53.0626C34.6871 53.1495 35.0347 53.3233 35.643 53.584L41.3785 55.7566L38.6845 51.2377L37.8155 50.8901L37.1203 50.6294C36.8596 50.5425 36.5989 50.4556 36.3382 50.4556C36.2513 50.4556 36.0775 50.4556 35.9906 50.4556C35.8168 50.4556 35.7299 50.5425 35.5561 50.6294C35.4692 50.7163 35.3823 50.8032 35.2085 50.977L35.0347 50.8032L37.6417 47.6748L37.8155 47.8486L37.6417 48.0224C37.4679 48.2831 37.381 48.4569 37.381 48.6307C37.381 48.8045 37.4679 48.9783 37.6417 49.0652C37.8155 49.239 38.25 49.4128 38.9452 49.6735L44.5069 51.7591L41.3785 46.5451C41.0308 45.9368 40.7701 45.5892 40.5963 45.4154C40.5094 45.3285 40.4225 45.3285 40.2487 45.3285C40.1618 45.3285 39.988 45.3285 39.9011 45.4154C39.7273 45.5023 39.5535 45.6761 39.2928 45.9368L39.119 45.763L41.3785 43.6774Z" fill="#0D0D0D"/>
<path d="M50.7637 44.4594L47.8091 47.2403L48.4174 48.8914C48.5912 49.3259 48.6781 49.5866 48.8519 49.7604C48.9388 49.8473 49.1126 49.9342 49.2864 49.9342C49.4602 49.9342 49.8078 49.7604 50.1554 49.4128L50.4161 49.5866L48.0698 51.846L47.8091 51.5853C48.0698 51.2377 48.2436 50.977 48.2436 50.8032C48.2436 50.4556 48.1567 49.8473 47.8091 49.1521L44.5938 40.462L44.7676 40.2882L53.2838 44.1118C53.979 44.4594 54.5004 44.5463 54.7611 44.5463C55.1087 44.5463 55.3694 44.3725 55.717 44.1118L55.8908 44.2856L53.0231 47.0665L52.8493 46.8927C53.11 46.632 53.2838 46.3713 53.2838 46.1975C53.2838 46.0237 53.2838 45.8499 53.11 45.763C52.9362 45.5891 52.6755 45.4153 52.1541 45.2415L50.7637 44.4594ZM50.2423 44.1987L46.0711 42.3738L47.6353 46.632L50.2423 44.1987Z" fill="#0D0D0D"/>
<path d="M61.2785 36.8121L61.5392 36.7252L62.4951 39.506L56.0645 44.3724L55.8907 44.1117L56.2383 43.851C56.5859 43.5903 56.7597 43.2427 56.7597 42.982C56.7597 42.8082 56.5859 42.4606 56.2383 42.0261L52.1539 36.5514C51.8063 36.03 51.4587 35.7693 51.2849 35.6824C51.0242 35.5955 50.6766 35.6824 50.4159 35.9431L50.0683 36.2038L49.8945 35.9431L53.6313 33.1622L53.8051 33.4229C53.3706 33.7705 53.1099 34.0312 52.9361 34.205C52.8492 34.4657 52.7623 34.6395 52.8492 34.8133C52.8492 34.9871 53.1099 35.3347 53.4575 35.8562L57.368 41.0702C57.6287 41.4178 57.8025 41.5916 57.9763 41.6785C58.0632 41.7654 58.237 41.7654 58.3239 41.6785C58.4977 41.6785 58.7584 41.4178 59.2798 40.9833L59.8881 40.5488C60.4964 40.0274 60.9309 39.6798 61.1047 39.4191C61.2785 39.1584 61.3654 38.8108 61.4523 38.3763C61.5392 38.0287 61.4523 37.5073 61.2785 36.8121Z" fill="#0D0D0D"/>
<path d="M69.3596 31.8588L69.6203 31.7719L70.3155 34.6396L63.4503 38.8109L63.2765 38.5502L63.6241 38.3764C63.9717 38.1157 64.2325 37.855 64.2325 37.5074C64.2325 37.3336 64.0587 36.986 63.7979 36.4646L60.3219 30.7291C59.9743 30.2077 59.7136 29.8601 59.5398 29.7732C59.2791 29.6863 58.9315 29.7732 58.5839 29.947L58.2363 30.2077L58.0625 29.947L62.0599 27.5138L62.2337 27.7745C61.7992 28.0352 61.4516 28.2959 61.3647 28.4697C61.1909 28.6435 61.1909 28.9042 61.1909 29.078C61.1909 29.2518 61.3647 29.5994 61.7123 30.1208L65.1015 35.6825C65.3622 36.0301 65.536 36.2908 65.6229 36.3777C65.7098 36.4646 65.8836 36.4646 65.9705 36.4646C66.1443 36.4646 66.4919 36.2908 67.0133 35.9432L67.6216 35.5087C68.3168 35.0742 68.7513 34.7266 68.9251 34.4658C69.0989 34.2051 69.2727 33.8575 69.3596 33.5099C69.4465 33.1623 69.4465 32.554 69.3596 31.8588Z" fill="#0D0D0D"/>
<path d="M71.7941 28.4697L73.0977 31.1636C73.3584 31.7719 73.6191 32.1195 73.7929 32.2064C74.0536 32.2933 74.4012 32.2933 74.7488 32.1195L75.0964 31.9457L75.1833 32.2064L71.1858 34.1182L71.0989 33.8575L71.4465 33.6837C71.881 33.5099 72.0549 33.2492 72.1418 32.9016C72.1418 32.7278 72.0548 32.3802 71.7941 31.8588L68.8395 25.8626C68.5788 25.2543 68.3181 24.9067 68.1443 24.8198C67.8836 24.7329 67.536 24.7329 67.1884 24.9067L66.8408 25.0805L66.7539 24.8198L70.143 23.1687C71.012 22.7342 71.7072 22.5604 72.2287 22.4735C72.7501 22.3866 73.3584 22.4735 73.8798 22.7342C74.4012 22.9949 74.8357 23.4294 75.0964 23.9508C75.444 24.7329 75.5309 25.4281 75.2702 26.2102C75.0095 26.9923 74.4012 27.5137 73.4453 27.9482C73.1846 28.0351 73.0108 28.122 72.6632 28.2959C72.4025 28.2959 72.0548 28.3828 71.7941 28.4697ZM71.5334 28.0351C71.7942 27.9482 72.0548 27.8613 72.2287 27.8613C72.4025 27.8613 72.5763 27.6875 72.7501 27.6875C73.1846 27.4268 73.5322 27.0792 73.706 26.5578C73.8798 26.0364 73.7929 25.4281 73.5322 24.9067C73.3584 24.4722 73.0977 24.2115 72.7501 23.8639C72.4025 23.6032 72.0549 23.4294 71.7072 23.4294C71.3596 23.4294 70.9251 23.5163 70.5775 23.6901C70.3168 23.777 70.0561 23.9508 69.7085 24.2984L71.5334 28.0351Z" fill="#0D0D0D"/>
<path d="M82.5685 25.3413L78.8318 26.7317L78.7449 28.4698C78.7449 28.9043 78.7449 29.2519 78.8318 29.4257C78.9187 29.5995 79.0056 29.6864 79.1794 29.7733C79.3532 29.8602 79.7008 29.7733 80.1353 29.6864L80.2222 29.9471L77.1807 31.0768L77.0938 30.8161C77.4414 30.5554 77.7021 30.3816 77.789 30.2078C77.9628 29.8602 78.0497 29.3388 78.0497 28.4698L78.4842 19.1714H78.7449L85.1755 25.9496C85.6969 26.471 86.1314 26.8186 86.3921 26.9055C86.6528 26.9924 87.0004 26.9924 87.4349 26.9055L87.5218 27.1663L83.6982 28.6436L83.6113 28.3829C83.9589 28.2091 84.2196 28.0353 84.3065 27.8615C84.3934 27.6877 84.3934 27.5139 84.3934 27.427C84.3065 27.2531 84.1327 26.9055 83.6982 26.5579L82.5685 25.3413ZM82.2209 24.8199L79.0925 21.5177L78.8318 26.1234L82.2209 24.8199Z" fill="#0D0D0D"/>
<path d="M89.1742 21.7784L89.9563 24.733C90.1301 25.3413 90.3039 25.7758 90.4777 25.8627C90.7384 26.0365 90.9991 26.0365 91.4336 25.9496L91.7812 25.8627L91.8681 26.1234L87.6099 27.2531L87.523 26.9924L87.8706 26.9055C88.3051 26.8186 88.5658 26.5579 88.6527 26.2972C88.7396 26.1234 88.6528 25.7758 88.479 25.1675L86.8278 18.65C86.654 18.0417 86.4802 17.6072 86.3064 17.5203C86.0457 17.3465 85.785 17.3465 85.3505 17.4334H85.0029L84.916 17.1727L88.6527 16.2168C89.5218 15.956 90.3039 15.8691 90.8253 15.956C91.3467 16.043 91.8681 16.2168 92.3895 16.5644C92.824 16.912 93.1716 17.3465 93.3454 17.9548C93.5192 18.7369 93.4323 19.519 93.0847 20.1273C92.6502 20.8225 91.955 21.257 90.9991 21.5177C90.7384 21.6046 90.4777 21.6046 90.217 21.6915C89.8694 21.7784 89.5218 21.7784 89.1742 21.7784ZM89.0873 21.3439C89.348 21.3439 89.6087 21.3439 89.7825 21.257C89.9563 21.1701 90.1301 21.1701 90.3039 21.1701C90.8253 20.9963 91.1729 20.7356 91.4336 20.2142C91.6943 19.6928 91.7812 19.1714 91.6074 18.5631C91.5205 18.1286 91.2598 17.781 90.9991 17.4334C90.7384 17.0858 90.3908 16.912 90.0432 16.8251C89.6956 16.7382 89.2611 16.7382 88.8265 16.8251C88.5658 16.912 88.3051 16.9989 87.8706 17.2596L89.0873 21.3439Z" fill="#0D0D0D"/>
<path d="M96.9956 15L97.6039 19.0844L99.8634 18.7368C100.472 18.6499 100.819 18.4761 100.993 18.3023C101.254 18.0416 101.341 17.6071 101.254 16.9988L101.514 16.9119L102.123 20.4748L101.862 20.5617C101.688 20.0403 101.601 19.7796 101.514 19.6058C101.428 19.432 101.254 19.3451 100.993 19.2582C100.732 19.1713 100.472 19.1713 100.037 19.2582L97.7777 19.6058L98.2991 22.9949C98.3861 23.4294 98.473 23.6901 98.473 23.777C98.5599 23.8639 98.6468 23.9508 98.7337 23.9508C98.8206 23.9508 99.0813 23.9508 99.342 23.9508L101.08 23.6901C101.688 23.6032 102.036 23.5163 102.297 23.3425C102.557 23.1687 102.731 22.9949 102.992 22.7342C103.252 22.3866 103.513 21.8652 103.687 21.17L103.948 21.0831L103.513 23.777L95.6052 25.0805V24.8198L95.9528 24.7329C96.2135 24.7329 96.3873 24.5591 96.648 24.4722C96.8218 24.3853 96.9087 24.2115 96.9087 24.0377C96.9087 23.8639 96.9087 23.5163 96.8218 22.9949L95.779 16.3905C95.6921 15.7821 95.5183 15.3476 95.4314 15.2607C95.2576 15.0869 94.91 15 94.4755 15.0869L94.1279 15.1738L94.041 14.9131L101.949 13.6965L102.383 15.956L102.123 16.0429C101.949 15.5214 101.775 15.1738 101.601 15C101.428 14.8262 101.254 14.7393 100.993 14.6524C100.819 14.6524 100.385 14.6524 99.9503 14.7393L96.9956 15Z" fill="#0D0D0D"/>
<path d="M114.896 23.0819L112.115 23.2557L108.378 18.6499C108.118 18.6499 107.944 18.6499 107.77 18.7368C107.683 18.7368 107.596 18.7368 107.596 18.7368C107.509 18.7368 107.422 18.7368 107.335 18.7368L107.509 21.7783C107.509 22.3867 107.596 22.8212 107.77 22.995C107.944 23.1688 108.291 23.3426 108.639 23.2557H109.073V23.5164L104.642 23.7771V23.5164H104.989C105.424 23.5164 105.771 23.3426 105.945 23.0819C106.032 22.9081 106.119 22.5605 106.032 21.9522L105.684 15.2608C105.684 14.6525 105.597 14.218 105.424 14.0442C105.25 13.8704 104.902 13.6966 104.555 13.7835H104.207V13.5228L107.944 13.349C109.073 13.2621 109.856 13.349 110.377 13.4359C110.898 13.6097 111.333 13.8704 111.767 14.218C112.115 14.6525 112.376 15.1739 112.376 15.6953C112.376 16.3036 112.202 16.9119 111.854 17.3464C111.507 17.7809 110.811 18.2154 109.942 18.4761L112.202 21.3438C112.723 22.0391 113.158 22.3867 113.505 22.6474C113.853 22.8212 114.374 22.995 114.896 22.995V23.0819ZM107.249 18.2154C107.335 18.2154 107.422 18.2154 107.509 18.2154C107.596 18.2154 107.596 18.2154 107.683 18.2154C108.639 18.1285 109.421 17.8678 109.856 17.4333C110.29 16.9988 110.551 16.3905 110.551 15.7822C110.551 15.1739 110.29 14.6525 109.856 14.218C109.421 13.8704 108.9 13.6966 108.204 13.6966C107.944 13.6966 107.509 13.7835 106.988 13.8704L107.249 18.2154Z" fill="#0D0D0D"/>
<circle cx="114.549" cy="114.588" r="113.258" stroke="#0D0D0D"/>
</svg>
