<svg width="189" height="189" viewBox="0 0 189 189" fill="none" xmlns="http://www.w3.org/2000/svg">
<g clip-path="url(#clip0_154_106)">
<path d="M124.429 17.6655L123.487 21.1922L123.299 21.0968C123.299 19.9531 123.111 19.0953 122.734 18.4281C122.358 17.7609 121.699 17.2843 120.945 17.0937C120.286 16.903 119.627 16.8077 118.968 16.9984C118.309 17.189 117.744 17.5702 117.18 18.2374C116.615 18.9046 116.144 19.7624 115.767 20.9062C115.485 21.8594 115.391 22.7172 115.391 23.4797C115.485 24.2422 115.767 24.9094 116.238 25.4813C116.709 26.0532 117.274 26.4344 118.027 26.7203C118.686 26.911 119.345 27.0063 119.91 26.911C120.475 26.8157 121.228 26.4344 122.075 25.7672L122.263 25.9578C121.416 26.7203 120.663 27.1969 119.816 27.3875C118.968 27.5782 118.121 27.4829 117.18 27.1969C115.485 26.625 114.449 25.5766 113.979 24.0516C113.602 22.9078 113.602 21.6687 114.073 20.4296C114.449 19.3812 114.92 18.5234 115.673 17.8562C116.426 17.189 117.274 16.7124 118.215 16.5218C119.157 16.3312 120.098 16.4265 121.039 16.7124C121.793 16.9984 122.452 17.3796 123.017 17.9515C123.205 18.1421 123.299 18.2374 123.393 18.2374C123.487 18.2374 123.676 18.2374 123.77 18.2374C123.958 18.1421 124.052 17.9515 124.24 17.7609L124.429 17.6655Z" fill="white"/>
<path d="M132.996 21.7641C134.22 22.4312 134.973 23.4797 135.444 24.9094C135.821 26.3391 135.632 27.7688 134.973 29.1032C134.22 30.5329 133.091 31.486 131.773 31.9626C130.36 32.4392 129.042 32.3439 127.724 31.5814C126.406 30.9142 125.559 29.8657 125.182 28.436C124.806 27.0063 124.994 25.5766 125.747 24.1469C126.5 22.6219 127.724 21.6687 129.231 21.2875C130.549 21.0015 131.773 21.0969 132.996 21.7641ZM132.62 22.2406C131.773 21.7641 130.925 21.7641 130.078 22.05C129.042 22.5266 128.101 23.4797 127.348 25.0047C126.5 26.5297 126.218 27.9594 126.406 29.1032C126.595 29.961 127.065 30.7235 127.913 31.1048C128.76 31.5814 129.701 31.5814 130.643 31.2001C131.584 30.8189 132.432 29.8657 133.279 28.436C134.126 26.8157 134.503 25.4813 134.22 24.3375C134.032 23.3844 133.467 22.7172 132.62 22.2406Z" fill="white"/>
<path d="M139.961 26.0532L142.221 27.8642L142.409 38.2534L146.175 33.3924C146.551 32.9158 146.74 32.5346 146.74 32.2486C146.74 31.9627 146.551 31.6767 146.269 31.3908L145.986 31.2002L146.175 31.0095L149.093 33.2971L148.905 33.4877L148.622 33.2971C148.246 33.0111 147.963 32.9158 147.587 33.0111C147.399 33.1064 147.116 33.2971 146.74 33.7736L141.185 40.9222L140.997 40.7315L140.808 29.5798L136.76 34.7268C136.384 35.2033 136.195 35.5846 136.195 35.8705C136.195 36.1565 136.384 36.4424 136.666 36.7284L136.949 36.919L136.76 37.1096L133.842 34.8221L134.03 34.6315L134.313 34.8221C134.689 35.108 134.972 35.2033 135.348 35.108C135.536 35.0127 135.819 34.8221 136.195 34.3455L140.714 28.4361C140.714 27.9595 140.62 27.5782 140.62 27.3876C140.526 27.197 140.432 27.0064 140.244 26.7204C140.149 26.6251 139.961 26.4345 139.773 26.2438L139.961 26.0532Z" fill="white"/>
<path d="M157.285 42.0659L155.497 43.8768L155.308 43.6862C155.591 43.3049 155.779 43.1143 155.873 42.8284C155.967 42.5424 155.967 42.1612 155.967 41.8752C155.873 41.5893 155.685 41.3033 155.402 40.9221L154.367 39.7783L148.436 45.3065C147.965 45.7831 147.683 46.069 147.683 46.2597C147.683 46.5456 147.777 46.8315 148.059 47.2128L148.342 47.4987L148.153 47.6894L145.141 44.3534L145.329 44.1628L145.611 44.4487C145.894 44.83 146.27 44.9253 146.553 44.9253C146.741 44.9253 147.118 44.6393 147.494 44.2581L153.425 38.7299L152.578 37.7767C152.201 37.3955 152.013 37.2049 151.825 37.1095C151.542 37.0142 151.26 36.9189 150.978 37.0142C150.601 37.1095 150.319 37.2049 149.942 37.5861L149.754 37.3955L151.637 35.7751L157.285 42.0659Z" fill="white"/>
<path d="M156.625 53.4088L154.272 49.9775L152.483 50.3588C152.012 50.4541 151.73 50.5494 151.541 50.6447C151.447 50.74 151.353 50.8353 151.353 51.1213C151.353 51.3119 151.447 51.5979 151.73 52.0744L151.447 52.265L149.564 49.5009L149.847 49.3103C150.129 49.5963 150.412 49.7869 150.6 49.8822C150.977 49.9775 151.541 49.8822 152.389 49.7869L161.709 47.8806L161.897 48.0712L156.719 56.1729C156.343 56.8401 156.06 57.3167 156.06 57.6026C156.06 57.8886 156.155 58.2698 156.343 58.6511L156.06 58.8417L153.707 55.3151L153.989 55.1245C154.272 55.5057 154.46 55.6963 154.648 55.6963C154.837 55.7917 155.025 55.6963 155.119 55.601C155.307 55.5057 155.59 55.2198 155.872 54.7432L156.625 53.4088ZM157.002 52.9322L159.544 49.0244L154.931 49.8822L157.002 52.9322Z" fill="white"/>
<path d="M170.276 63.9885L167.075 65.7041L166.981 65.5135C167.829 64.751 168.299 63.9885 168.488 63.2259C168.676 62.4634 168.582 61.7009 168.205 60.9384C167.923 60.2712 167.452 59.7947 166.887 59.4134C166.322 59.0321 165.663 58.8415 164.816 58.9368C163.969 58.9368 163.027 59.2228 161.992 59.6993C161.144 60.0806 160.391 60.5572 159.92 61.2244C159.45 61.7962 159.073 62.4634 159.073 63.2259C158.979 63.9885 159.073 64.6557 159.45 65.4182C159.732 66.0854 160.109 66.5619 160.579 66.9432C161.05 67.3244 161.803 67.6104 162.933 67.801V68.087C161.897 67.9916 160.956 67.7057 160.297 67.2291C159.638 66.7526 159.073 66.0854 158.602 65.2275C157.849 63.6072 157.849 62.0822 158.697 60.6525C159.261 59.604 160.203 58.7462 161.333 58.1743C162.274 57.6978 163.31 57.5071 164.251 57.6024C165.287 57.6978 166.134 57.9837 166.981 58.5556C167.829 59.1275 168.393 59.89 168.77 60.7478C169.052 61.415 169.241 62.2728 169.241 63.0353C169.241 63.3213 169.241 63.4166 169.241 63.5119C169.335 63.6072 169.429 63.7025 169.523 63.7978C169.711 63.8931 169.9 63.8931 170.182 63.7978L170.276 63.9885Z" fill="white"/>
<path d="M173.855 76.4725L171.502 77.235L171.407 76.949C171.784 76.7584 172.066 76.5678 172.255 76.4725C172.537 76.1865 172.631 75.9959 172.725 75.6146C172.82 75.2334 172.725 74.9474 172.631 74.5662L172.255 73.1365L164.441 75.3287C163.782 75.5193 163.405 75.71 163.311 75.9006C163.123 76.1865 163.123 76.4725 163.217 76.8537L163.311 77.235L163.029 77.3303L161.805 72.9459L162.087 72.8505L162.181 73.2318C162.275 73.7084 162.558 73.899 162.84 74.0896C163.029 74.1849 163.405 74.0896 163.97 73.899L171.784 71.7068L171.407 70.4677C171.313 69.9911 171.125 69.6099 171.031 69.5146C170.843 69.3239 170.654 69.1333 170.278 69.038C169.995 68.9427 169.525 68.9427 169.054 69.038L168.96 68.7521L171.407 68.1802L173.855 76.4725Z" fill="white"/>
<path d="M175.362 92.6773H175.644L175.832 96.4898H175.55V96.1086C175.55 95.7273 175.361 95.3461 174.985 95.1554C174.797 95.0601 174.42 95.0601 173.855 95.0601L169.525 95.2508C168.489 95.2508 167.642 95.2508 167.077 95.0601C166.512 94.8695 165.947 94.4883 165.476 93.9164C165.006 93.3445 164.817 92.4867 164.723 91.4382C164.629 90.2944 164.817 89.3413 165.194 88.7694C165.571 88.1022 166.041 87.721 166.794 87.435C167.265 87.2444 168.112 87.1491 169.43 87.0538L173.573 86.8632C174.232 86.8632 174.608 86.7678 174.797 86.5772C174.985 86.3866 175.079 86.1006 175.079 85.7194V85.3381H175.362L175.55 90.0085H175.267V89.6273C175.267 89.1507 175.079 88.8647 174.797 88.6741C174.608 88.5788 174.232 88.4835 173.573 88.4835L168.96 88.6741C168.583 88.6741 168.112 88.7694 167.548 88.8647C166.983 88.9601 166.606 89.1507 166.324 89.3413C166.041 89.5319 165.759 89.8179 165.665 90.1991C165.476 90.5804 165.382 91.057 165.476 91.6288C165.476 92.296 165.665 92.9632 166.041 93.5351C166.324 94.107 166.794 94.3929 167.265 94.5836C167.736 94.7742 168.583 94.8695 169.713 94.7742L174.043 94.5836C174.702 94.5836 175.079 94.4882 175.267 94.2976C175.456 94.107 175.55 93.7257 175.55 93.3445L175.362 92.6773Z" fill="white"/>
<path d="M175.079 106.499L171.407 106.117V105.831C172.16 105.831 172.725 105.736 173.102 105.545C173.573 105.355 173.949 105.069 174.232 104.592C174.514 104.116 174.702 103.735 174.702 103.258C174.796 102.686 174.608 102.21 174.326 101.828C174.043 101.447 173.667 101.256 173.29 101.161C173.008 101.161 172.631 101.161 172.349 101.447C171.878 101.733 171.313 102.4 170.56 103.639C169.901 104.592 169.43 105.164 169.148 105.545C168.865 105.831 168.489 106.117 168.018 106.308C167.547 106.499 167.171 106.499 166.794 106.499C166.041 106.403 165.382 106.022 164.817 105.355C164.252 104.688 164.064 103.83 164.252 102.877C164.252 102.591 164.346 102.305 164.441 102.019C164.441 101.828 164.629 101.542 164.817 101.066C165.005 100.589 165.194 100.303 165.194 100.113C165.194 100.017 165.194 99.8267 165.1 99.8267C165.005 99.7314 164.911 99.636 164.629 99.636V99.3501L168.206 99.7314V100.017C167.453 100.113 166.888 100.208 166.418 100.399C166.041 100.589 165.664 100.875 165.382 101.352C165.1 101.828 164.911 102.305 164.817 102.877C164.723 103.544 164.817 104.116 165.194 104.497C165.57 104.878 165.853 105.164 166.323 105.164C166.606 105.164 166.888 105.164 167.171 105.069C167.453 104.974 167.736 104.783 168.018 104.497C168.206 104.306 168.583 103.83 169.148 102.972C169.713 102.114 170.183 101.542 170.56 101.161C170.936 100.78 171.219 100.589 171.69 100.399C172.16 100.208 172.443 100.208 172.914 100.208C173.667 100.303 174.326 100.684 174.796 101.352C175.267 102.019 175.455 102.781 175.361 103.639C175.267 104.211 175.079 104.783 174.796 105.355C174.608 105.641 174.514 105.831 174.514 105.927C174.514 106.022 174.514 106.213 174.608 106.308C174.702 106.403 174.796 106.499 175.079 106.594V106.499Z" fill="white"/>
<path d="M170.089 125.465L166.605 124.511L166.699 124.321C167.829 124.321 168.676 124.225 169.335 123.749C169.994 123.272 170.465 122.7 170.748 121.938C170.936 121.271 171.03 120.604 170.842 119.936C170.653 119.269 170.277 118.697 169.618 118.125C168.959 117.554 168.112 117.077 166.982 116.696C166.04 116.41 165.287 116.219 164.44 116.314C163.687 116.41 163.028 116.6 162.463 117.077C161.898 117.554 161.521 118.125 161.239 118.888C161.051 119.555 160.957 120.222 161.051 120.794C161.145 121.366 161.521 122.129 162.18 122.986L161.992 123.177C161.239 122.319 160.862 121.557 160.674 120.699C160.486 119.841 160.58 118.983 160.862 118.03C161.427 116.314 162.463 115.266 164.063 114.789C165.193 114.408 166.417 114.408 167.641 114.885C168.676 115.266 169.524 115.743 170.183 116.505C170.842 117.268 171.312 118.125 171.501 119.079C171.689 120.032 171.595 120.985 171.312 121.938C171.03 122.7 170.653 123.368 170.089 123.94C169.9 124.13 169.806 124.225 169.806 124.321C169.806 124.416 169.806 124.607 169.806 124.702C169.9 124.893 170.089 124.988 170.277 125.179L170.089 125.465Z" fill="white"/>
<path d="M165.946 134.044C165.287 135.283 164.252 136.046 162.839 136.427C161.427 136.808 160.015 136.617 158.697 135.855C157.285 135.092 156.344 133.949 155.873 132.519C155.402 131.089 155.59 129.755 156.249 128.516C156.908 127.181 158.038 126.419 159.356 126.038C160.768 125.656 162.18 125.847 163.593 126.705C165.099 127.563 166.04 128.706 166.417 130.231C166.794 131.566 166.605 132.805 165.946 134.044ZM165.476 133.663C165.946 132.805 165.946 131.947 165.664 131.089C165.193 130.041 164.252 129.088 162.839 128.23C161.333 127.372 160.015 127.086 158.791 127.277C157.944 127.467 157.191 127.944 156.814 128.802C156.344 129.659 156.249 130.613 156.626 131.566C157.003 132.519 157.944 133.377 159.356 134.235C160.957 135.092 162.275 135.474 163.404 135.283C164.346 135.092 165.005 134.52 165.476 133.663Z" fill="white"/>
<path d="M161.616 141.096L159.827 143.383L149.565 143.479L154.367 147.386C154.837 147.768 155.214 147.958 155.496 147.958C155.779 147.958 156.061 147.768 156.344 147.482L156.532 147.196L156.72 147.386L154.461 150.341L154.273 150.15L154.461 149.865C154.743 149.483 154.837 149.197 154.743 148.816C154.649 148.625 154.461 148.34 153.99 147.958L147.023 142.335L147.212 142.144L158.227 142.049L153.143 137.95C152.672 137.569 152.296 137.378 152.013 137.378C151.731 137.378 151.448 137.569 151.166 137.855L150.977 138.141L150.789 137.95L153.049 134.996L153.237 135.186L153.049 135.472C152.766 135.853 152.672 136.139 152.766 136.521C152.86 136.711 153.049 136.997 153.519 137.378L159.262 142.049C159.733 142.049 160.109 141.954 160.298 141.954C160.486 141.858 160.674 141.763 160.957 141.572C161.051 141.477 161.239 141.286 161.428 141.096H161.616Z" fill="white"/>
<path d="M145.611 158.442L143.822 156.631L144.011 156.44C144.387 156.726 144.576 156.917 144.858 157.012C145.14 157.108 145.517 157.108 145.799 157.108C146.082 157.108 146.364 156.822 146.741 156.536L147.871 155.487L142.41 149.387C141.94 148.911 141.657 148.625 141.469 148.625C141.186 148.625 140.904 148.72 140.527 149.006L140.245 149.292L140.057 149.101L143.352 146.051L143.54 146.242L143.258 146.528C142.881 146.814 142.787 147.195 142.787 147.481C142.787 147.672 143.069 148.053 143.446 148.434L148.906 154.534L149.848 153.676C150.224 153.295 150.412 153.104 150.601 152.914C150.695 152.628 150.789 152.342 150.695 152.056C150.695 151.675 150.507 151.389 150.224 151.008L150.412 150.817L152.013 152.723L145.611 158.442Z" fill="white"/>
<path d="M134.408 157.679L137.797 155.392L137.42 153.581C137.326 153.104 137.232 152.818 137.138 152.628C137.044 152.532 136.95 152.437 136.667 152.437C136.385 152.437 136.196 152.532 135.726 152.818L135.537 152.532L138.268 150.626L138.456 150.912C138.173 151.198 137.985 151.484 137.891 151.674C137.797 152.056 137.891 152.628 137.985 153.485L139.774 162.921L139.586 163.112L131.583 157.775C130.924 157.393 130.454 157.107 130.171 157.107C129.889 157.107 129.512 157.203 129.136 157.393L128.947 157.107L132.431 154.724L132.619 155.01C132.242 155.296 132.054 155.487 132.054 155.678C131.96 155.868 132.054 156.059 132.148 156.154C132.242 156.345 132.525 156.631 132.995 156.917L134.408 157.679ZM134.972 158.06L138.832 160.634L137.985 155.964L134.972 158.06Z" fill="white"/>
<path d="M123.959 171.499L122.265 168.259L122.453 168.163C123.206 169.021 123.959 169.593 124.712 169.784C125.465 169.974 126.219 169.879 126.972 169.593C127.631 169.307 128.101 168.831 128.478 168.354C128.855 167.782 129.043 167.115 129.043 166.257C129.043 165.399 128.76 164.446 128.29 163.398C127.913 162.54 127.442 161.777 126.878 161.301C126.313 160.824 125.654 160.443 124.995 160.348C124.242 160.252 123.583 160.348 122.829 160.729C122.17 161.015 121.7 161.396 121.323 161.873C120.947 162.349 120.664 163.112 120.476 164.256H120.193C120.288 163.207 120.57 162.254 121.041 161.587C121.511 160.92 122.17 160.348 123.112 159.966C124.712 159.204 126.219 159.299 127.631 160.062C128.666 160.634 129.514 161.587 129.984 162.73C130.455 163.684 130.643 164.732 130.549 165.685C130.455 166.734 130.173 167.591 129.608 168.354C129.043 169.116 128.29 169.784 127.442 170.165C126.783 170.451 125.936 170.642 125.183 170.546C124.901 170.546 124.806 170.546 124.712 170.546C124.618 170.642 124.524 170.737 124.43 170.832C124.336 171.023 124.336 171.213 124.43 171.499H123.959Z" fill="white"/>
<path d="M111.531 174.931L110.778 172.548L111.061 172.453C111.249 172.834 111.343 173.12 111.531 173.311C111.72 173.597 112.002 173.692 112.284 173.787C112.567 173.883 112.943 173.787 113.32 173.692L114.732 173.311L112.567 165.4C112.379 164.732 112.19 164.351 112.002 164.256C111.72 164.065 111.437 164.065 111.061 164.161L110.684 164.256L110.59 163.97L114.92 162.826L115.015 163.112L114.638 163.207C114.167 163.303 113.979 163.589 113.791 163.875C113.697 164.065 113.791 164.446 113.885 165.018L116.05 172.929L117.274 172.548C117.745 172.453 118.121 172.262 118.31 172.167C118.498 171.976 118.686 171.786 118.875 171.404C118.969 171.118 118.969 170.642 118.875 170.165L119.157 170.07L119.722 172.548L111.531 174.931Z" fill="white"/>
<path d="M95.6212 176.364V176.65L91.8555 176.745V176.459H92.232C92.6086 176.459 92.9852 176.268 93.1735 175.887C93.2676 175.697 93.3618 175.315 93.2676 174.743L93.0793 170.359C93.0793 169.31 93.0793 168.453 93.2676 167.881C93.4559 167.309 93.8325 166.737 94.4915 166.356C95.0564 165.879 95.9037 165.689 97.0334 165.593C98.1631 165.593 99.1046 165.689 99.6694 166.07C100.328 166.451 100.705 167.023 100.987 167.69C101.176 168.167 101.27 169.025 101.364 170.359L101.552 174.553C101.552 175.22 101.646 175.601 101.835 175.887C102.023 176.173 102.305 176.173 102.682 176.173H103.059V176.459L98.4456 176.65V176.364H98.8221C99.2929 176.364 99.5753 176.173 99.7636 175.887C99.8577 175.697 99.9519 175.315 99.9519 174.648L99.7636 169.978C99.7636 169.596 99.6694 169.12 99.5753 168.548C99.4812 167.976 99.2929 167.595 99.1046 167.309C98.9163 167.023 98.6339 166.737 98.2573 166.642C97.8807 166.451 97.41 166.356 96.8451 166.356C96.1861 166.356 95.5271 166.546 94.9622 166.928C94.3974 167.214 94.0208 167.69 93.9266 168.167C93.7384 168.643 93.6442 169.501 93.7384 170.645L93.9266 175.029C93.9266 175.697 94.0208 176.078 94.2091 176.268C94.3974 176.459 94.6798 176.554 95.1505 176.554L95.6212 176.364Z" fill="white"/>
<path d="M81.8754 175.981L82.3461 172.264H82.6285C82.6285 173.027 82.7227 173.599 82.911 173.98C83.0993 174.456 83.3817 174.838 83.8524 175.124C84.229 175.409 84.6997 175.6 85.1704 175.695C85.7353 175.791 86.206 175.6 86.5826 175.314C86.9592 175.028 87.1475 174.647 87.2416 174.266C87.2416 173.98 87.2416 173.599 87.0533 173.313C86.7709 172.836 86.1119 172.264 84.9822 171.502C84.0407 170.834 83.4758 170.358 83.0993 170.072C82.8168 169.786 82.5344 169.405 82.3461 168.928C82.1578 168.452 82.1578 168.07 82.1578 167.689C82.252 166.927 82.6285 166.259 83.2876 165.688C83.9466 165.211 84.7939 165.02 85.7353 165.116C86.0177 165.116 86.3002 165.211 86.5826 165.306C86.7709 165.306 87.0533 165.497 87.524 165.688C87.9948 165.878 88.2772 166.069 88.4655 166.069C88.5596 166.069 88.6538 166.069 88.7479 165.973C88.8421 165.878 88.9362 165.783 88.9362 165.497H89.2186L88.7479 169.119H88.4655C88.4655 168.356 88.2772 167.784 88.0889 167.308C87.9006 166.831 87.6182 166.545 87.1475 166.259C86.6767 165.973 86.206 165.783 85.6412 165.688C84.9822 165.592 84.4173 165.688 84.0407 166.069C83.6641 166.45 83.3817 166.736 83.2876 167.213C83.2876 167.498 83.2876 167.784 83.3817 168.07C83.4758 168.356 83.6641 168.642 83.9466 168.928C84.1349 169.119 84.6056 169.5 85.4529 170.167C86.3002 170.834 86.865 171.311 87.2416 171.597C87.6182 171.883 87.8065 172.359 87.9948 172.741C88.1831 173.122 88.1831 173.503 88.1831 173.98C88.0889 174.742 87.7123 175.409 87.0533 175.886C86.3943 176.363 85.6412 176.553 84.6997 176.458C84.1349 176.363 83.57 176.172 83.0051 175.791C82.7227 175.6 82.5344 175.505 82.4403 175.505C82.3461 175.505 82.1578 175.505 82.0637 175.6C81.9695 175.695 81.8754 175.791 81.7812 176.077L81.8754 175.981Z" fill="white"/>
<path d="M63.2344 170.74L64.1758 167.213L64.3641 167.308C64.27 168.452 64.4582 169.31 64.929 169.977C65.3997 170.644 65.9646 171.121 66.7177 171.407C67.3767 171.597 68.0357 171.693 68.6947 171.502C69.3537 171.311 69.9186 170.93 70.4835 170.358C71.0483 169.691 71.5191 168.833 71.8956 167.785C72.1781 166.832 72.3664 166.069 72.2722 165.211C72.1781 164.449 71.9898 163.782 71.5191 163.21C71.0483 162.638 70.4835 162.257 69.7303 161.971C69.0713 161.78 68.5064 161.685 67.8474 161.78C67.2826 161.875 66.5294 162.257 65.588 162.829L65.3997 162.638C66.247 161.875 67.0001 161.494 67.8474 161.304C68.6947 161.113 69.542 161.208 70.4835 161.494C72.1781 162.066 73.2137 163.21 73.6844 164.735C74.061 165.879 73.9668 167.118 73.5902 168.357C73.2137 169.405 72.6488 170.168 71.9898 170.93C71.2366 171.597 70.3893 172.074 69.4479 172.265C68.5064 172.455 67.565 172.36 66.6236 172.074C65.8704 171.788 65.2114 171.407 64.6465 170.74C64.4582 170.549 64.3641 170.454 64.27 170.454C64.1758 170.454 63.9875 170.454 63.8934 170.454C63.7051 170.549 63.5168 170.74 63.4227 170.93L63.2344 170.74Z" fill="white"/>
<path d="M54.7626 166.449C53.5387 165.782 52.7856 164.733 52.409 163.303C52.0324 161.874 52.2207 160.444 52.9739 159.11C53.727 157.68 54.8567 156.727 56.2689 156.346C57.6811 155.869 58.9991 156.06 60.223 156.727C61.541 157.489 62.2941 158.538 62.6707 159.872C63.0473 161.302 62.7649 162.732 62.0117 164.161C61.1644 165.686 60.0347 166.544 58.5284 166.925C57.2103 167.307 55.9865 167.116 54.7626 166.449ZM55.1392 165.972C55.9865 166.449 56.8338 166.544 57.6811 166.163C58.7167 165.782 59.6581 164.828 60.5054 163.303C61.3527 161.778 61.6351 160.444 61.4468 159.205C61.2585 158.252 60.7878 157.585 60.0347 157.108C59.1874 156.631 58.2459 156.536 57.3045 156.917C56.363 157.299 55.5157 158.252 54.6684 159.682C53.8212 161.302 53.4446 162.636 53.6329 163.78C53.727 164.828 54.2919 165.496 55.1392 165.972Z" fill="white"/>
<path d="M47.889 162.065L45.6296 160.254V149.865L41.7696 154.631C41.3931 155.107 41.2048 155.488 41.2048 155.774C41.2048 156.06 41.3931 156.346 41.6755 156.632L41.9579 156.823L41.7696 157.013L38.9453 154.631L39.1336 154.44L39.416 154.726C39.7926 155.012 40.075 155.107 40.4516 155.012C40.6399 154.916 40.9223 154.726 41.2989 154.249L46.9476 147.196L47.1359 147.387V158.538L51.2782 153.391C51.6548 152.915 51.9372 152.534 51.8431 152.343C51.8431 152.057 51.6548 151.771 51.3723 151.485L51.0899 151.199L51.2782 151.009L54.1025 153.391L53.9142 153.582L53.6318 153.391C53.2552 153.106 52.9728 153.01 52.5962 153.105C52.4079 153.201 52.1255 153.391 51.7489 153.868L47.1359 159.682C47.1359 160.159 47.1359 160.54 47.23 160.731C47.3241 160.921 47.4183 161.112 47.6066 161.398C47.7007 161.493 47.889 161.684 48.0773 161.874L47.889 162.065Z" fill="white"/>
<path d="M30.8496 145.766L32.6384 144.05L32.8266 144.241C32.5442 144.622 32.3559 144.813 32.2618 145.003C32.1676 145.289 32.0735 145.67 32.1676 145.956C32.2618 146.242 32.4501 146.528 32.7325 146.91L33.7681 148.053L39.7933 142.62C40.264 142.144 40.5465 141.858 40.5465 141.667C40.5465 141.381 40.4523 141.095 40.1699 140.714L39.8875 140.428L40.0757 140.238L43.0884 143.669L42.9001 143.859L42.6176 143.574C42.3352 143.192 42.0528 143.097 41.6762 143.097C41.4879 143.097 41.1113 143.288 40.7348 143.764L34.7095 149.197L35.5568 150.15C35.8393 150.531 36.1217 150.722 36.31 150.913C36.5924 151.008 36.8748 151.103 37.1573 151.008C37.4397 150.913 37.8163 150.817 38.1929 150.531L38.3811 150.722L36.4041 152.342L30.8496 145.766Z" fill="white"/>
<path d="M31.6967 134.424L33.9562 137.856L35.7449 137.57C36.2156 137.475 36.498 137.379 36.6863 137.284C36.7805 137.189 36.8746 137.093 36.8746 136.807C36.8746 136.617 36.7805 136.331 36.498 135.854L36.7805 135.664L38.5692 138.523L38.2868 138.714C38.0044 138.428 37.7219 138.237 37.5336 138.142C37.1571 138.046 36.5922 138.046 35.7449 138.237L26.4246 139.953L26.2363 139.762L31.6025 131.756C32.0733 131.089 32.2616 130.612 32.3557 130.326C32.3557 130.04 32.3557 129.659 32.0733 129.278L32.3557 129.087L34.6152 132.614L34.3327 132.804C34.0503 132.423 33.862 132.232 33.6737 132.232C33.4854 132.232 33.2971 132.232 33.203 132.328C33.0147 132.423 32.7323 132.709 32.4498 133.185L31.6967 134.424ZM31.3201 134.901L28.7782 138.809L33.3913 137.951L31.3201 134.901Z" fill="white"/>
<path d="M18.1391 123.558L21.34 121.842L21.4341 122.033C20.5868 122.795 20.022 123.558 19.8337 124.225C19.6454 124.892 19.7395 125.75 20.022 126.512C20.3044 127.179 20.681 127.656 21.2458 128.037C21.8107 128.419 22.4697 128.609 23.317 128.609C24.1643 128.609 25.1057 128.323 26.1413 127.847C26.9886 127.465 27.7418 126.989 28.2125 126.417C28.7774 125.845 29.0598 125.178 29.1539 124.511C29.2481 123.748 29.1539 123.081 28.7774 122.318C28.4949 121.651 28.1184 121.175 27.6476 120.793C27.1769 120.412 26.4238 120.126 25.3882 119.936V119.65C26.4238 119.745 27.3652 120.031 28.0242 120.507C28.6832 120.984 29.2481 121.651 29.6247 122.604C30.3778 124.225 30.2837 125.75 29.4364 127.179C28.8715 128.228 27.9301 129.086 26.7062 129.562C25.7647 130.039 24.7292 130.134 23.7877 130.134C22.7521 130.039 21.9048 129.753 21.1517 129.181C20.3985 128.609 19.7395 127.847 19.3629 126.989C19.0805 126.322 18.8922 125.464 18.9864 124.701C18.9864 124.415 18.9864 124.32 18.9864 124.225C18.8922 124.129 18.7981 124.034 18.7039 123.939C18.5156 123.843 18.3274 123.843 18.0449 123.939L18.1391 123.558Z" fill="white"/>
<path d="M14.8457 111.074L17.1993 110.311L17.2935 110.597C16.9169 110.788 16.6344 110.883 16.4462 111.074C16.1637 111.264 16.0696 111.55 15.9754 111.836C15.8813 112.122 15.8813 112.503 16.0696 112.885L16.4462 114.314L24.2601 112.217C24.9191 112.027 25.2957 111.836 25.3899 111.741C25.5781 111.455 25.5781 111.169 25.484 110.788L25.3899 110.406L25.6723 110.311L26.802 114.695L26.5196 114.791L26.4254 114.41C26.3313 113.933 26.143 113.647 25.7664 113.552C25.5781 113.456 25.2016 113.552 24.6367 113.647L16.8227 115.744L17.1052 116.983C17.1993 117.46 17.3876 117.841 17.4817 118.031C17.67 118.317 17.8583 118.413 18.2349 118.603C18.5173 118.699 18.988 118.699 19.4588 118.603L19.5529 118.889L17.1052 119.366L14.8457 111.074Z" fill="white"/>
<path d="M13.527 94.8699H13.2445L13.1504 91.0574H13.4328V91.4386C13.4328 91.8199 13.6211 92.2011 13.9977 92.3918C14.186 92.4871 14.5626 92.5824 15.1274 92.4871L19.4581 92.3918C20.4936 92.3918 21.3409 92.4871 21.9058 92.6777C22.4707 92.8683 23.0355 93.2496 23.4121 93.9168C23.7887 94.584 24.0711 95.3465 24.0711 96.4902C24.0711 97.634 23.8828 98.5872 23.5063 99.159C23.1297 99.7309 22.5648 100.207 21.9058 100.493C21.6234 100.684 20.6819 100.779 19.4581 100.875L15.3157 100.97C14.6567 100.97 14.2801 101.065 13.9977 101.256C13.8094 101.447 13.7153 101.732 13.7153 102.114V102.495H13.4328L13.3387 97.92H13.6211V98.3012C13.6211 98.7778 13.8094 99.0637 14.0918 99.2543C14.2801 99.3497 14.6567 99.445 15.2216 99.445L19.8346 99.3497C20.2112 99.3497 20.6819 99.2543 21.2468 99.159C21.8117 99.0637 22.1882 98.8731 22.4707 98.6825C22.7531 98.4918 23.0355 98.2059 23.2238 97.8246C23.4121 97.4434 23.5063 96.9668 23.5063 96.3949C23.5063 95.7277 23.318 95.0605 23.0355 94.4887C22.7531 93.9168 22.2824 93.5355 21.8117 93.3449C21.3409 93.2496 20.4936 93.1543 19.3639 93.1543L15.0333 93.2496C14.3743 93.2496 13.9977 93.3449 13.8094 93.5355C13.6211 93.7262 13.4328 94.0121 13.527 94.4887V94.8699Z" fill="white"/>
<path d="M14.0923 81.0479L17.7639 81.5244V81.8104C17.0108 81.8104 16.4459 81.9057 16.0693 82.0963C15.5986 82.2869 15.222 82.5729 14.9396 83.0494C14.6572 83.526 14.4689 83.9073 14.3747 84.3838C14.2806 84.9557 14.3747 85.4323 14.6572 85.8135C14.9396 86.1948 15.3162 86.4807 15.6928 86.4807C15.9752 86.4807 16.3518 86.4807 16.6342 86.2901C17.1049 86.0042 17.6698 85.337 18.5171 84.1932C19.1761 83.2401 19.6468 82.6682 20.0234 82.2869C20.3058 82.001 20.6824 81.715 21.1531 81.6197C21.6238 81.5244 22.0004 81.4291 22.377 81.5244C23.1302 81.6197 23.7892 82.001 24.354 82.7635C24.8247 83.4307 25.013 84.2885 24.9189 85.2417C24.9189 85.5276 24.8247 85.8135 24.7306 86.0995C24.7306 86.2901 24.5423 86.576 24.354 87.0526C24.1657 87.5292 23.9775 87.8151 23.9775 88.0058C23.9775 88.1011 23.9775 88.2917 24.0716 88.2917C24.1657 88.387 24.2599 88.4823 24.5423 88.4823V88.7683L20.6824 88.2917V88.0058C21.4356 88.0058 22.0004 87.8151 22.4711 87.7198C22.9419 87.6245 23.2243 87.2432 23.5067 86.7667C23.7892 86.2901 23.9775 85.8135 24.0716 85.2417C24.1657 84.5745 24.0716 84.0026 23.7892 83.6213C23.5067 83.2401 23.1302 82.9541 22.6594 82.8588C22.377 82.8588 22.0946 82.8588 21.8121 82.9541C21.5297 83.0494 21.2473 83.2401 20.9648 83.526C20.7765 83.7166 20.4 84.1932 19.741 85.051C19.082 85.9089 18.6112 86.4807 18.3288 86.862C17.9522 87.2432 17.5756 87.4339 17.1991 87.6245C16.8225 87.8151 16.4459 87.8151 15.9752 87.8151C15.222 87.7198 14.563 87.3386 14.0923 86.6714C13.6216 86.0042 13.4333 85.2417 13.5274 84.2885C13.6216 83.7166 13.8099 83.1448 14.1865 82.5729C14.3747 82.2869 14.4689 82.0963 14.4689 82.001C14.4689 81.9057 14.4689 81.715 14.3747 81.6197C14.2806 81.5244 14.1865 81.4291 13.904 81.3338L14.0923 81.0479Z" fill="white"/>
<path d="M19.3645 62.1765L22.8479 63.225L22.7537 63.4156C21.624 63.3203 20.7767 63.5109 20.1177 63.8922C19.4587 64.2734 18.9879 64.9406 18.7055 65.7031C18.4231 66.3703 18.4231 67.0375 18.5172 67.7047C18.6114 68.3719 19.0821 68.9438 19.647 69.611C20.306 70.1829 21.1533 70.6594 22.1888 71.0407C23.1303 71.3266 23.8834 71.5173 24.7307 71.4219C25.578 71.3266 26.1429 71.136 26.7078 70.6594C27.2726 70.1829 27.6492 69.611 27.9316 68.8485C28.1199 68.1813 28.2141 67.6094 28.1199 66.9422C28.0258 66.3703 27.6492 65.6078 27.0843 64.6547L27.2726 64.464C27.9316 65.3219 28.4024 66.0844 28.5906 66.9422C28.7789 67.8 28.6848 68.6578 28.3082 69.611C27.7434 71.3266 26.6136 72.3751 25.1073 72.8516C23.9776 73.2329 22.7537 73.1376 21.5298 72.661C20.4942 72.2798 19.7411 71.7079 18.9879 70.9454C18.3289 70.1829 17.8582 69.325 17.7641 68.3719C17.5758 67.4188 17.6699 66.4656 18.0465 65.5125C18.3289 64.75 18.7055 64.0828 19.3645 63.5109C19.6469 63.5109 19.7411 63.4156 19.7411 63.3203C19.8352 63.225 19.7411 63.0343 19.7411 62.939C19.647 62.7484 19.4587 62.5578 19.2704 62.4625L19.3645 62.1765Z" fill="white"/>
<path d="M23.695 53.6914C24.354 52.4523 25.3896 51.6898 26.8018 51.3086C28.2139 50.9273 29.6261 51.1179 30.9441 51.9758C32.3563 52.7383 33.2977 53.882 33.6743 55.3117C34.0509 56.7415 33.9567 58.0758 33.2036 59.3149C32.4504 60.554 31.4148 61.4118 30.0027 61.7931C28.5905 62.1743 27.1783 61.8884 25.7662 61.1259C24.2599 60.2681 23.4126 59.1243 23.036 57.504C22.8477 56.1696 23.036 54.8352 23.695 53.6914ZM24.0716 54.0727C23.6009 54.9305 23.5067 55.7883 23.8833 56.6461C24.2599 57.6946 25.2013 58.6477 26.7076 59.5056C28.2139 60.3634 29.5319 60.7446 30.7558 60.554C31.6973 60.3634 32.3563 59.8868 32.827 59.1243C33.2977 58.2665 33.3919 57.3133 33.0153 56.3602C32.6387 55.4071 31.7914 54.5492 30.2851 53.6914C28.6847 52.7383 27.3666 52.4523 26.2369 52.643C25.2955 52.643 24.6365 53.2148 24.0716 54.0727Z" fill="white"/>
<path d="M28.1191 46.7359L29.9079 44.4483L40.1696 44.5436L35.4624 40.6358C34.9917 40.2545 34.6151 39.9686 34.4268 40.0639C34.1444 40.0639 33.8619 40.2545 33.5795 40.5405L33.3912 40.8264L33.2029 40.6358L35.5565 37.7764L35.7448 37.967L35.4624 38.2529C35.18 38.6342 35.0858 38.9201 35.18 39.3014C35.2741 39.492 35.4624 39.778 35.9331 40.1592L42.8056 45.878L42.6173 46.0687L31.6025 45.9733L36.5921 50.1672C37.0628 50.5484 37.4394 50.8343 37.6277 50.8343C37.9101 50.8343 38.1926 50.6437 38.475 50.3578L38.7574 50.0718L38.9457 50.2625L36.5921 53.1219L36.4038 52.9312L36.5921 52.6453C36.8746 52.2641 36.9687 51.9781 36.8746 51.5969C36.7804 51.4062 36.5921 51.1203 36.1214 50.739L30.4727 45.9733C30.002 45.9733 29.6254 45.9733 29.4372 46.0687C29.2489 46.164 29.0606 46.2593 28.7782 46.4499C28.684 46.5452 28.4957 46.7359 28.3074 46.9265L28.1191 46.7359Z" fill="white"/>
<path d="M44.3124 29.5784L46.007 31.3893L45.8187 31.58C45.4421 31.294 45.2538 31.1034 45.0655 31.0081C44.7831 30.9128 44.4065 30.8174 44.1241 30.9128C43.8416 31.0081 43.5592 31.1987 43.1826 31.4846L42.0529 32.4378L47.4191 38.6332C47.8898 39.1097 48.1723 39.3957 48.3606 39.3957C48.643 39.3957 48.9254 39.3004 49.302 39.0144L49.5844 38.7285L49.7727 38.9191L46.3835 41.8738L46.1952 41.6832L46.4777 41.3973C46.8543 41.1113 46.9484 40.8254 46.9484 40.4441C46.9484 40.2535 46.7601 39.8722 46.2894 39.491L40.9232 33.2956L39.9817 34.1534C39.6051 34.4394 39.3227 34.7253 39.2286 34.9159C39.1344 35.2019 39.0403 35.4878 39.0403 35.7738C39.0403 36.155 39.2286 36.441 39.511 36.9175L39.3227 37.1082L37.8164 35.1066L44.3124 29.5784Z" fill="white"/>
<path d="M55.5151 30.5316L52.0317 32.8191L52.3141 34.6301C52.4083 35.1067 52.5024 35.3926 52.5966 35.5832C52.6907 35.6786 52.7849 35.7739 53.0673 35.7739C53.3497 35.7739 53.538 35.6786 54.0087 35.3926L54.197 35.6786L51.3727 37.4895L51.1844 37.2036C51.561 36.9176 51.6551 36.6317 51.7493 36.4411C51.8434 36.0598 51.8434 35.4879 51.6551 34.6301L50.0547 25.194L50.243 25.0034L58.1511 30.4363C58.8101 30.9129 59.2808 31.1035 59.5633 31.1988C59.8457 31.2941 60.2223 31.1988 60.5988 30.9129L60.7871 31.1988L57.3979 33.5817L57.2096 33.2957C57.5862 33.0098 57.7745 32.8191 57.7745 32.6285C57.8687 32.4379 57.7745 32.2473 57.6804 32.1519C57.5862 31.9613 57.3038 31.6754 56.8331 31.3894L55.5151 30.5316ZM55.0443 30.1504L51.1844 27.4816L51.9376 32.1519L55.0443 30.1504Z" fill="white"/>
<path d="M66.2485 16.9004L67.8489 20.1411L67.7548 20.3317C67.0016 19.4739 66.3426 18.902 65.5894 18.7114C64.8363 18.5207 64.0831 18.616 63.33 18.902C62.671 19.1879 62.2003 19.5692 61.8237 20.1411C61.353 20.7129 61.1647 21.3801 61.1647 22.238C61.1647 23.0958 61.4471 24.0489 61.8237 25.0974C62.2003 25.9552 62.671 26.7177 63.2358 27.1943C63.8007 27.7662 64.4597 28.0521 65.1187 28.1474C65.8719 28.2427 66.5309 28.1474 67.284 27.8615C67.9431 27.5755 68.4138 27.1943 68.7903 26.7177C69.1669 26.2411 69.4494 25.4786 69.7318 24.4302L70.0142 24.5255C69.9201 25.5739 69.6376 26.5271 69.1669 27.1943C68.6962 27.8615 68.0372 28.4333 67.0958 28.8146C65.4953 29.4818 63.989 29.4818 62.5768 28.624C61.5412 28.0521 60.7881 27.099 60.2232 25.8599C59.8467 24.9067 59.6584 23.8583 59.7525 22.9052C59.8467 21.8567 60.1291 20.9989 60.6939 20.2364C61.2588 19.4739 62.012 18.902 62.9534 18.4254C63.6124 18.1395 64.4597 17.9488 65.2129 18.0442C65.4953 18.0442 65.5894 18.0442 65.6836 18.0442C65.8719 17.9488 65.966 17.8535 65.966 17.6629C66.0602 17.4723 66.0602 17.2816 65.966 16.9957L66.2485 16.9004Z" fill="white"/>
<path d="M78.6761 13.6597L79.4293 16.0425L79.1468 16.1378C78.9585 15.7566 78.8644 15.4706 78.6761 15.28C78.4878 14.9941 78.2054 14.8987 77.923 14.8034C77.6405 14.7081 77.2639 14.7081 76.8874 14.8987L75.4752 15.28L77.4522 23.191C77.6405 23.8582 77.7347 24.2395 77.923 24.3348C78.2054 24.5254 78.4878 24.5254 78.8644 24.4301L79.241 24.3348L79.3351 24.6207L75.0045 25.7645L74.9103 25.4786L75.2869 25.3833C75.7576 25.2879 76.0401 25.0973 76.1342 24.7161C76.2284 24.5254 76.1342 24.1442 76.0401 23.5723L74.063 15.6613L72.6509 15.9472C72.1802 16.0425 71.8036 16.2331 71.6153 16.3285C71.3329 16.5191 71.2387 16.7097 71.0504 17.091C70.9563 17.3769 70.9563 17.8535 70.9563 18.33L70.6738 18.4254L70.2031 15.9472L78.6761 13.6597Z" fill="white"/>
<path d="M94.68 12.5175V12.2315L98.4458 12.1362V12.4222H98.0692C97.6926 12.4222 97.316 12.6128 97.1277 12.9941C97.0336 13.1847 96.9394 13.5659 96.9394 14.1378L97.0336 18.5222C97.0336 19.5707 96.9395 20.4285 96.7512 21.0004C96.5629 21.5723 96.1863 22.1442 95.5273 22.5254C94.9624 23.002 94.1151 23.1926 92.9854 23.1926C91.8557 23.1926 90.9142 23.002 90.3493 22.6207C89.7845 22.2395 89.3138 21.6676 89.0313 21.0004C88.843 20.5238 88.7489 19.666 88.7489 18.3316L88.6547 14.1378C88.6547 13.4706 88.5606 13.0894 88.3723 12.8034C88.184 12.5175 87.9957 12.6128 87.525 12.6128H87.1484V12.3269L91.7615 12.2315V12.5175H91.3849C90.9142 12.5175 90.6318 12.7081 90.4435 12.9941C90.3493 13.1847 90.2552 13.5659 90.2552 14.1378L90.3493 18.9035C90.3493 19.2848 90.3493 19.7613 90.4435 20.3332C90.5376 20.9051 90.6318 21.2863 90.9142 21.5723C91.1025 21.8582 91.3849 22.1442 91.7615 22.3348C92.1381 22.5254 92.6088 22.6207 93.1737 22.6207C93.8327 22.6207 94.4917 22.4301 95.0566 22.1442C95.6214 21.8582 95.998 21.3817 96.1863 20.9051C96.3746 20.4285 96.4687 19.5707 96.4687 18.5222L96.2804 14.0425C96.2804 13.3753 96.1863 12.9941 95.998 12.8034C95.8097 12.6128 95.5273 12.4222 95.0566 12.5175H94.68Z" fill="white"/>
<path d="M108.331 13.0899L107.86 16.8071H107.578C107.578 16.0446 107.483 15.4727 107.295 15.0915C107.107 14.6149 106.824 14.2337 106.448 13.9477C106.071 13.6618 105.601 13.4712 105.13 13.3758C104.565 13.2805 104.094 13.3758 103.718 13.6618C103.341 13.9477 103.059 14.329 103.059 14.7102C103.059 14.9962 103.059 15.3774 103.247 15.6634C103.529 16.1399 104.188 16.7118 105.318 17.5696C106.26 18.2368 106.824 18.7134 107.201 19.0947C107.483 19.4759 107.766 19.7619 107.86 20.2384C108.048 20.6197 108.048 21.0962 107.954 21.4775C107.86 22.24 107.483 22.9072 106.73 23.4791C106.071 23.9557 105.224 24.1463 104.188 24.051C103.906 24.051 103.624 23.9557 103.341 23.8603C103.153 23.765 102.87 23.6697 102.4 23.4791C101.929 23.2885 101.647 23.0978 101.458 23.0978C101.364 23.0978 101.176 23.0978 101.176 23.1932C101.082 23.2885 100.988 23.3838 100.988 23.6697H100.705L101.176 19.7619H101.458C101.458 20.5244 101.552 21.0962 101.741 21.5728C101.929 22.0494 102.211 22.3353 102.682 22.6213C103.153 22.9072 103.624 23.0978 104.188 23.1932C104.847 23.2885 105.412 23.1932 105.789 22.9072C106.165 22.6213 106.448 22.24 106.542 21.7634C106.542 21.4775 106.542 21.1916 106.448 20.9056C106.354 20.6197 106.165 20.3337 105.883 20.0478C105.695 19.8572 105.224 19.4759 104.377 18.8087C103.529 18.1415 102.87 17.7603 102.588 17.4743C102.306 17.1884 102.023 16.7118 101.835 16.3306C101.647 15.9493 101.647 15.4727 101.647 15.0915C101.741 14.329 102.117 13.7571 102.776 13.2805C103.435 12.804 104.188 12.6133 105.13 12.7086C105.695 12.804 106.26 12.9946 106.824 13.3758C107.107 13.5665 107.295 13.6618 107.389 13.6618C107.483 13.6618 107.672 13.6618 107.766 13.5665C107.86 13.4712 107.954 13.3758 108.048 13.0899H108.331Z" fill="white"/>
</g>
<circle cx="94.4888" cy="94.4888" r="94.0637" stroke="white" stroke-width="0.850035"/>
<defs>
<clipPath id="clip0_154_106">
<rect width="162.681" height="164.702" fill="white" transform="translate(13.1504 12.1377)"/>
</clipPath>
</defs>
</svg>
