<svg width="113" height="80" viewBox="0 0 113 80" fill="none" xmlns="http://www.w3.org/2000/svg">
<path d="M107.364 39.3197C105.834 37.7683 104.061 35.7616 104 33.6313C106.093 36.4871 108.818 37.9227 112.121 39.3197C108.818 40.6549 106.215 42.2371 104 45.0002C104.183 42.7234 105.773 41.0177 107.364 39.3197Z" fill="#0D0D0D"/>
<path d="M4.75667 39.3197C6.28642 37.7683 8.05972 35.7616 8.12061 33.6313C6.02766 36.4871 3.30302 37.9227 -2.95639e-05 39.3197C3.30302 40.6549 5.90589 42.2371 8.12061 45.0002C7.93795 42.7234 6.34731 41.0177 4.75667 39.3197Z" fill="#0D0D0D"/>
<path d="M47.7012 43.5645V34.5H48.9727V45H47.8105L47.7012 43.5645ZM42.7246 41.3838V41.2402C42.7246 40.6751 42.793 40.1624 42.9297 39.7021C43.071 39.2373 43.2692 38.8385 43.5244 38.5059C43.7842 38.1732 44.0918 37.918 44.4473 37.7402C44.8073 37.5579 45.2083 37.4668 45.6504 37.4668C46.1152 37.4668 46.5208 37.5488 46.8672 37.7129C47.2181 37.8724 47.5143 38.1071 47.7559 38.417C48.002 38.7223 48.1956 39.0915 48.3369 39.5244C48.4782 39.9574 48.5762 40.4473 48.6309 40.9941V41.623C48.5807 42.1654 48.4827 42.653 48.3369 43.0859C48.1956 43.5189 48.002 43.888 47.7559 44.1934C47.5143 44.4987 47.2181 44.7334 46.8672 44.8975C46.5163 45.057 46.1061 45.1367 45.6367 45.1367C45.2038 45.1367 44.8073 45.0433 44.4473 44.8564C44.0918 44.6696 43.7842 44.4076 43.5244 44.0703C43.2692 43.7331 43.071 43.3366 42.9297 42.8809C42.793 42.4206 42.7246 41.9215 42.7246 41.3838ZM43.9961 41.2402V41.3838C43.9961 41.7529 44.0326 42.0993 44.1055 42.4229C44.1829 42.7464 44.3014 43.0312 44.4609 43.2773C44.6204 43.5234 44.8232 43.7171 45.0693 43.8584C45.3154 43.9951 45.6094 44.0635 45.9512 44.0635C46.3704 44.0635 46.7145 43.9746 46.9834 43.7969C47.2568 43.6191 47.4756 43.3844 47.6396 43.0928C47.8037 42.8011 47.9313 42.4844 48.0225 42.1426V40.4951C47.9678 40.2445 47.888 40.0029 47.7832 39.7705C47.6829 39.5335 47.5508 39.3239 47.3867 39.1416C47.2272 38.9548 47.029 38.8066 46.792 38.6973C46.5596 38.5879 46.2839 38.5332 45.9648 38.5332C45.6185 38.5332 45.32 38.6061 45.0693 38.752C44.8232 38.8932 44.6204 39.0892 44.4609 39.3398C44.3014 39.5859 44.1829 39.873 44.1055 40.2012C44.0326 40.5247 43.9961 40.8711 43.9961 41.2402ZM52.2061 38.7656V45H50.9414V37.6035H52.1719L52.2061 38.7656ZM54.5166 37.5625L54.5098 38.7383C54.4049 38.7155 54.3047 38.7018 54.209 38.6973C54.1178 38.6882 54.013 38.6836 53.8945 38.6836C53.6029 38.6836 53.3454 38.7292 53.1221 38.8203C52.8988 38.9115 52.7096 39.0391 52.5547 39.2031C52.3997 39.3672 52.2767 39.5632 52.1855 39.791C52.099 40.0143 52.042 40.2604 52.0146 40.5293L51.6592 40.7344C51.6592 40.2878 51.7025 39.8685 51.7891 39.4766C51.8802 39.0846 52.0192 38.7383 52.2061 38.4375C52.3929 38.1322 52.6299 37.8952 52.917 37.7266C53.2087 37.5534 53.555 37.4668 53.9561 37.4668C54.0472 37.4668 54.152 37.4782 54.2705 37.501C54.389 37.5192 54.471 37.5397 54.5166 37.5625ZM59.7734 43.7354V39.9277C59.7734 39.6361 59.7142 39.3831 59.5957 39.1689C59.4818 38.9502 59.3086 38.7816 59.0762 38.6631C58.8438 38.5446 58.5566 38.4854 58.2148 38.4854C57.8958 38.4854 57.6156 38.54 57.374 38.6494C57.137 38.7588 56.9502 38.9023 56.8135 39.0801C56.6813 39.2578 56.6152 39.4492 56.6152 39.6543H55.3506C55.3506 39.39 55.4189 39.1279 55.5557 38.8682C55.6924 38.6084 55.8883 38.3737 56.1436 38.1641C56.4033 37.9499 56.7132 37.7812 57.0732 37.6582C57.4378 37.5306 57.8434 37.4668 58.29 37.4668C58.8278 37.4668 59.3018 37.5579 59.7119 37.7402C60.1266 37.9225 60.4502 38.1982 60.6826 38.5674C60.9196 38.932 61.0381 39.39 61.0381 39.9414V43.3867C61.0381 43.6328 61.0586 43.8949 61.0996 44.1729C61.1452 44.4508 61.2113 44.6901 61.2979 44.8906V45H59.9785C59.9147 44.8542 59.8646 44.6605 59.8281 44.4189C59.7917 44.1729 59.7734 43.945 59.7734 43.7354ZM59.9922 40.5156L60.0059 41.4043H58.7275C58.3675 41.4043 58.0462 41.4339 57.7637 41.4932C57.4811 41.5479 57.2441 41.6322 57.0527 41.7461C56.8613 41.86 56.7155 42.0036 56.6152 42.1768C56.515 42.3454 56.4648 42.5436 56.4648 42.7715C56.4648 43.0039 56.5173 43.2158 56.6221 43.4072C56.7269 43.5986 56.8841 43.7513 57.0938 43.8652C57.3079 43.9746 57.57 44.0293 57.8799 44.0293C58.2673 44.0293 58.609 43.9473 58.9053 43.7832C59.2015 43.6191 59.4362 43.4186 59.6094 43.1816C59.7871 42.9447 59.8828 42.7145 59.8965 42.4912L60.4365 43.0996C60.4046 43.291 60.318 43.5029 60.1768 43.7354C60.0355 43.9678 59.8464 44.1911 59.6094 44.4053C59.377 44.6149 59.099 44.7904 58.7754 44.9316C58.4564 45.0684 58.0964 45.1367 57.6953 45.1367C57.194 45.1367 56.7542 45.0387 56.376 44.8428C56.0023 44.6468 55.7106 44.3848 55.501 44.0566C55.2959 43.724 55.1934 43.3525 55.1934 42.9424C55.1934 42.5459 55.2708 42.1973 55.4258 41.8965C55.5807 41.5911 55.804 41.3382 56.0957 41.1377C56.3874 40.9326 56.7383 40.7777 57.1484 40.6729C57.5586 40.568 58.0166 40.5156 58.5225 40.5156H59.9922ZM67.8193 37.6035H68.9678V44.8428C68.9678 45.4945 68.8356 46.0505 68.5713 46.5107C68.307 46.971 67.9378 47.3197 67.4639 47.5566C66.9945 47.7982 66.4521 47.9189 65.8369 47.9189C65.5817 47.9189 65.2809 47.8779 64.9346 47.7959C64.5928 47.7184 64.2555 47.584 63.9229 47.3926C63.5947 47.2057 63.319 46.9528 63.0957 46.6338L63.7588 45.8818C64.0687 46.2555 64.3923 46.5153 64.7295 46.6611C65.0713 46.807 65.4085 46.8799 65.7412 46.8799C66.1423 46.8799 66.4886 46.8047 66.7803 46.6543C67.0719 46.5039 67.2975 46.2806 67.457 45.9844C67.6211 45.6927 67.7031 45.3327 67.7031 44.9043V39.2305L67.8193 37.6035ZM62.7266 41.3838V41.2402C62.7266 40.6751 62.7926 40.1624 62.9248 39.7021C63.0615 39.2373 63.2552 38.8385 63.5059 38.5059C63.7611 38.1732 64.0687 37.918 64.4287 37.7402C64.7887 37.5579 65.1943 37.4668 65.6455 37.4668C66.1104 37.4668 66.516 37.5488 66.8623 37.7129C67.2132 37.8724 67.5094 38.1071 67.751 38.417C67.9971 38.7223 68.1908 39.0915 68.332 39.5244C68.4733 39.9574 68.5713 40.4473 68.626 40.9941V41.623C68.5758 42.1654 68.4779 42.653 68.332 43.0859C68.1908 43.5189 67.9971 43.888 67.751 44.1934C67.5094 44.4987 67.2132 44.7334 66.8623 44.8975C66.5114 45.057 66.1012 45.1367 65.6318 45.1367C65.1898 45.1367 64.7887 45.0433 64.4287 44.8564C64.0732 44.6696 63.7679 44.4076 63.5127 44.0703C63.2575 43.7331 63.0615 43.3366 62.9248 42.8809C62.7926 42.4206 62.7266 41.9215 62.7266 41.3838ZM63.9912 41.2402V41.3838C63.9912 41.7529 64.0277 42.0993 64.1006 42.4229C64.1781 42.7464 64.2943 43.0312 64.4492 43.2773C64.6087 43.5234 64.8115 43.7171 65.0576 43.8584C65.3037 43.9951 65.5977 44.0635 65.9395 44.0635C66.3587 44.0635 66.7051 43.9746 66.9785 43.7969C67.252 43.6191 67.4684 43.3844 67.6279 43.0928C67.792 42.8011 67.9196 42.4844 68.0107 42.1426V40.4951C67.9606 40.2445 67.8831 40.0029 67.7783 39.7705C67.6781 39.5335 67.5459 39.3239 67.3818 39.1416C67.2223 38.9548 67.0241 38.8066 66.7871 38.6973C66.5501 38.5879 66.2721 38.5332 65.9531 38.5332C65.6068 38.5332 65.3083 38.6061 65.0576 38.752C64.8115 38.8932 64.6087 39.0892 64.4492 39.3398C64.2943 39.5859 64.1781 39.873 64.1006 40.2012C64.0277 40.5247 63.9912 40.8711 63.9912 41.2402Z" fill="#0D0D0D"/>
<circle cx="56" cy="40" r="39.5" stroke="#0D0D0D"/>
</svg>
