<svg width="80" height="80" viewBox="0 0 80 80" fill="none" xmlns="http://www.w3.org/2000/svg">
<path d="M28.6445 35.8584L30.668 29.6035H31.96L29.3008 37H28.4531L28.6445 35.8584ZM26.9561 29.6035L29.041 35.8926L29.1846 37H28.3369L25.6572 29.6035H26.9561ZM34.5508 29.6035V37H33.2793V29.6035H34.5508ZM33.1836 27.6416C33.1836 27.4365 33.2451 27.2633 33.3682 27.1221C33.4958 26.9808 33.6826 26.9102 33.9287 26.9102C34.1702 26.9102 34.3548 26.9808 34.4824 27.1221C34.6146 27.2633 34.6807 27.4365 34.6807 27.6416C34.6807 27.8376 34.6146 28.0062 34.4824 28.1475C34.3548 28.2842 34.1702 28.3525 33.9287 28.3525C33.6826 28.3525 33.4958 28.2842 33.3682 28.1475C33.2451 28.0062 33.1836 27.8376 33.1836 27.6416ZM39.6504 37.1367C39.1354 37.1367 38.6683 37.0501 38.249 36.877C37.8343 36.6992 37.4766 36.4508 37.1758 36.1318C36.8796 35.8128 36.6517 35.4346 36.4922 34.9971C36.3327 34.5596 36.2529 34.0811 36.2529 33.5615V33.2744C36.2529 32.6729 36.3418 32.1374 36.5195 31.668C36.6973 31.194 36.9388 30.793 37.2441 30.4648C37.5495 30.1367 37.8958 29.8883 38.2832 29.7197C38.6706 29.5511 39.0716 29.4668 39.4863 29.4668C40.015 29.4668 40.4707 29.5579 40.8535 29.7402C41.2409 29.9225 41.5576 30.1777 41.8037 30.5059C42.0498 30.8294 42.2321 31.2122 42.3506 31.6543C42.4691 32.0918 42.5283 32.5703 42.5283 33.0898V33.6572H37.0049V32.625H41.2637V32.5293C41.2454 32.2012 41.1771 31.8822 41.0586 31.5723C40.9447 31.2624 40.7624 31.0072 40.5117 30.8066C40.2611 30.6061 39.9193 30.5059 39.4863 30.5059C39.1992 30.5059 38.9349 30.5674 38.6934 30.6904C38.4518 30.8089 38.2445 30.9867 38.0713 31.2236C37.8981 31.4606 37.7637 31.75 37.668 32.0918C37.5723 32.4336 37.5244 32.8278 37.5244 33.2744V33.5615C37.5244 33.9124 37.5723 34.2428 37.668 34.5527C37.7682 34.8581 37.9118 35.127 38.0986 35.3594C38.29 35.5918 38.5202 35.7741 38.7891 35.9062C39.0625 36.0384 39.3724 36.1045 39.7188 36.1045C40.1654 36.1045 40.5436 36.0133 40.8535 35.8311C41.1634 35.6488 41.4346 35.4049 41.667 35.0996L42.4326 35.708C42.2731 35.9495 42.0703 36.1797 41.8242 36.3984C41.5781 36.6172 41.2751 36.7949 40.915 36.9316C40.5596 37.0684 40.138 37.1367 39.6504 37.1367ZM45.8779 35.6875L47.7783 29.6035H48.6123L48.4482 30.8135L46.5137 37H45.7002L45.8779 35.6875ZM44.5996 29.6035L46.2197 35.7559L46.3359 37H45.4814L43.335 29.6035H44.5996ZM50.4307 35.708L51.9756 29.6035H53.2334L51.0869 37H50.2393L50.4307 35.708ZM48.7969 29.6035L50.6562 35.585L50.8682 37H50.0615L48.0723 30.7998L47.9082 29.6035H48.7969ZM25.5752 47.0732V53H24.3037V45.6035H25.5068L25.5752 47.0732ZM25.3154 49.0215L24.7275 49.001C24.7321 48.4951 24.7982 48.028 24.9258 47.5996C25.0534 47.1667 25.2425 46.7907 25.4932 46.4717C25.7438 46.1527 26.056 45.9066 26.4297 45.7334C26.8034 45.5557 27.2363 45.4668 27.7285 45.4668C28.0749 45.4668 28.3939 45.5169 28.6855 45.6172C28.9772 45.7129 29.2301 45.8656 29.4443 46.0752C29.6585 46.2848 29.8249 46.5537 29.9434 46.8818C30.0618 47.21 30.1211 47.6064 30.1211 48.0713V53H28.8564V48.1328C28.8564 47.7454 28.7904 47.4355 28.6582 47.2031C28.5306 46.9707 28.3483 46.8021 28.1113 46.6973C27.8743 46.5879 27.5964 46.5332 27.2773 46.5332C26.9036 46.5332 26.5915 46.5993 26.3408 46.7314C26.0902 46.8636 25.8896 47.0459 25.7393 47.2783C25.5889 47.5107 25.4795 47.7773 25.4111 48.0781C25.3473 48.3743 25.3154 48.6888 25.3154 49.0215ZM30.1074 48.3242L29.2598 48.584C29.2643 48.1784 29.3304 47.7887 29.458 47.415C29.5902 47.0413 29.7793 46.7087 30.0254 46.417C30.276 46.1253 30.5837 45.8952 30.9482 45.7266C31.3128 45.5534 31.7298 45.4668 32.1992 45.4668C32.5957 45.4668 32.9466 45.5192 33.252 45.624C33.5618 45.7288 33.8216 45.8906 34.0312 46.1094C34.2454 46.3236 34.4072 46.5993 34.5166 46.9365C34.626 47.2738 34.6807 47.6748 34.6807 48.1396V53H33.4092V48.126C33.4092 47.7113 33.3431 47.39 33.2109 47.1621C33.0833 46.9297 32.901 46.7679 32.6641 46.6768C32.4316 46.5811 32.1536 46.5332 31.8301 46.5332C31.5521 46.5332 31.306 46.5811 31.0918 46.6768C30.8776 46.7725 30.6976 46.9046 30.5518 47.0732C30.4059 47.2373 30.2943 47.4264 30.2168 47.6406C30.1439 47.8548 30.1074 48.0827 30.1074 48.3242ZM36.2598 49.3838V49.2266C36.2598 48.6934 36.3372 48.1989 36.4922 47.7432C36.6471 47.2829 36.8704 46.8841 37.1621 46.5469C37.4538 46.2051 37.807 45.9408 38.2217 45.7539C38.6364 45.5625 39.1012 45.4668 39.6162 45.4668C40.1357 45.4668 40.6029 45.5625 41.0176 45.7539C41.4368 45.9408 41.7923 46.2051 42.084 46.5469C42.3802 46.8841 42.6058 47.2829 42.7607 47.7432C42.9157 48.1989 42.9932 48.6934 42.9932 49.2266V49.3838C42.9932 49.917 42.9157 50.4115 42.7607 50.8672C42.6058 51.3229 42.3802 51.7217 42.084 52.0635C41.7923 52.4007 41.4391 52.665 41.0244 52.8564C40.6143 53.0433 40.1494 53.1367 39.6299 53.1367C39.1104 53.1367 38.6432 53.0433 38.2285 52.8564C37.8138 52.665 37.4583 52.4007 37.1621 52.0635C36.8704 51.7217 36.6471 51.3229 36.4922 50.8672C36.3372 50.4115 36.2598 49.917 36.2598 49.3838ZM37.5244 49.2266V49.3838C37.5244 49.7529 37.5677 50.1016 37.6543 50.4297C37.7409 50.7533 37.8708 51.0404 38.0439 51.291C38.2217 51.5417 38.4427 51.7399 38.707 51.8857C38.9714 52.027 39.279 52.0977 39.6299 52.0977C39.9762 52.0977 40.2793 52.027 40.5391 51.8857C40.8034 51.7399 41.0221 51.5417 41.1953 51.291C41.3685 51.0404 41.4984 50.7533 41.585 50.4297C41.6761 50.1016 41.7217 49.7529 41.7217 49.3838V49.2266C41.7217 48.862 41.6761 48.5179 41.585 48.1943C41.4984 47.8662 41.3662 47.5768 41.1885 47.3262C41.0153 47.071 40.7965 46.8704 40.5322 46.7246C40.2725 46.5788 39.9671 46.5059 39.6162 46.5059C39.2699 46.5059 38.9645 46.5788 38.7002 46.7246C38.4404 46.8704 38.2217 47.071 38.0439 47.3262C37.8708 47.5768 37.7409 47.8662 37.6543 48.1943C37.5677 48.5179 37.5244 48.862 37.5244 49.2266ZM45.8438 46.7656V53H44.5791V45.6035H45.8096L45.8438 46.7656ZM48.1543 45.5625L48.1475 46.7383C48.0426 46.7155 47.9424 46.7018 47.8467 46.6973C47.7555 46.6882 47.6507 46.6836 47.5322 46.6836C47.2406 46.6836 46.9831 46.7292 46.7598 46.8203C46.5365 46.9115 46.3473 47.0391 46.1924 47.2031C46.0374 47.3672 45.9144 47.5632 45.8232 47.791C45.7367 48.0143 45.6797 48.2604 45.6523 48.5293L45.2969 48.7344C45.2969 48.2878 45.3402 47.8685 45.4268 47.4766C45.5179 47.0846 45.6569 46.7383 45.8438 46.4375C46.0306 46.1322 46.2676 45.8952 46.5547 45.7266C46.8464 45.5534 47.1927 45.4668 47.5938 45.4668C47.6849 45.4668 47.7897 45.4782 47.9082 45.501C48.0267 45.5192 48.1087 45.5397 48.1543 45.5625ZM52.2559 53.1367C51.7409 53.1367 51.2738 53.0501 50.8545 52.877C50.4398 52.6992 50.082 52.4508 49.7812 52.1318C49.485 51.8128 49.2572 51.4346 49.0977 50.9971C48.9382 50.5596 48.8584 50.0811 48.8584 49.5615V49.2744C48.8584 48.6729 48.9473 48.1374 49.125 47.668C49.3027 47.194 49.5443 46.793 49.8496 46.4648C50.1549 46.1367 50.5013 45.8883 50.8887 45.7197C51.276 45.5511 51.6771 45.4668 52.0918 45.4668C52.6204 45.4668 53.0762 45.5579 53.459 45.7402C53.8464 45.9225 54.1631 46.1777 54.4092 46.5059C54.6553 46.8294 54.8376 47.2122 54.9561 47.6543C55.0745 48.0918 55.1338 48.5703 55.1338 49.0898V49.6572H49.6104V48.625H53.8691V48.5293C53.8509 48.2012 53.7826 47.8822 53.6641 47.5723C53.5501 47.2624 53.3678 47.0072 53.1172 46.8066C52.8665 46.6061 52.5247 46.5059 52.0918 46.5059C51.8047 46.5059 51.5404 46.5674 51.2988 46.6904C51.0573 46.8089 50.8499 46.9867 50.6768 47.2236C50.5036 47.4606 50.3691 47.75 50.2734 48.0918C50.1777 48.4336 50.1299 48.8278 50.1299 49.2744V49.5615C50.1299 49.9124 50.1777 50.2428 50.2734 50.5527C50.3737 50.8581 50.5173 51.127 50.7041 51.3594C50.8955 51.5918 51.1257 51.7741 51.3945 51.9062C51.668 52.0384 51.9779 52.1045 52.3242 52.1045C52.7708 52.1045 53.1491 52.0133 53.459 51.8311C53.7689 51.6488 54.04 51.4049 54.2725 51.0996L55.0381 51.708C54.8786 51.9495 54.6758 52.1797 54.4297 52.3984C54.1836 52.6172 53.8805 52.7949 53.5205 52.9316C53.165 53.0684 52.7435 53.1367 52.2559 53.1367Z" fill="#0D0D0D"/>
<circle cx="40" cy="40" r="39.5" stroke="#0D0D0D"/>
</svg>
