<svg width="41" height="33" viewBox="0 0 41 33" fill="none" xmlns="http://www.w3.org/2000/svg">
<path d="M20.5547 30.3477C12.8547 30.3477 6.55469 24.0477 6.55469 16.3477H10.5547L5.55469 10.8477L0.554688 16.3477H4.55469C4.55469 25.1477 11.7547 32.3477 20.5547 32.3477C26.2547 32.3477 31.3547 29.3477 34.1547 24.7477L32.7547 23.2477C30.3547 27.4477 25.7547 30.3477 20.5547 30.3477ZM36.5547 16.3477C36.5547 7.54766 29.3547 0.347656 20.5547 0.347656C14.8547 0.347656 9.75469 3.34766 6.95469 7.94766L8.35469 9.44766C10.7547 5.24766 15.3547 2.34766 20.5547 2.34766C28.2547 2.34766 34.5547 8.64766 34.5547 16.3477H30.5547L35.5547 21.8477L40.5547 16.3477H36.5547Z" fill="#A0A0A0"/>
</svg>
