<svg width="333" height="80" viewBox="0 0 333 80" fill="none" xmlns="http://www.w3.org/2000/svg">
<g filter="url(#filter0_d_889_2)">
<path d="M4 24C4 12.9543 12.9543 4 24 4H301C312.046 4 321 12.9543 321 24V48C321 59.0457 312.046 68 301 68H4V24Z" fill="white"/>
</g>
<g opacity="0.6">
<path d="M30.0262 47C36.0866 47 40.9996 42.087 40.9996 36.0265C40.9996 29.9661 36.0866 25.0531 30.0262 25.0531C23.9657 25.0531 19.0527 29.9661 19.0527 36.0265C19.0527 42.087 23.9657 47 30.0262 47Z" fill="#0D0D0D"/>
<path d="M30.0259 28.1677C28.9234 28.1677 28.0528 29.1011 28.132 30.2009L28.7433 38.7454C28.7924 39.4195 29.3518 39.9408 30.0259 39.9408C30.7 39.9408 31.2594 39.4195 31.3085 38.7454L31.9198 30.2009C31.999 29.1038 31.1284 28.1677 30.0259 28.1677Z" fill="#F9F9F9"/>
<path d="M30.0269 44.0428C30.8739 44.0428 31.5606 43.3561 31.5606 42.5091C31.5606 41.662 30.8739 40.9753 30.0269 40.9753C29.1798 40.9753 28.4932 41.662 28.4932 42.5091C28.4932 43.3561 29.1798 44.0428 30.0269 44.0428Z" fill="#F9F9F9"/>
</g>
<path opacity="0.6" d="M54.262 29.894H61.71V27.22H53.1V28.046H60.576V29.096H53.128V31.896H62.102V31.056H54.262V29.894ZM58.014 25.386V24.364H61.892V23.538H54.332V22.446H61.668V19.828H53.17V20.64H60.534V21.662H53.198V24.364H56.852V25.386H51.728V26.254H63.124V25.386H58.014ZM66.2169 25.036H70.6689V20.64H65.0549V21.578H69.5489V24.112H65.0829V29.026H66.0489C68.3169 29.026 69.9129 28.956 71.8029 28.62L71.6909 27.668C69.8849 27.99 68.3589 28.074 66.2169 28.074V25.036ZM73.8049 19.464V24.308H71.4109V25.246H73.8049V32.05H74.9529V19.464H73.8049ZM86.2918 21.676H78.9558V24.364H87.6498V23.538H80.0898V22.46H87.4258V19.842H78.9278V20.654H86.2918V21.676ZM80.0198 29.88H87.4678V27.206H78.8578V28.032H86.3338V29.082H78.8858V31.868H87.8598V31.042H80.0198V29.88ZM77.4998 25.316V26.184H88.8818V25.316H77.4998ZM103.576 25.498H96.0856V21.578H103.45V20.626H94.9516V26.436H103.576V25.498ZM93.4956 29.39V30.342H104.892V29.39H93.4956ZM107.914 25.26H111.484V20.85H106.766V21.788H110.364V24.322H106.808V29.026H107.634C109.188 29.026 110.602 28.97 112.338 28.676L112.254 27.724C110.658 28.004 109.342 28.06 107.914 28.074V25.26ZM115.95 19.478V24.434H114.172V19.758H113.094V31.392H114.172V25.372H115.95V32.022H117.056V19.478H115.95ZM127.975 22.068C127.975 23.622 127.975 25.498 127.471 28.06L128.619 28.186C129.109 25.47 129.109 23.664 129.109 22.068V20.822H128.577V20.808H120.499V21.746H127.975V22.068ZM119.281 29.25V30.202H130.635V29.25H119.281ZM135.828 28.284C134.694 28.284 133.868 27.472 133.868 26.352C133.868 25.218 134.694 24.406 135.828 24.406C136.976 24.406 137.802 25.218 137.802 26.352C137.802 27.472 136.976 28.284 135.828 28.284ZM135.828 23.454C134.064 23.454 132.79 24.658 132.79 26.352C132.79 28.06 134.064 29.236 135.828 29.236C137.62 29.236 138.894 28.06 138.894 26.352C138.894 24.658 137.62 23.454 135.828 23.454ZM136.388 19.632H135.24V21.494H132.076V22.418H139.482V21.494H136.388V19.632ZM143.878 24.644H141.82V19.492H140.672V32.036H141.82V25.61H143.878V24.644ZM150.205 25.526H146.733V21.494H150.205V25.526ZM154.209 22.628V24.378H151.325V22.628H154.209ZM151.325 25.316H154.209V28.648H155.371V19.492H154.209V21.69H151.325V20.584H145.599V26.436H151.325V25.316ZM148.441 30.818V27.836H147.293V31.756H155.665V30.818H148.441ZM165.431 20.556H164.283V22.81C164.283 25.134 162.855 27.556 161.035 28.466L161.735 29.376C163.149 28.62 164.311 27.038 164.857 25.176C165.431 26.94 166.579 28.438 168.007 29.152L168.679 28.242C166.859 27.374 165.431 25.092 165.431 22.81V20.556ZM170.233 19.478V23.734H167.321V24.672H170.233V32.05H171.381V19.478H170.233ZM179.584 20.486C181.642 20.486 182.818 20.962 182.818 21.802C182.818 22.642 181.642 23.118 179.584 23.118C177.526 23.118 176.35 22.642 176.35 21.802C176.35 20.962 177.526 20.486 179.584 20.486ZM179.584 23.972C182.356 23.972 183.994 23.216 183.994 21.802C183.994 20.388 182.356 19.618 179.584 19.618C176.826 19.618 175.174 20.388 175.174 21.802C175.174 23.216 176.826 23.972 179.584 23.972ZM185.254 25.722V24.798H173.914V25.722H179.01V26.898H175.286V27.766H182.678V28.886H175.314V31.896H184.19V31H176.434V29.726H183.812V26.898H180.158V25.722H185.254ZM188.739 28.564H195.977V32.05H197.139V27.626H188.739V28.564ZM193.079 24.042V22.432H195.977V24.042H193.079ZM191.945 25.316H188.557V23.202H191.945V25.316ZM195.977 19.492V21.494H193.079V20.234H191.945V22.292H188.557V20.234H187.423V26.24H193.079V24.98H195.977V26.954H197.139V19.492H195.977ZM204.152 21.718H207.106V20.766H200.092V21.718H203.004V23.314C203.004 25.484 201.478 27.85 199.672 28.704L200.344 29.628C201.772 28.9 203.004 27.318 203.578 25.484C204.18 27.206 205.412 28.648 206.868 29.32L207.512 28.396C205.664 27.612 204.152 25.442 204.152 23.314V21.718ZM208.8 19.492V32.036H209.948V19.492H208.8ZM216.625 20.402C214.679 20.402 213.265 21.592 213.265 23.356C213.265 25.106 214.679 26.31 216.625 26.31C218.585 26.31 219.985 25.106 219.985 23.356C219.985 21.592 218.585 20.402 216.625 20.402ZM216.625 21.382C217.927 21.382 218.865 22.18 218.865 23.356C218.865 24.518 217.927 25.33 216.625 25.33C215.323 25.33 214.385 24.518 214.385 23.356C214.385 22.18 215.323 21.382 216.625 21.382ZM221.637 19.478V32.064H222.785V19.478H221.637ZM212.775 29.306C215.043 29.306 218.081 29.292 220.909 28.76L220.811 27.906C218.067 28.326 214.917 28.34 212.635 28.34L212.775 29.306ZM239.382 25.792C237.184 25.372 234.804 23.468 234.804 21.326V20.36H233.6V21.326C233.6 23.468 231.234 25.358 229.036 25.792L229.554 26.744C231.444 26.296 233.404 24.952 234.202 23.118C235 24.966 236.96 26.31 238.864 26.744L239.382 25.792ZM228.56 29.404V30.356H239.942V29.404H228.56ZM243.133 25.064H247.557V24.14H243.133V21.55H247.837V20.612H241.985V29.012H242.965C245.331 29.012 246.955 28.928 248.887 28.592L248.775 27.668C246.927 27.976 245.359 28.074 243.133 28.074V25.064ZM253.171 24.518H251.099V19.478H249.951V32.022H251.099V25.484H253.171V24.518ZM264.622 19.478H263.474V25.918H264.622V19.478ZM255.718 22.726C255.718 21.634 256.628 20.864 257.846 20.864C259.078 20.864 259.974 21.634 259.974 22.726C259.974 23.804 259.078 24.574 257.846 24.574C256.628 24.574 255.718 23.804 255.718 22.726ZM261.094 22.726C261.094 21.06 259.722 19.926 257.846 19.926C255.97 19.926 254.612 21.06 254.612 22.726C254.612 24.378 255.97 25.498 257.846 25.498C259.722 25.498 261.094 24.378 261.094 22.726ZM257.65 30.958V29.572H264.622V26.534H256.488V27.444H263.488V28.718H256.516V31.868H265.042V30.958H257.65ZM277.501 19.478H276.353V27.206H277.501V19.478ZM274.827 25.106C272.839 25.428 271.201 25.498 268.975 25.498V23.734H273.525V20.262H267.813V21.2H272.391V22.852H267.855V26.436H268.863C271.187 26.436 272.895 26.366 274.953 26.03L274.827 25.106ZM273.343 31.112C271.439 31.112 270.291 30.608 270.291 29.74C270.291 28.886 271.439 28.382 273.343 28.382C275.275 28.382 276.423 28.886 276.423 29.74C276.423 30.608 275.275 31.112 273.343 31.112ZM273.343 27.472C270.739 27.472 269.143 28.298 269.143 29.74C269.143 31.196 270.739 32.022 273.343 32.022C275.961 32.022 277.571 31.196 277.571 29.74C277.571 28.298 275.961 27.472 273.343 27.472ZM287.79 24.77C286.04 25.078 284.556 25.134 281.938 25.134V23.524H286.432V22.614H281.938V21.102H286.782V20.164H280.79V26.044H281.812C284.556 26.044 286.082 26.002 287.916 25.694L287.79 24.77ZM289.246 30.93H283.422V29.404H289.246V30.93ZM289.246 28.494H283.422V27.08H282.288V31.868H290.38V27.08H289.246V28.494ZM289.232 19.492V26.478H290.38V19.492H289.232ZM298.625 20.556C300.683 20.556 301.859 21.032 301.859 21.872C301.859 22.712 300.683 23.188 298.625 23.188C296.567 23.188 295.391 22.712 295.391 21.872C295.391 21.032 296.567 20.556 298.625 20.556ZM298.625 24.042C301.383 24.042 303.035 23.286 303.035 21.872C303.035 20.458 301.383 19.688 298.625 19.688C295.867 19.688 294.215 20.458 294.215 21.872C294.215 23.286 295.867 24.042 298.625 24.042ZM295.475 29.726H302.853V26.898H294.313V27.766H301.719V28.886H294.355V31.896H303.231V31H295.475V29.726ZM292.941 24.896V25.82H304.309V24.896H292.941ZM55.97 42.718H58.756V41.766H51.966V42.718H54.836V44.314C54.836 46.442 53.324 48.822 51.532 49.718L52.204 50.628C53.618 49.9 54.836 48.304 55.41 46.47C55.984 48.15 57.16 49.62 58.56 50.32L59.218 49.396C57.398 48.542 55.97 46.316 55.97 44.314V42.718ZM63.474 45.546H61.402V40.492H60.254V53.036H61.402V46.512H63.474V45.546ZM68.3449 41.668H67.2389V44.062C67.2389 46.218 66.2029 48.472 64.4809 49.48L65.1949 50.348C66.4409 49.578 67.3509 48.15 67.7989 46.484C68.2469 48.01 69.0869 49.34 70.2769 50.068L70.9349 49.172C69.2829 48.164 68.3449 46.036 68.3449 44.02V41.668ZM71.6489 44.986H69.5769V45.938H71.6489V52.42H72.7269V40.758H71.6489V44.986ZM74.1969 40.478V53.036H75.2889V40.478H74.1969ZM81.5598 49.284C80.3978 49.284 79.5578 48.472 79.5578 47.338C79.5578 46.218 80.3978 45.406 81.5598 45.406C82.7218 45.406 83.5758 46.218 83.5758 47.338C83.5758 48.472 82.7218 49.284 81.5598 49.284ZM81.5598 44.454C79.7678 44.454 78.4658 45.644 78.4658 47.338C78.4658 49.06 79.7678 50.236 81.5598 50.236C83.3798 50.236 84.6678 49.06 84.6678 47.338C84.6678 45.644 83.3798 44.454 81.5598 44.454ZM82.1198 40.618H80.9718V42.508H77.7798V43.446H85.3118V42.508H82.1198V40.618ZM86.6278 40.478V53.036H87.7758V40.478H86.6278ZM96.0296 50.796H103.408V47.996H94.8676V48.864H102.274V49.956H94.9096V52.896H103.786V52.014H96.0296V50.796ZM96.1416 42.732H102.246V43.936H96.1416V42.732ZM99.7536 46.022V44.818H103.38V40.674H102.246V41.864H96.1416V40.674H95.0076V44.818H98.6056V46.022H93.4956V46.946H104.864V46.022H99.7536ZM120.327 45.266C118.045 44.93 115.805 43.376 115.805 41.626V40.926H114.601V41.626C114.601 43.418 112.389 44.93 110.107 45.266L110.569 46.19C112.529 45.854 114.419 44.776 115.203 43.25C116.015 44.762 117.905 45.854 119.851 46.19L120.327 45.266ZM120.873 47.548H109.533V48.5H114.601V53.05H115.749V48.5H120.887L120.873 47.548ZM135.833 40.492H134.685V47.66H135.833V40.492ZM129.085 42.172C130.331 42.172 131.255 42.998 131.255 44.146C131.255 45.308 130.331 46.12 129.085 46.12C127.839 46.12 126.943 45.308 126.943 44.146C126.943 42.998 127.839 42.172 129.085 42.172ZM129.085 47.072C130.989 47.072 132.375 45.882 132.375 44.146C132.375 42.41 130.989 41.22 129.085 41.22C127.195 41.22 125.823 42.41 125.823 44.146C125.823 45.882 127.195 47.072 129.085 47.072ZM134.433 48.206H133.313V48.878C133.313 49.858 132.711 51.118 131.507 51.86C130.345 51.174 129.771 49.984 129.771 48.878V48.206H128.665V48.878C128.665 50.082 127.727 51.44 126.145 52L126.719 52.868C127.895 52.42 128.749 51.552 129.197 50.544C129.575 51.594 130.331 52.504 131.535 52.98C132.697 52.476 133.467 51.524 133.859 50.502C134.279 51.552 135.147 52.42 136.379 52.868L136.953 52C135.357 51.468 134.433 50.18 134.433 48.878V48.206ZM149.118 44.398C146.892 44.118 144.68 42.732 144.68 41.178V40.618H143.504V41.178C143.504 42.774 141.306 44.118 139.052 44.398L139.472 45.322C141.432 45.014 143.308 44.034 144.092 42.634C144.89 44.034 146.752 45.014 148.698 45.322L149.118 44.398ZM147.144 51.944H140.97V50.348H147.144V51.944ZM147.144 49.466H140.97V47.996H139.836V52.868H148.278V47.996H147.144V49.466ZM138.394 46.204V47.128H149.762V46.204H138.394ZM153.219 41.696H152.071V49.788H153.107C155.109 49.788 157.083 49.648 159.267 49.2L159.141 48.22C157.055 48.64 155.109 48.808 153.219 48.808V41.696ZM160.429 40.478V53.022H161.577V40.478H160.429ZM165.846 42.634H170.536V41.682H164.698V49.928H165.692C168.058 49.928 169.71 49.844 171.628 49.48L171.502 48.528C169.682 48.85 168.072 48.948 165.846 48.948V42.634ZM175.898 45.434H173.826V40.478H172.678V53.064H173.826V46.386H175.898V45.434ZM178.249 52.182C178.753 52.182 179.173 51.79 179.173 51.216C179.173 50.642 178.753 50.222 178.249 50.222C177.745 50.222 177.325 50.642 177.325 51.216C177.325 51.79 177.745 52.182 178.249 52.182Z" fill="#0D0D0D"/>
<defs>
<filter id="filter0_d_889_2" x="0" y="0" width="333" height="80" filterUnits="userSpaceOnUse" color-interpolation-filters="sRGB">
<feFlood flood-opacity="0" result="BackgroundImageFix"/>
<feColorMatrix in="SourceAlpha" type="matrix" values="0 0 0 0 0 0 0 0 0 0 0 0 0 0 0 0 0 0 127 0" result="hardAlpha"/>
<feOffset dx="4" dy="4"/>
<feGaussianBlur stdDeviation="4"/>
<feComposite in2="hardAlpha" operator="out"/>
<feColorMatrix type="matrix" values="0 0 0 0 0 0 0 0 0 0 0 0 0 0 0 0 0 0 0.1 0"/>
<feBlend mode="normal" in2="BackgroundImageFix" result="effect1_dropShadow_889_2"/>
<feBlend mode="normal" in="SourceGraphic" in2="effect1_dropShadow_889_2" result="shape"/>
</filter>
</defs>
</svg>
