<svg width="37" height="32" viewBox="0 0 37 32" fill="none" xmlns="http://www.w3.org/2000/svg">
<path d="M18.5071 31.9414L18.1741 31.8061C15.5931 30.7029 11.2845 27.8826 7.46504 24.0736C4.44695 21.0659 0.835654 16.5387 0.741989 12.0324C0.575473 3.82113 6.04966 0.584493 10.7849 0.303498C13.3139 0.157797 15.9053 1.11526 18.4967 3.16548C21.0985 1.12567 23.6899 0.157797 26.2188 0.303498C30.9541 0.574086 36.4283 3.82113 36.2618 12.0324C36.1681 16.5387 32.5568 21.0659 29.5387 24.0632C25.7193 27.8722 21.4107 30.6925 18.8297 31.7957L18.5071 31.9414ZM11.2949 1.54196C11.1492 1.54196 11.0035 1.54196 10.8578 1.55236C6.47636 1.81254 1.84515 4.69534 1.99085 12.0116C2.0533 15.1962 4.31166 19.1718 8.33925 23.1889C11.961 26.8002 16.0094 29.4853 18.4967 30.5885C20.984 29.4853 25.0324 26.8002 28.6541 23.1889C32.6817 19.1718 34.9401 15.2066 35.0025 12.0116C35.1482 4.69534 30.517 1.81254 26.1356 1.55236C22.6179 1.34422 19.8184 3.67543 18.8922 4.44557L18.4967 4.7786L18.1012 4.44557C17.2166 3.71706 14.6044 1.54196 11.2949 1.54196Z" fill="#0D0D0D"/>
</svg>
