<svg width="97" height="80" viewBox="0 0 97 80" fill="none" xmlns="http://www.w3.org/2000/svg">
<path d="M91.3639 39.6883C89.8342 38.1369 88.0609 36.1302 88 34C90.0929 36.8557 92.8176 38.2913 96.1206 39.6883C92.8176 41.0236 90.2147 42.6058 88 45.3689C88.1827 43.092 89.7733 41.3863 91.3639 39.6883Z" fill="#0D0D0D"/>
<path d="M28.3848 39.1826V45H27.1201V37.6035H28.3164L28.3848 39.1826ZM28.084 41.0215L27.5576 41.001C27.5622 40.4951 27.6374 40.028 27.7832 39.5996C27.929 39.1667 28.1341 38.7907 28.3984 38.4717C28.6628 38.1527 28.9772 37.9066 29.3418 37.7334C29.7109 37.5557 30.1188 37.4668 30.5654 37.4668C30.93 37.4668 31.2581 37.5169 31.5498 37.6172C31.8415 37.7129 32.0898 37.8678 32.2949 38.082C32.5046 38.2962 32.6641 38.5742 32.7734 38.916C32.8828 39.2533 32.9375 39.6657 32.9375 40.1533V45H31.666V40.1396C31.666 39.7523 31.609 39.4424 31.4951 39.21C31.3812 38.973 31.2148 38.8021 30.9961 38.6973C30.7773 38.5879 30.5085 38.5332 30.1895 38.5332C29.875 38.5332 29.5879 38.5993 29.3281 38.7314C29.0729 38.8636 28.8519 39.0459 28.665 39.2783C28.4827 39.5107 28.3392 39.7773 28.2344 40.0781C28.1341 40.3743 28.084 40.6888 28.084 41.0215ZM37.9277 45.1367C37.4128 45.1367 36.9456 45.0501 36.5264 44.877C36.1117 44.6992 35.7539 44.4508 35.4531 44.1318C35.1569 43.8128 34.929 43.4346 34.7695 42.9971C34.61 42.5596 34.5303 42.0811 34.5303 41.5615V41.2744C34.5303 40.6729 34.6191 40.1374 34.7969 39.668C34.9746 39.194 35.2161 38.793 35.5215 38.4648C35.8268 38.1367 36.1732 37.8883 36.5605 37.7197C36.9479 37.5511 37.349 37.4668 37.7637 37.4668C38.2923 37.4668 38.748 37.5579 39.1309 37.7402C39.5182 37.9225 39.835 38.1777 40.0811 38.5059C40.3271 38.8294 40.5094 39.2122 40.6279 39.6543C40.7464 40.0918 40.8057 40.5703 40.8057 41.0898V41.6572H35.2822V40.625H39.541V40.5293C39.5228 40.2012 39.4544 39.8822 39.3359 39.5723C39.222 39.2624 39.0397 39.0072 38.7891 38.8066C38.5384 38.6061 38.1966 38.5059 37.7637 38.5059C37.4766 38.5059 37.2122 38.5674 36.9707 38.6904C36.7292 38.8089 36.5218 38.9867 36.3486 39.2236C36.1755 39.4606 36.041 39.75 35.9453 40.0918C35.8496 40.4336 35.8018 40.8278 35.8018 41.2744V41.5615C35.8018 41.9124 35.8496 42.2428 35.9453 42.5527C36.0456 42.8581 36.1891 43.127 36.376 43.3594C36.5674 43.5918 36.7975 43.7741 37.0664 43.9062C37.3398 44.0384 37.6497 44.1045 37.9961 44.1045C38.4427 44.1045 38.821 44.0133 39.1309 43.8311C39.4408 43.6488 39.7119 43.4049 39.9443 43.0996L40.71 43.708C40.5505 43.9495 40.3477 44.1797 40.1016 44.3984C39.8555 44.6172 39.5524 44.7949 39.1924 44.9316C38.8369 45.0684 38.4154 45.1367 37.9277 45.1367ZM43.1367 37.6035L44.7568 40.2969L46.3975 37.6035H47.8809L45.4609 41.2539L47.9561 45H46.4932L44.7842 42.2246L43.0752 45H41.6055L44.0938 41.2539L41.6807 37.6035H43.1367ZM52.3242 37.6035V38.5742H48.3252V37.6035H52.3242ZM49.6787 35.8057H50.9434V43.168C50.9434 43.4186 50.9821 43.6077 51.0596 43.7354C51.137 43.863 51.2373 43.9473 51.3604 43.9883C51.4834 44.0293 51.6156 44.0498 51.7568 44.0498C51.8617 44.0498 51.971 44.0407 52.085 44.0225C52.2035 43.9997 52.2923 43.9814 52.3516 43.9678L52.3584 45C52.2581 45.0319 52.126 45.0615 51.9619 45.0889C51.8024 45.1208 51.6087 45.1367 51.3809 45.1367C51.071 45.1367 50.7861 45.0752 50.5264 44.9521C50.2666 44.8291 50.0592 44.624 49.9043 44.3369C49.7539 44.0452 49.6787 43.6533 49.6787 43.1611V35.8057Z" fill="#0D0D0D"/>
<circle cx="40" cy="40" r="39.5" stroke="#0D0D0D"/>
</svg>
