<svg width="96" height="80" viewBox="0 0 96 80" fill="none" xmlns="http://www.w3.org/2000/svg">
<path d="M4.75667 39.6806C6.28642 41.2319 8.05972 43.2387 8.12061 45.3689C6.02766 42.5132 3.30302 41.0776 -2.95639e-05 39.6806C3.30302 38.3453 5.90589 36.7631 8.12061 34C7.93795 36.2769 6.34731 37.9826 4.75667 39.6806Z" fill="#0D0D0D"/>
<path d="M31.2666 39.0254V47.8438H29.9951V37.6035H31.1572L31.2666 39.0254ZM36.25 41.2402V41.3838C36.25 41.9215 36.1862 42.4206 36.0586 42.8809C35.931 43.3366 35.7441 43.7331 35.498 44.0703C35.2565 44.4076 34.958 44.6696 34.6025 44.8564C34.2471 45.0433 33.8392 45.1367 33.3789 45.1367C32.9095 45.1367 32.4948 45.0592 32.1348 44.9043C31.7747 44.7493 31.4694 44.5238 31.2188 44.2275C30.9681 43.9313 30.7676 43.5758 30.6172 43.1611C30.4714 42.7464 30.3711 42.2793 30.3164 41.7598V40.9941C30.3711 40.4473 30.4736 39.9574 30.624 39.5244C30.7744 39.0915 30.9727 38.7223 31.2188 38.417C31.4694 38.1071 31.7725 37.8724 32.1279 37.7129C32.4834 37.5488 32.8936 37.4668 33.3584 37.4668C33.8232 37.4668 34.2357 37.5579 34.5957 37.7402C34.9557 37.918 35.2588 38.1732 35.5049 38.5059C35.751 38.8385 35.9355 39.2373 36.0586 39.7021C36.1862 40.1624 36.25 40.6751 36.25 41.2402ZM34.9785 41.3838V41.2402C34.9785 40.8711 34.9398 40.5247 34.8623 40.2012C34.7848 39.873 34.6641 39.5859 34.5 39.3398C34.3405 39.0892 34.1354 38.8932 33.8848 38.752C33.6341 38.6061 33.3356 38.5332 32.9893 38.5332C32.6702 38.5332 32.3923 38.5879 32.1553 38.6973C31.9229 38.8066 31.7246 38.9548 31.5605 39.1416C31.3965 39.3239 31.262 39.5335 31.1572 39.7705C31.057 40.0029 30.9818 40.2445 30.9316 40.4951V42.2656C31.0228 42.5846 31.1504 42.8854 31.3145 43.168C31.4785 43.446 31.6973 43.6715 31.9707 43.8447C32.2441 44.0133 32.5882 44.0977 33.0029 44.0977C33.3447 44.0977 33.6387 44.027 33.8848 43.8857C34.1354 43.7399 34.3405 43.5417 34.5 43.291C34.6641 43.0404 34.7848 42.7533 34.8623 42.4297C34.9398 42.1016 34.9785 41.7529 34.9785 41.3838ZM39.1279 38.7656V45H37.8633V37.6035H39.0938L39.1279 38.7656ZM41.4385 37.5625L41.4316 38.7383C41.3268 38.7155 41.2266 38.7018 41.1309 38.6973C41.0397 38.6882 40.9349 38.6836 40.8164 38.6836C40.5247 38.6836 40.2673 38.7292 40.0439 38.8203C39.8206 38.9115 39.6315 39.0391 39.4766 39.2031C39.3216 39.3672 39.1986 39.5632 39.1074 39.791C39.0208 40.0143 38.9639 40.2604 38.9365 40.5293L38.5811 40.7344C38.5811 40.2878 38.6243 39.8685 38.7109 39.4766C38.8021 39.0846 38.9411 38.7383 39.1279 38.4375C39.3148 38.1322 39.5518 37.8952 39.8389 37.7266C40.1305 37.5534 40.4769 37.4668 40.8779 37.4668C40.9691 37.4668 41.0739 37.4782 41.1924 37.501C41.3109 37.5192 41.3929 37.5397 41.4385 37.5625ZM45.54 45.1367C45.0251 45.1367 44.5579 45.0501 44.1387 44.877C43.724 44.6992 43.3662 44.4508 43.0654 44.1318C42.7692 43.8128 42.5413 43.4346 42.3818 42.9971C42.2223 42.5596 42.1426 42.0811 42.1426 41.5615V41.2744C42.1426 40.6729 42.2314 40.1374 42.4092 39.668C42.5869 39.194 42.8285 38.793 43.1338 38.4648C43.4391 38.1367 43.7855 37.8883 44.1729 37.7197C44.5602 37.5511 44.9613 37.4668 45.376 37.4668C45.9046 37.4668 46.3604 37.5579 46.7432 37.7402C47.1305 37.9225 47.4473 38.1777 47.6934 38.5059C47.9395 38.8294 48.1217 39.2122 48.2402 39.6543C48.3587 40.0918 48.418 40.5703 48.418 41.0898V41.6572H42.8945V40.625H47.1533V40.5293C47.1351 40.2012 47.0667 39.8822 46.9482 39.5723C46.8343 39.2624 46.652 39.0072 46.4014 38.8066C46.1507 38.6061 45.8089 38.5059 45.376 38.5059C45.0889 38.5059 44.8245 38.5674 44.583 38.6904C44.3415 38.8089 44.1341 38.9867 43.9609 39.2236C43.7878 39.4606 43.6533 39.75 43.5576 40.0918C43.4619 40.4336 43.4141 40.8278 43.4141 41.2744V41.5615C43.4141 41.9124 43.4619 42.2428 43.5576 42.5527C43.6579 42.8581 43.8014 43.127 43.9883 43.3594C44.1797 43.5918 44.4098 43.7741 44.6787 43.9062C44.9521 44.0384 45.262 44.1045 45.6084 44.1045C46.055 44.1045 46.4333 44.0133 46.7432 43.8311C47.0531 43.6488 47.3242 43.4049 47.5566 43.0996L48.3223 43.708C48.1628 43.9495 47.96 44.1797 47.7139 44.3984C47.4678 44.6172 47.1647 44.7949 46.8047 44.9316C46.4492 45.0684 46.0277 45.1367 45.54 45.1367ZM52.0479 43.8584L54.0713 37.6035H55.3633L52.7041 45H51.8564L52.0479 43.8584ZM50.3594 37.6035L52.4443 43.8926L52.5879 45H51.7402L49.0605 37.6035H50.3594ZM57.9541 37.6035V45H56.6826V37.6035H57.9541ZM56.5869 35.6416C56.5869 35.4365 56.6484 35.2633 56.7715 35.1221C56.8991 34.9808 57.0859 34.9102 57.332 34.9102C57.5736 34.9102 57.7581 34.9808 57.8857 35.1221C58.0179 35.2633 58.084 35.4365 58.084 35.6416C58.084 35.8376 58.0179 36.0062 57.8857 36.1475C57.7581 36.2842 57.5736 36.3525 57.332 36.3525C57.0859 36.3525 56.8991 36.2842 56.7715 36.1475C56.6484 36.0062 56.5869 35.8376 56.5869 35.6416ZM59.6494 41.3838V41.2266C59.6494 40.6934 59.7269 40.1989 59.8818 39.7432C60.0368 39.2829 60.2601 38.8841 60.5518 38.5469C60.8434 38.2051 61.1966 37.9408 61.6113 37.7539C62.026 37.5625 62.4909 37.4668 63.0059 37.4668C63.5254 37.4668 63.9925 37.5625 64.4072 37.7539C64.8265 37.9408 65.182 38.2051 65.4736 38.5469C65.7699 38.8841 65.9954 39.2829 66.1504 39.7432C66.3053 40.1989 66.3828 40.6934 66.3828 41.2266V41.3838C66.3828 41.917 66.3053 42.4115 66.1504 42.8672C65.9954 43.3229 65.7699 43.7217 65.4736 44.0635C65.182 44.4007 64.8288 44.665 64.4141 44.8564C64.0039 45.0433 63.5391 45.1367 63.0195 45.1367C62.5 45.1367 62.0329 45.0433 61.6182 44.8564C61.2035 44.665 60.848 44.4007 60.5518 44.0635C60.2601 43.7217 60.0368 43.3229 59.8818 42.8672C59.7269 42.4115 59.6494 41.917 59.6494 41.3838ZM60.9141 41.2266V41.3838C60.9141 41.7529 60.9574 42.1016 61.0439 42.4297C61.1305 42.7533 61.2604 43.0404 61.4336 43.291C61.6113 43.5417 61.8324 43.7399 62.0967 43.8857C62.361 44.027 62.6686 44.0977 63.0195 44.0977C63.3659 44.0977 63.6689 44.027 63.9287 43.8857C64.193 43.7399 64.4118 43.5417 64.585 43.291C64.7581 43.0404 64.888 42.7533 64.9746 42.4297C65.0658 42.1016 65.1113 41.7529 65.1113 41.3838V41.2266C65.1113 40.862 65.0658 40.5179 64.9746 40.1943C64.888 39.8662 64.7559 39.5768 64.5781 39.3262C64.4049 39.071 64.1862 38.8704 63.9219 38.7246C63.6621 38.5788 63.3568 38.5059 63.0059 38.5059C62.6595 38.5059 62.3542 38.5788 62.0898 38.7246C61.8301 38.8704 61.6113 39.071 61.4336 39.3262C61.2604 39.5768 61.1305 39.8662 61.0439 40.1943C60.9574 40.5179 60.9141 40.862 60.9141 41.2266ZM72.4941 43.291V37.6035H73.7656V45H72.5557L72.4941 43.291ZM72.7334 41.7324L73.2598 41.7188C73.2598 42.2109 73.2074 42.6667 73.1025 43.0859C73.0023 43.5007 72.8382 43.8607 72.6104 44.166C72.3825 44.4714 72.084 44.7106 71.7148 44.8838C71.3457 45.0524 70.8968 45.1367 70.3682 45.1367C70.0081 45.1367 69.6777 45.0843 69.377 44.9795C69.0807 44.8747 68.8255 44.7129 68.6113 44.4941C68.3971 44.2754 68.2308 43.9906 68.1123 43.6396C67.9984 43.2887 67.9414 42.8672 67.9414 42.375V37.6035H69.2061V42.3887C69.2061 42.7214 69.2425 42.9971 69.3154 43.2158C69.3929 43.43 69.4954 43.6009 69.623 43.7285C69.7552 43.8516 69.901 43.9382 70.0605 43.9883C70.2246 44.0384 70.3932 44.0635 70.5664 44.0635C71.1042 44.0635 71.5303 43.9609 71.8447 43.7559C72.1592 43.5462 72.3848 43.266 72.5215 42.915C72.6628 42.5596 72.7334 42.1654 72.7334 41.7324ZM80 43.0381C80 42.8558 79.959 42.6872 79.877 42.5322C79.7995 42.3727 79.6377 42.2292 79.3916 42.1016C79.1501 41.9694 78.7855 41.8555 78.2979 41.7598C77.8877 41.6732 77.5163 41.5706 77.1836 41.4521C76.8555 41.3337 76.5752 41.1901 76.3428 41.0215C76.1149 40.8529 75.9395 40.6546 75.8164 40.4268C75.6934 40.1989 75.6318 39.9323 75.6318 39.627C75.6318 39.3353 75.6956 39.0596 75.8232 38.7998C75.9554 38.54 76.14 38.3099 76.377 38.1094C76.6185 37.9089 76.9079 37.7516 77.2451 37.6377C77.5824 37.5238 77.9583 37.4668 78.373 37.4668C78.9655 37.4668 79.4714 37.5716 79.8906 37.7812C80.3099 37.9909 80.6312 38.2712 80.8545 38.6221C81.0778 38.9684 81.1895 39.3535 81.1895 39.7773H79.9248C79.9248 39.5723 79.8633 39.374 79.7402 39.1826C79.6217 38.9867 79.4463 38.8249 79.2139 38.6973C78.986 38.5697 78.7057 38.5059 78.373 38.5059C78.0221 38.5059 77.7373 38.5605 77.5186 38.6699C77.3044 38.7747 77.1471 38.9092 77.0469 39.0732C76.9512 39.2373 76.9033 39.4105 76.9033 39.5928C76.9033 39.7295 76.9261 39.8525 76.9717 39.9619C77.0218 40.0667 77.1084 40.1647 77.2314 40.2559C77.3545 40.3424 77.5277 40.4245 77.751 40.502C77.9743 40.5794 78.2591 40.6569 78.6055 40.7344C79.2116 40.8711 79.7106 41.0352 80.1025 41.2266C80.4945 41.418 80.7861 41.6527 80.9775 41.9307C81.1689 42.2087 81.2646 42.5459 81.2646 42.9424C81.2646 43.266 81.1963 43.5622 81.0596 43.8311C80.9274 44.0999 80.7337 44.3324 80.4785 44.5283C80.2279 44.7197 79.9271 44.8701 79.5762 44.9795C79.2298 45.0843 78.8402 45.1367 78.4072 45.1367C77.7555 45.1367 77.2041 45.0205 76.7529 44.7881C76.3018 44.5557 75.96 44.2549 75.7275 43.8857C75.4951 43.5166 75.3789 43.127 75.3789 42.7168H76.6504C76.6686 43.0632 76.7689 43.3389 76.9512 43.5439C77.1335 43.7445 77.3568 43.888 77.6211 43.9746C77.8854 44.0566 78.1475 44.0977 78.4072 44.0977C78.7536 44.0977 79.043 44.0521 79.2754 43.9609C79.5124 43.8698 79.6924 43.7445 79.8154 43.585C79.9385 43.4255 80 43.2432 80 43.0381Z" fill="#0D0D0D"/>
<circle cx="56" cy="40" r="39.5" stroke="#0D0D0D"/>
</svg>
