<svg width="24" height="17" viewBox="0 0 24 17" fill="none" xmlns="http://www.w3.org/2000/svg">
<path d="M2.66667 11.1379C3.90572 9.57558 5.49495 8.79443 7.43434 8.79443C7.91919 8.79443 8.35017 8.98298 8.72727 9.36008C9.15825 9.73719 9.37374 10.1412 9.37374 10.5722C9.37374 12.0268 8.75421 13.3736 7.51515 14.6126C6.16835 15.9594 4.79461 16.6328 3.39394 16.6328C2.04714 16.6328 1.13131 16.2557 0.646465 15.5015C0.215488 14.7473 0 13.9661 0 13.1581C0 12.2961 0.377104 10.9762 1.13131 9.19847C1.88552 7.42069 3.367 5.58904 5.57576 3.70352C7.94613 1.65638 10.2357 0.632812 12.4444 0.632812C12.6599 0.632812 12.7677 0.740558 12.7677 0.956046C12.6599 1.06379 12.5522 1.1446 12.4444 1.19847C10.1279 1.41396 8 2.54527 6.06061 4.59241C4.12121 6.58567 2.9899 8.76749 2.66667 11.1379ZM17.2121 4.59241C15.2727 6.58567 14.1414 8.76749 13.8182 11.1379C15.3805 9.57558 16.8889 8.79443 18.3434 8.79443C18.9899 8.79443 19.5017 8.98298 19.8788 9.36008C20.3098 9.73719 20.5253 10.1682 20.5253 10.653C20.5253 11.084 20.4444 11.6496 20.2828 12.35C20.1212 12.9964 19.5286 13.8315 18.505 14.855C17.3199 16.0402 16.0269 16.6328 14.6263 16.6328C13.2795 16.6328 12.3636 16.2557 11.8788 15.5015C11.4478 14.7473 11.2323 13.9661 11.2323 13.1581C11.2323 12.2961 11.6094 10.9762 12.3636 9.19847C13.1178 7.42069 14.5724 5.58904 16.7273 3.70352C19.0976 1.65638 21.3872 0.632812 23.596 0.632812C23.8114 0.632812 23.9461 0.740558 24 0.956046C23.8923 1.06379 23.7845 1.1446 23.6768 1.19847C21.3064 1.41396 19.1515 2.54527 17.2121 4.59241Z" fill="#0D0D0D"/>
</svg>
